M48
; DRILL file {KiCad 8.0.0} date 2024-09-22T00:09:21+0600
; FORMAT={-:-/ absolute / metric / decimal}
; #@! TF.CreationDate,2024-09-22T00:09:21+06:00
; #@! TF.GenerationSoftware,Kicad,Pcbnew,8.0.0
; #@! TF.FileFunction,Plated,1,2,PTH
FMAT,2
METRIC
; #@! TA.AperFunction,Plated,PTH,ComponentDrill
T1C0.800
; #@! TA.AperFunction,Plated,PTH,ComponentDrill
T2C0.840
; #@! TA.AperFunction,Plated,PTH,ComponentDrill
T3C1.000
; #@! TA.AperFunction,Plated,PTH,ComponentDrill
T4C1.100
; #@! TA.AperFunction,Plated,PTH,ComponentDrill
T5C1.300
; #@! TA.AperFunction,Plated,PTH,ComponentDrill
T6C1.520
%
G90
G05
T1
X93.875Y-87.225
X101.475Y-87.225
T2
X142.222Y-73.26
X142.222Y-75.8
X142.222Y-78.34
X149.843Y-73.26
X149.843Y-75.8
X149.843Y-78.34
T3
X91.25Y-52.555
X91.25Y-57.635
X91.25Y-66.22
X91.25Y-71.3
X98.7Y-52.57
X98.7Y-57.65
X98.7Y-66.235
X98.7Y-71.315
X112.04Y-80.76
X112.04Y-83.3
X112.04Y-85.84
X112.04Y-88.38
X112.04Y-90.92
X112.04Y-93.46
X112.04Y-96.0
X112.04Y-98.54
X114.542Y-50.508
X114.542Y-65.507
X134.9Y-80.76
X134.9Y-83.3
X134.9Y-85.84
X134.9Y-88.38
X134.9Y-90.92
X134.9Y-93.46
X134.9Y-96.0
X134.9Y-98.54
X143.623Y-55.508
X143.623Y-60.508
X143.7Y-83.36
X143.7Y-88.44
X155.285Y-73.125
X160.365Y-73.125
T4
X104.925Y-50.495
X104.925Y-60.655
X154.315Y-78.33
X157.315Y-78.33
X160.315Y-78.33
T5
X88.935Y-98.225
X88.935Y-103.225
X101.435Y-98.225
X101.435Y-103.225
T6
X152.635Y-102.975
X153.625Y-50.575
X157.715Y-102.975
X158.705Y-50.575
M30
