%TF.GenerationSoftware,KiCad,Pcbnew,8.0.0*%
%TF.CreationDate,2024-09-22T00:05:50+06:00*%
%TF.ProjectId,auto light,6175746f-206c-4696-9768-742e6b696361,02*%
%TF.SameCoordinates,Original*%
%TF.FileFunction,AssemblyDrawing,Top*%
%FSLAX46Y46*%
G04 Gerber Fmt 4.6, Leading zero omitted, Abs format (unit mm)*
G04 Created by KiCad (PCBNEW 8.0.0) date 2024-09-22 00:05:50*
%MOMM*%
%LPD*%
G01*
G04 APERTURE LIST*
%ADD10C,0.100000*%
%ADD11C,0.150000*%
%ADD12C,0.300000*%
%ADD13C,0.400000*%
%ADD14C,0.127000*%
%TA.AperFunction,NonConductor*%
%ADD15C,0.200000*%
%TD*%
%TA.AperFunction,ComponentPad*%
%ADD16R,2.000000X2.000000*%
%TD*%
%TA.AperFunction,ComponentPad*%
%ADD17O,2.000000X1.600000*%
%TD*%
%TA.AperFunction,ComponentPad*%
%ADD18C,2.000000*%
%TD*%
%TA.AperFunction,ComponentPad*%
%ADD19R,2.200000X2.200000*%
%TD*%
%TA.AperFunction,ComponentPad*%
%ADD20O,2.200000X2.200000*%
%TD*%
%TA.AperFunction,ComponentPad*%
%ADD21R,1.905000X2.000000*%
%TD*%
%TA.AperFunction,ComponentPad*%
%ADD22O,1.905000X2.000000*%
%TD*%
%TA.AperFunction,ComponentPad*%
%ADD23R,3.000000X3.000000*%
%TD*%
%TA.AperFunction,ComponentPad*%
%ADD24C,3.000000*%
%TD*%
%TA.AperFunction,ComponentPad*%
%ADD25O,3.048000X1.850000*%
%TD*%
%TA.AperFunction,ComponentPad*%
%ADD26C,1.600000*%
%TD*%
%TA.AperFunction,ComponentPad*%
%ADD27R,1.700000X2.000000*%
%TD*%
%TA.AperFunction,ComponentPad*%
%ADD28O,1.700000X2.000000*%
%TD*%
%TA.AperFunction,ComponentPad*%
%ADD29C,1.260000*%
%TD*%
%TA.AperFunction,ComponentPad*%
%ADD30R,1.260000X1.260000*%
%TD*%
%TA.AperFunction,Conductor*%
%ADD31C,0.760000*%
%TD*%
G04 APERTURE END LIST*
D10*
D11*
X177002200Y-166007200D02*
X285002200Y-166007200D01*
X285002200Y-198007200D01*
X177002200Y-198007200D01*
X177002200Y-166007200D01*
D10*
D11*
X10000000Y-10000000D02*
X287002200Y-10000000D01*
X287002200Y-200007200D01*
X10000000Y-200007200D01*
X10000000Y-10000000D01*
D10*
D11*
X12000000Y-12000000D02*
X285002200Y-12000000D01*
X285002200Y-198007200D01*
X12000000Y-198007200D01*
X12000000Y-12000000D01*
D10*
D11*
X60000000Y-12000000D02*
X60000000Y-10000000D01*
D10*
D11*
X110000000Y-12000000D02*
X110000000Y-10000000D01*
D10*
D11*
X160000000Y-12000000D02*
X160000000Y-10000000D01*
D10*
D11*
X210000000Y-12000000D02*
X210000000Y-10000000D01*
D10*
D11*
X260000000Y-12000000D02*
X260000000Y-10000000D01*
D10*
D11*
X36089160Y-11593604D02*
X35346303Y-11593604D01*
X35717731Y-11593604D02*
X35717731Y-10293604D01*
X35717731Y-10293604D02*
X35593922Y-10479319D01*
X35593922Y-10479319D02*
X35470112Y-10603128D01*
X35470112Y-10603128D02*
X35346303Y-10665033D01*
D10*
D11*
X85346303Y-10417414D02*
X85408207Y-10355509D01*
X85408207Y-10355509D02*
X85532017Y-10293604D01*
X85532017Y-10293604D02*
X85841541Y-10293604D01*
X85841541Y-10293604D02*
X85965350Y-10355509D01*
X85965350Y-10355509D02*
X86027255Y-10417414D01*
X86027255Y-10417414D02*
X86089160Y-10541223D01*
X86089160Y-10541223D02*
X86089160Y-10665033D01*
X86089160Y-10665033D02*
X86027255Y-10850747D01*
X86027255Y-10850747D02*
X85284398Y-11593604D01*
X85284398Y-11593604D02*
X86089160Y-11593604D01*
D10*
D11*
X135284398Y-10293604D02*
X136089160Y-10293604D01*
X136089160Y-10293604D02*
X135655826Y-10788842D01*
X135655826Y-10788842D02*
X135841541Y-10788842D01*
X135841541Y-10788842D02*
X135965350Y-10850747D01*
X135965350Y-10850747D02*
X136027255Y-10912652D01*
X136027255Y-10912652D02*
X136089160Y-11036461D01*
X136089160Y-11036461D02*
X136089160Y-11345985D01*
X136089160Y-11345985D02*
X136027255Y-11469795D01*
X136027255Y-11469795D02*
X135965350Y-11531700D01*
X135965350Y-11531700D02*
X135841541Y-11593604D01*
X135841541Y-11593604D02*
X135470112Y-11593604D01*
X135470112Y-11593604D02*
X135346303Y-11531700D01*
X135346303Y-11531700D02*
X135284398Y-11469795D01*
D10*
D11*
X185965350Y-10726938D02*
X185965350Y-11593604D01*
X185655826Y-10231700D02*
X185346303Y-11160271D01*
X185346303Y-11160271D02*
X186151064Y-11160271D01*
D10*
D11*
X236027255Y-10293604D02*
X235408207Y-10293604D01*
X235408207Y-10293604D02*
X235346303Y-10912652D01*
X235346303Y-10912652D02*
X235408207Y-10850747D01*
X235408207Y-10850747D02*
X235532017Y-10788842D01*
X235532017Y-10788842D02*
X235841541Y-10788842D01*
X235841541Y-10788842D02*
X235965350Y-10850747D01*
X235965350Y-10850747D02*
X236027255Y-10912652D01*
X236027255Y-10912652D02*
X236089160Y-11036461D01*
X236089160Y-11036461D02*
X236089160Y-11345985D01*
X236089160Y-11345985D02*
X236027255Y-11469795D01*
X236027255Y-11469795D02*
X235965350Y-11531700D01*
X235965350Y-11531700D02*
X235841541Y-11593604D01*
X235841541Y-11593604D02*
X235532017Y-11593604D01*
X235532017Y-11593604D02*
X235408207Y-11531700D01*
X235408207Y-11531700D02*
X235346303Y-11469795D01*
D10*
D11*
X285965350Y-10293604D02*
X285717731Y-10293604D01*
X285717731Y-10293604D02*
X285593922Y-10355509D01*
X285593922Y-10355509D02*
X285532017Y-10417414D01*
X285532017Y-10417414D02*
X285408207Y-10603128D01*
X285408207Y-10603128D02*
X285346303Y-10850747D01*
X285346303Y-10850747D02*
X285346303Y-11345985D01*
X285346303Y-11345985D02*
X285408207Y-11469795D01*
X285408207Y-11469795D02*
X285470112Y-11531700D01*
X285470112Y-11531700D02*
X285593922Y-11593604D01*
X285593922Y-11593604D02*
X285841541Y-11593604D01*
X285841541Y-11593604D02*
X285965350Y-11531700D01*
X285965350Y-11531700D02*
X286027255Y-11469795D01*
X286027255Y-11469795D02*
X286089160Y-11345985D01*
X286089160Y-11345985D02*
X286089160Y-11036461D01*
X286089160Y-11036461D02*
X286027255Y-10912652D01*
X286027255Y-10912652D02*
X285965350Y-10850747D01*
X285965350Y-10850747D02*
X285841541Y-10788842D01*
X285841541Y-10788842D02*
X285593922Y-10788842D01*
X285593922Y-10788842D02*
X285470112Y-10850747D01*
X285470112Y-10850747D02*
X285408207Y-10912652D01*
X285408207Y-10912652D02*
X285346303Y-11036461D01*
D10*
D11*
X60000000Y-198007200D02*
X60000000Y-200007200D01*
D10*
D11*
X110000000Y-198007200D02*
X110000000Y-200007200D01*
D10*
D11*
X160000000Y-198007200D02*
X160000000Y-200007200D01*
D10*
D11*
X210000000Y-198007200D02*
X210000000Y-200007200D01*
D10*
D11*
X260000000Y-198007200D02*
X260000000Y-200007200D01*
D10*
D11*
X36089160Y-199600804D02*
X35346303Y-199600804D01*
X35717731Y-199600804D02*
X35717731Y-198300804D01*
X35717731Y-198300804D02*
X35593922Y-198486519D01*
X35593922Y-198486519D02*
X35470112Y-198610328D01*
X35470112Y-198610328D02*
X35346303Y-198672233D01*
D10*
D11*
X85346303Y-198424614D02*
X85408207Y-198362709D01*
X85408207Y-198362709D02*
X85532017Y-198300804D01*
X85532017Y-198300804D02*
X85841541Y-198300804D01*
X85841541Y-198300804D02*
X85965350Y-198362709D01*
X85965350Y-198362709D02*
X86027255Y-198424614D01*
X86027255Y-198424614D02*
X86089160Y-198548423D01*
X86089160Y-198548423D02*
X86089160Y-198672233D01*
X86089160Y-198672233D02*
X86027255Y-198857947D01*
X86027255Y-198857947D02*
X85284398Y-199600804D01*
X85284398Y-199600804D02*
X86089160Y-199600804D01*
D10*
D11*
X135284398Y-198300804D02*
X136089160Y-198300804D01*
X136089160Y-198300804D02*
X135655826Y-198796042D01*
X135655826Y-198796042D02*
X135841541Y-198796042D01*
X135841541Y-198796042D02*
X135965350Y-198857947D01*
X135965350Y-198857947D02*
X136027255Y-198919852D01*
X136027255Y-198919852D02*
X136089160Y-199043661D01*
X136089160Y-199043661D02*
X136089160Y-199353185D01*
X136089160Y-199353185D02*
X136027255Y-199476995D01*
X136027255Y-199476995D02*
X135965350Y-199538900D01*
X135965350Y-199538900D02*
X135841541Y-199600804D01*
X135841541Y-199600804D02*
X135470112Y-199600804D01*
X135470112Y-199600804D02*
X135346303Y-199538900D01*
X135346303Y-199538900D02*
X135284398Y-199476995D01*
D10*
D11*
X185965350Y-198734138D02*
X185965350Y-199600804D01*
X185655826Y-198238900D02*
X185346303Y-199167471D01*
X185346303Y-199167471D02*
X186151064Y-199167471D01*
D10*
D11*
X236027255Y-198300804D02*
X235408207Y-198300804D01*
X235408207Y-198300804D02*
X235346303Y-198919852D01*
X235346303Y-198919852D02*
X235408207Y-198857947D01*
X235408207Y-198857947D02*
X235532017Y-198796042D01*
X235532017Y-198796042D02*
X235841541Y-198796042D01*
X235841541Y-198796042D02*
X235965350Y-198857947D01*
X235965350Y-198857947D02*
X236027255Y-198919852D01*
X236027255Y-198919852D02*
X236089160Y-199043661D01*
X236089160Y-199043661D02*
X236089160Y-199353185D01*
X236089160Y-199353185D02*
X236027255Y-199476995D01*
X236027255Y-199476995D02*
X235965350Y-199538900D01*
X235965350Y-199538900D02*
X235841541Y-199600804D01*
X235841541Y-199600804D02*
X235532017Y-199600804D01*
X235532017Y-199600804D02*
X235408207Y-199538900D01*
X235408207Y-199538900D02*
X235346303Y-199476995D01*
D10*
D11*
X285965350Y-198300804D02*
X285717731Y-198300804D01*
X285717731Y-198300804D02*
X285593922Y-198362709D01*
X285593922Y-198362709D02*
X285532017Y-198424614D01*
X285532017Y-198424614D02*
X285408207Y-198610328D01*
X285408207Y-198610328D02*
X285346303Y-198857947D01*
X285346303Y-198857947D02*
X285346303Y-199353185D01*
X285346303Y-199353185D02*
X285408207Y-199476995D01*
X285408207Y-199476995D02*
X285470112Y-199538900D01*
X285470112Y-199538900D02*
X285593922Y-199600804D01*
X285593922Y-199600804D02*
X285841541Y-199600804D01*
X285841541Y-199600804D02*
X285965350Y-199538900D01*
X285965350Y-199538900D02*
X286027255Y-199476995D01*
X286027255Y-199476995D02*
X286089160Y-199353185D01*
X286089160Y-199353185D02*
X286089160Y-199043661D01*
X286089160Y-199043661D02*
X286027255Y-198919852D01*
X286027255Y-198919852D02*
X285965350Y-198857947D01*
X285965350Y-198857947D02*
X285841541Y-198796042D01*
X285841541Y-198796042D02*
X285593922Y-198796042D01*
X285593922Y-198796042D02*
X285470112Y-198857947D01*
X285470112Y-198857947D02*
X285408207Y-198919852D01*
X285408207Y-198919852D02*
X285346303Y-199043661D01*
D10*
D11*
X10000000Y-60000000D02*
X12000000Y-60000000D01*
D10*
D11*
X10000000Y-110000000D02*
X12000000Y-110000000D01*
D10*
D11*
X10000000Y-160000000D02*
X12000000Y-160000000D01*
D10*
D11*
X10690476Y-35222176D02*
X11309523Y-35222176D01*
X10566666Y-35593604D02*
X10999999Y-34293604D01*
X10999999Y-34293604D02*
X11433333Y-35593604D01*
D10*
D11*
X11092857Y-84912652D02*
X11278571Y-84974557D01*
X11278571Y-84974557D02*
X11340476Y-85036461D01*
X11340476Y-85036461D02*
X11402380Y-85160271D01*
X11402380Y-85160271D02*
X11402380Y-85345985D01*
X11402380Y-85345985D02*
X11340476Y-85469795D01*
X11340476Y-85469795D02*
X11278571Y-85531700D01*
X11278571Y-85531700D02*
X11154761Y-85593604D01*
X11154761Y-85593604D02*
X10659523Y-85593604D01*
X10659523Y-85593604D02*
X10659523Y-84293604D01*
X10659523Y-84293604D02*
X11092857Y-84293604D01*
X11092857Y-84293604D02*
X11216666Y-84355509D01*
X11216666Y-84355509D02*
X11278571Y-84417414D01*
X11278571Y-84417414D02*
X11340476Y-84541223D01*
X11340476Y-84541223D02*
X11340476Y-84665033D01*
X11340476Y-84665033D02*
X11278571Y-84788842D01*
X11278571Y-84788842D02*
X11216666Y-84850747D01*
X11216666Y-84850747D02*
X11092857Y-84912652D01*
X11092857Y-84912652D02*
X10659523Y-84912652D01*
D10*
D11*
X11402380Y-135469795D02*
X11340476Y-135531700D01*
X11340476Y-135531700D02*
X11154761Y-135593604D01*
X11154761Y-135593604D02*
X11030952Y-135593604D01*
X11030952Y-135593604D02*
X10845238Y-135531700D01*
X10845238Y-135531700D02*
X10721428Y-135407890D01*
X10721428Y-135407890D02*
X10659523Y-135284080D01*
X10659523Y-135284080D02*
X10597619Y-135036461D01*
X10597619Y-135036461D02*
X10597619Y-134850747D01*
X10597619Y-134850747D02*
X10659523Y-134603128D01*
X10659523Y-134603128D02*
X10721428Y-134479319D01*
X10721428Y-134479319D02*
X10845238Y-134355509D01*
X10845238Y-134355509D02*
X11030952Y-134293604D01*
X11030952Y-134293604D02*
X11154761Y-134293604D01*
X11154761Y-134293604D02*
X11340476Y-134355509D01*
X11340476Y-134355509D02*
X11402380Y-134417414D01*
D10*
D11*
X10659523Y-185593604D02*
X10659523Y-184293604D01*
X10659523Y-184293604D02*
X10969047Y-184293604D01*
X10969047Y-184293604D02*
X11154761Y-184355509D01*
X11154761Y-184355509D02*
X11278571Y-184479319D01*
X11278571Y-184479319D02*
X11340476Y-184603128D01*
X11340476Y-184603128D02*
X11402380Y-184850747D01*
X11402380Y-184850747D02*
X11402380Y-185036461D01*
X11402380Y-185036461D02*
X11340476Y-185284080D01*
X11340476Y-185284080D02*
X11278571Y-185407890D01*
X11278571Y-185407890D02*
X11154761Y-185531700D01*
X11154761Y-185531700D02*
X10969047Y-185593604D01*
X10969047Y-185593604D02*
X10659523Y-185593604D01*
D10*
D11*
X287002200Y-60000000D02*
X285002200Y-60000000D01*
D10*
D11*
X287002200Y-110000000D02*
X285002200Y-110000000D01*
D10*
D11*
X287002200Y-160000000D02*
X285002200Y-160000000D01*
D10*
D11*
X285692676Y-35222176D02*
X286311723Y-35222176D01*
X285568866Y-35593604D02*
X286002199Y-34293604D01*
X286002199Y-34293604D02*
X286435533Y-35593604D01*
D10*
D11*
X286095057Y-84912652D02*
X286280771Y-84974557D01*
X286280771Y-84974557D02*
X286342676Y-85036461D01*
X286342676Y-85036461D02*
X286404580Y-85160271D01*
X286404580Y-85160271D02*
X286404580Y-85345985D01*
X286404580Y-85345985D02*
X286342676Y-85469795D01*
X286342676Y-85469795D02*
X286280771Y-85531700D01*
X286280771Y-85531700D02*
X286156961Y-85593604D01*
X286156961Y-85593604D02*
X285661723Y-85593604D01*
X285661723Y-85593604D02*
X285661723Y-84293604D01*
X285661723Y-84293604D02*
X286095057Y-84293604D01*
X286095057Y-84293604D02*
X286218866Y-84355509D01*
X286218866Y-84355509D02*
X286280771Y-84417414D01*
X286280771Y-84417414D02*
X286342676Y-84541223D01*
X286342676Y-84541223D02*
X286342676Y-84665033D01*
X286342676Y-84665033D02*
X286280771Y-84788842D01*
X286280771Y-84788842D02*
X286218866Y-84850747D01*
X286218866Y-84850747D02*
X286095057Y-84912652D01*
X286095057Y-84912652D02*
X285661723Y-84912652D01*
D10*
D11*
X286404580Y-135469795D02*
X286342676Y-135531700D01*
X286342676Y-135531700D02*
X286156961Y-135593604D01*
X286156961Y-135593604D02*
X286033152Y-135593604D01*
X286033152Y-135593604D02*
X285847438Y-135531700D01*
X285847438Y-135531700D02*
X285723628Y-135407890D01*
X285723628Y-135407890D02*
X285661723Y-135284080D01*
X285661723Y-135284080D02*
X285599819Y-135036461D01*
X285599819Y-135036461D02*
X285599819Y-134850747D01*
X285599819Y-134850747D02*
X285661723Y-134603128D01*
X285661723Y-134603128D02*
X285723628Y-134479319D01*
X285723628Y-134479319D02*
X285847438Y-134355509D01*
X285847438Y-134355509D02*
X286033152Y-134293604D01*
X286033152Y-134293604D02*
X286156961Y-134293604D01*
X286156961Y-134293604D02*
X286342676Y-134355509D01*
X286342676Y-134355509D02*
X286404580Y-134417414D01*
D10*
D11*
X285661723Y-185593604D02*
X285661723Y-184293604D01*
X285661723Y-184293604D02*
X285971247Y-184293604D01*
X285971247Y-184293604D02*
X286156961Y-184355509D01*
X286156961Y-184355509D02*
X286280771Y-184479319D01*
X286280771Y-184479319D02*
X286342676Y-184603128D01*
X286342676Y-184603128D02*
X286404580Y-184850747D01*
X286404580Y-184850747D02*
X286404580Y-185036461D01*
X286404580Y-185036461D02*
X286342676Y-185284080D01*
X286342676Y-185284080D02*
X286280771Y-185407890D01*
X286280771Y-185407890D02*
X286156961Y-185531700D01*
X286156961Y-185531700D02*
X285971247Y-185593604D01*
X285971247Y-185593604D02*
X285661723Y-185593604D01*
D10*
D11*
X200458026Y-193793328D02*
X200458026Y-192293328D01*
X200458026Y-192293328D02*
X200815169Y-192293328D01*
X200815169Y-192293328D02*
X201029455Y-192364757D01*
X201029455Y-192364757D02*
X201172312Y-192507614D01*
X201172312Y-192507614D02*
X201243741Y-192650471D01*
X201243741Y-192650471D02*
X201315169Y-192936185D01*
X201315169Y-192936185D02*
X201315169Y-193150471D01*
X201315169Y-193150471D02*
X201243741Y-193436185D01*
X201243741Y-193436185D02*
X201172312Y-193579042D01*
X201172312Y-193579042D02*
X201029455Y-193721900D01*
X201029455Y-193721900D02*
X200815169Y-193793328D01*
X200815169Y-193793328D02*
X200458026Y-193793328D01*
X202600884Y-193793328D02*
X202600884Y-193007614D01*
X202600884Y-193007614D02*
X202529455Y-192864757D01*
X202529455Y-192864757D02*
X202386598Y-192793328D01*
X202386598Y-192793328D02*
X202100884Y-192793328D01*
X202100884Y-192793328D02*
X201958026Y-192864757D01*
X202600884Y-193721900D02*
X202458026Y-193793328D01*
X202458026Y-193793328D02*
X202100884Y-193793328D01*
X202100884Y-193793328D02*
X201958026Y-193721900D01*
X201958026Y-193721900D02*
X201886598Y-193579042D01*
X201886598Y-193579042D02*
X201886598Y-193436185D01*
X201886598Y-193436185D02*
X201958026Y-193293328D01*
X201958026Y-193293328D02*
X202100884Y-193221900D01*
X202100884Y-193221900D02*
X202458026Y-193221900D01*
X202458026Y-193221900D02*
X202600884Y-193150471D01*
X203100884Y-192793328D02*
X203672312Y-192793328D01*
X203315169Y-192293328D02*
X203315169Y-193579042D01*
X203315169Y-193579042D02*
X203386598Y-193721900D01*
X203386598Y-193721900D02*
X203529455Y-193793328D01*
X203529455Y-193793328D02*
X203672312Y-193793328D01*
X204743741Y-193721900D02*
X204600884Y-193793328D01*
X204600884Y-193793328D02*
X204315170Y-193793328D01*
X204315170Y-193793328D02*
X204172312Y-193721900D01*
X204172312Y-193721900D02*
X204100884Y-193579042D01*
X204100884Y-193579042D02*
X204100884Y-193007614D01*
X204100884Y-193007614D02*
X204172312Y-192864757D01*
X204172312Y-192864757D02*
X204315170Y-192793328D01*
X204315170Y-192793328D02*
X204600884Y-192793328D01*
X204600884Y-192793328D02*
X204743741Y-192864757D01*
X204743741Y-192864757D02*
X204815170Y-193007614D01*
X204815170Y-193007614D02*
X204815170Y-193150471D01*
X204815170Y-193150471D02*
X204100884Y-193293328D01*
X205458026Y-193650471D02*
X205529455Y-193721900D01*
X205529455Y-193721900D02*
X205458026Y-193793328D01*
X205458026Y-193793328D02*
X205386598Y-193721900D01*
X205386598Y-193721900D02*
X205458026Y-193650471D01*
X205458026Y-193650471D02*
X205458026Y-193793328D01*
X205458026Y-192864757D02*
X205529455Y-192936185D01*
X205529455Y-192936185D02*
X205458026Y-193007614D01*
X205458026Y-193007614D02*
X205386598Y-192936185D01*
X205386598Y-192936185D02*
X205458026Y-192864757D01*
X205458026Y-192864757D02*
X205458026Y-193007614D01*
X207243741Y-192436185D02*
X207315169Y-192364757D01*
X207315169Y-192364757D02*
X207458027Y-192293328D01*
X207458027Y-192293328D02*
X207815169Y-192293328D01*
X207815169Y-192293328D02*
X207958027Y-192364757D01*
X207958027Y-192364757D02*
X208029455Y-192436185D01*
X208029455Y-192436185D02*
X208100884Y-192579042D01*
X208100884Y-192579042D02*
X208100884Y-192721900D01*
X208100884Y-192721900D02*
X208029455Y-192936185D01*
X208029455Y-192936185D02*
X207172312Y-193793328D01*
X207172312Y-193793328D02*
X208100884Y-193793328D01*
X209029455Y-192293328D02*
X209172312Y-192293328D01*
X209172312Y-192293328D02*
X209315169Y-192364757D01*
X209315169Y-192364757D02*
X209386598Y-192436185D01*
X209386598Y-192436185D02*
X209458026Y-192579042D01*
X209458026Y-192579042D02*
X209529455Y-192864757D01*
X209529455Y-192864757D02*
X209529455Y-193221900D01*
X209529455Y-193221900D02*
X209458026Y-193507614D01*
X209458026Y-193507614D02*
X209386598Y-193650471D01*
X209386598Y-193650471D02*
X209315169Y-193721900D01*
X209315169Y-193721900D02*
X209172312Y-193793328D01*
X209172312Y-193793328D02*
X209029455Y-193793328D01*
X209029455Y-193793328D02*
X208886598Y-193721900D01*
X208886598Y-193721900D02*
X208815169Y-193650471D01*
X208815169Y-193650471D02*
X208743740Y-193507614D01*
X208743740Y-193507614D02*
X208672312Y-193221900D01*
X208672312Y-193221900D02*
X208672312Y-192864757D01*
X208672312Y-192864757D02*
X208743740Y-192579042D01*
X208743740Y-192579042D02*
X208815169Y-192436185D01*
X208815169Y-192436185D02*
X208886598Y-192364757D01*
X208886598Y-192364757D02*
X209029455Y-192293328D01*
X210100883Y-192436185D02*
X210172311Y-192364757D01*
X210172311Y-192364757D02*
X210315169Y-192293328D01*
X210315169Y-192293328D02*
X210672311Y-192293328D01*
X210672311Y-192293328D02*
X210815169Y-192364757D01*
X210815169Y-192364757D02*
X210886597Y-192436185D01*
X210886597Y-192436185D02*
X210958026Y-192579042D01*
X210958026Y-192579042D02*
X210958026Y-192721900D01*
X210958026Y-192721900D02*
X210886597Y-192936185D01*
X210886597Y-192936185D02*
X210029454Y-193793328D01*
X210029454Y-193793328D02*
X210958026Y-193793328D01*
X212243740Y-192793328D02*
X212243740Y-193793328D01*
X211886597Y-192221900D02*
X211529454Y-193293328D01*
X211529454Y-193293328D02*
X212458025Y-193293328D01*
X214100882Y-192221900D02*
X212815168Y-194150471D01*
X214886597Y-192293328D02*
X215029454Y-192293328D01*
X215029454Y-192293328D02*
X215172311Y-192364757D01*
X215172311Y-192364757D02*
X215243740Y-192436185D01*
X215243740Y-192436185D02*
X215315168Y-192579042D01*
X215315168Y-192579042D02*
X215386597Y-192864757D01*
X215386597Y-192864757D02*
X215386597Y-193221900D01*
X215386597Y-193221900D02*
X215315168Y-193507614D01*
X215315168Y-193507614D02*
X215243740Y-193650471D01*
X215243740Y-193650471D02*
X215172311Y-193721900D01*
X215172311Y-193721900D02*
X215029454Y-193793328D01*
X215029454Y-193793328D02*
X214886597Y-193793328D01*
X214886597Y-193793328D02*
X214743740Y-193721900D01*
X214743740Y-193721900D02*
X214672311Y-193650471D01*
X214672311Y-193650471D02*
X214600882Y-193507614D01*
X214600882Y-193507614D02*
X214529454Y-193221900D01*
X214529454Y-193221900D02*
X214529454Y-192864757D01*
X214529454Y-192864757D02*
X214600882Y-192579042D01*
X214600882Y-192579042D02*
X214672311Y-192436185D01*
X214672311Y-192436185D02*
X214743740Y-192364757D01*
X214743740Y-192364757D02*
X214886597Y-192293328D01*
X216100882Y-193793328D02*
X216386596Y-193793328D01*
X216386596Y-193793328D02*
X216529453Y-193721900D01*
X216529453Y-193721900D02*
X216600882Y-193650471D01*
X216600882Y-193650471D02*
X216743739Y-193436185D01*
X216743739Y-193436185D02*
X216815168Y-193150471D01*
X216815168Y-193150471D02*
X216815168Y-192579042D01*
X216815168Y-192579042D02*
X216743739Y-192436185D01*
X216743739Y-192436185D02*
X216672311Y-192364757D01*
X216672311Y-192364757D02*
X216529453Y-192293328D01*
X216529453Y-192293328D02*
X216243739Y-192293328D01*
X216243739Y-192293328D02*
X216100882Y-192364757D01*
X216100882Y-192364757D02*
X216029453Y-192436185D01*
X216029453Y-192436185D02*
X215958025Y-192579042D01*
X215958025Y-192579042D02*
X215958025Y-192936185D01*
X215958025Y-192936185D02*
X216029453Y-193079042D01*
X216029453Y-193079042D02*
X216100882Y-193150471D01*
X216100882Y-193150471D02*
X216243739Y-193221900D01*
X216243739Y-193221900D02*
X216529453Y-193221900D01*
X216529453Y-193221900D02*
X216672311Y-193150471D01*
X216672311Y-193150471D02*
X216743739Y-193079042D01*
X216743739Y-193079042D02*
X216815168Y-192936185D01*
X218529453Y-192221900D02*
X217243739Y-194150471D01*
X218958025Y-192436185D02*
X219029453Y-192364757D01*
X219029453Y-192364757D02*
X219172311Y-192293328D01*
X219172311Y-192293328D02*
X219529453Y-192293328D01*
X219529453Y-192293328D02*
X219672311Y-192364757D01*
X219672311Y-192364757D02*
X219743739Y-192436185D01*
X219743739Y-192436185D02*
X219815168Y-192579042D01*
X219815168Y-192579042D02*
X219815168Y-192721900D01*
X219815168Y-192721900D02*
X219743739Y-192936185D01*
X219743739Y-192936185D02*
X218886596Y-193793328D01*
X218886596Y-193793328D02*
X219815168Y-193793328D01*
X220386596Y-192436185D02*
X220458024Y-192364757D01*
X220458024Y-192364757D02*
X220600882Y-192293328D01*
X220600882Y-192293328D02*
X220958024Y-192293328D01*
X220958024Y-192293328D02*
X221100882Y-192364757D01*
X221100882Y-192364757D02*
X221172310Y-192436185D01*
X221172310Y-192436185D02*
X221243739Y-192579042D01*
X221243739Y-192579042D02*
X221243739Y-192721900D01*
X221243739Y-192721900D02*
X221172310Y-192936185D01*
X221172310Y-192936185D02*
X220315167Y-193793328D01*
X220315167Y-193793328D02*
X221243739Y-193793328D01*
D10*
D11*
X177002200Y-194507200D02*
X285002200Y-194507200D01*
D10*
D11*
X178458026Y-196593328D02*
X178458026Y-195093328D01*
X179315169Y-196593328D02*
X178672312Y-195736185D01*
X179315169Y-195093328D02*
X178458026Y-195950471D01*
X179958026Y-196593328D02*
X179958026Y-195593328D01*
X179958026Y-195093328D02*
X179886598Y-195164757D01*
X179886598Y-195164757D02*
X179958026Y-195236185D01*
X179958026Y-195236185D02*
X180029455Y-195164757D01*
X180029455Y-195164757D02*
X179958026Y-195093328D01*
X179958026Y-195093328D02*
X179958026Y-195236185D01*
X181529455Y-196450471D02*
X181458027Y-196521900D01*
X181458027Y-196521900D02*
X181243741Y-196593328D01*
X181243741Y-196593328D02*
X181100884Y-196593328D01*
X181100884Y-196593328D02*
X180886598Y-196521900D01*
X180886598Y-196521900D02*
X180743741Y-196379042D01*
X180743741Y-196379042D02*
X180672312Y-196236185D01*
X180672312Y-196236185D02*
X180600884Y-195950471D01*
X180600884Y-195950471D02*
X180600884Y-195736185D01*
X180600884Y-195736185D02*
X180672312Y-195450471D01*
X180672312Y-195450471D02*
X180743741Y-195307614D01*
X180743741Y-195307614D02*
X180886598Y-195164757D01*
X180886598Y-195164757D02*
X181100884Y-195093328D01*
X181100884Y-195093328D02*
X181243741Y-195093328D01*
X181243741Y-195093328D02*
X181458027Y-195164757D01*
X181458027Y-195164757D02*
X181529455Y-195236185D01*
X182815170Y-196593328D02*
X182815170Y-195807614D01*
X182815170Y-195807614D02*
X182743741Y-195664757D01*
X182743741Y-195664757D02*
X182600884Y-195593328D01*
X182600884Y-195593328D02*
X182315170Y-195593328D01*
X182315170Y-195593328D02*
X182172312Y-195664757D01*
X182815170Y-196521900D02*
X182672312Y-196593328D01*
X182672312Y-196593328D02*
X182315170Y-196593328D01*
X182315170Y-196593328D02*
X182172312Y-196521900D01*
X182172312Y-196521900D02*
X182100884Y-196379042D01*
X182100884Y-196379042D02*
X182100884Y-196236185D01*
X182100884Y-196236185D02*
X182172312Y-196093328D01*
X182172312Y-196093328D02*
X182315170Y-196021900D01*
X182315170Y-196021900D02*
X182672312Y-196021900D01*
X182672312Y-196021900D02*
X182815170Y-195950471D01*
X184172313Y-196593328D02*
X184172313Y-195093328D01*
X184172313Y-196521900D02*
X184029455Y-196593328D01*
X184029455Y-196593328D02*
X183743741Y-196593328D01*
X183743741Y-196593328D02*
X183600884Y-196521900D01*
X183600884Y-196521900D02*
X183529455Y-196450471D01*
X183529455Y-196450471D02*
X183458027Y-196307614D01*
X183458027Y-196307614D02*
X183458027Y-195879042D01*
X183458027Y-195879042D02*
X183529455Y-195736185D01*
X183529455Y-195736185D02*
X183600884Y-195664757D01*
X183600884Y-195664757D02*
X183743741Y-195593328D01*
X183743741Y-195593328D02*
X184029455Y-195593328D01*
X184029455Y-195593328D02*
X184172313Y-195664757D01*
X186029455Y-195807614D02*
X186529455Y-195807614D01*
X186743741Y-196593328D02*
X186029455Y-196593328D01*
X186029455Y-196593328D02*
X186029455Y-195093328D01*
X186029455Y-195093328D02*
X186743741Y-195093328D01*
X187386598Y-196450471D02*
X187458027Y-196521900D01*
X187458027Y-196521900D02*
X187386598Y-196593328D01*
X187386598Y-196593328D02*
X187315170Y-196521900D01*
X187315170Y-196521900D02*
X187386598Y-196450471D01*
X187386598Y-196450471D02*
X187386598Y-196593328D01*
X188100884Y-196593328D02*
X188100884Y-195093328D01*
X188100884Y-195093328D02*
X188458027Y-195093328D01*
X188458027Y-195093328D02*
X188672313Y-195164757D01*
X188672313Y-195164757D02*
X188815170Y-195307614D01*
X188815170Y-195307614D02*
X188886599Y-195450471D01*
X188886599Y-195450471D02*
X188958027Y-195736185D01*
X188958027Y-195736185D02*
X188958027Y-195950471D01*
X188958027Y-195950471D02*
X188886599Y-196236185D01*
X188886599Y-196236185D02*
X188815170Y-196379042D01*
X188815170Y-196379042D02*
X188672313Y-196521900D01*
X188672313Y-196521900D02*
X188458027Y-196593328D01*
X188458027Y-196593328D02*
X188100884Y-196593328D01*
X189600884Y-196450471D02*
X189672313Y-196521900D01*
X189672313Y-196521900D02*
X189600884Y-196593328D01*
X189600884Y-196593328D02*
X189529456Y-196521900D01*
X189529456Y-196521900D02*
X189600884Y-196450471D01*
X189600884Y-196450471D02*
X189600884Y-196593328D01*
X190243742Y-196164757D02*
X190958028Y-196164757D01*
X190100885Y-196593328D02*
X190600885Y-195093328D01*
X190600885Y-195093328D02*
X191100885Y-196593328D01*
X191600884Y-196450471D02*
X191672313Y-196521900D01*
X191672313Y-196521900D02*
X191600884Y-196593328D01*
X191600884Y-196593328D02*
X191529456Y-196521900D01*
X191529456Y-196521900D02*
X191600884Y-196450471D01*
X191600884Y-196450471D02*
X191600884Y-196593328D01*
X193672313Y-195736185D02*
X193529456Y-195664757D01*
X193529456Y-195664757D02*
X193458027Y-195593328D01*
X193458027Y-195593328D02*
X193386599Y-195450471D01*
X193386599Y-195450471D02*
X193386599Y-195379042D01*
X193386599Y-195379042D02*
X193458027Y-195236185D01*
X193458027Y-195236185D02*
X193529456Y-195164757D01*
X193529456Y-195164757D02*
X193672313Y-195093328D01*
X193672313Y-195093328D02*
X193958027Y-195093328D01*
X193958027Y-195093328D02*
X194100885Y-195164757D01*
X194100885Y-195164757D02*
X194172313Y-195236185D01*
X194172313Y-195236185D02*
X194243742Y-195379042D01*
X194243742Y-195379042D02*
X194243742Y-195450471D01*
X194243742Y-195450471D02*
X194172313Y-195593328D01*
X194172313Y-195593328D02*
X194100885Y-195664757D01*
X194100885Y-195664757D02*
X193958027Y-195736185D01*
X193958027Y-195736185D02*
X193672313Y-195736185D01*
X193672313Y-195736185D02*
X193529456Y-195807614D01*
X193529456Y-195807614D02*
X193458027Y-195879042D01*
X193458027Y-195879042D02*
X193386599Y-196021900D01*
X193386599Y-196021900D02*
X193386599Y-196307614D01*
X193386599Y-196307614D02*
X193458027Y-196450471D01*
X193458027Y-196450471D02*
X193529456Y-196521900D01*
X193529456Y-196521900D02*
X193672313Y-196593328D01*
X193672313Y-196593328D02*
X193958027Y-196593328D01*
X193958027Y-196593328D02*
X194100885Y-196521900D01*
X194100885Y-196521900D02*
X194172313Y-196450471D01*
X194172313Y-196450471D02*
X194243742Y-196307614D01*
X194243742Y-196307614D02*
X194243742Y-196021900D01*
X194243742Y-196021900D02*
X194172313Y-195879042D01*
X194172313Y-195879042D02*
X194100885Y-195807614D01*
X194100885Y-195807614D02*
X193958027Y-195736185D01*
X194886598Y-196450471D02*
X194958027Y-196521900D01*
X194958027Y-196521900D02*
X194886598Y-196593328D01*
X194886598Y-196593328D02*
X194815170Y-196521900D01*
X194815170Y-196521900D02*
X194886598Y-196450471D01*
X194886598Y-196450471D02*
X194886598Y-196593328D01*
X195886599Y-195093328D02*
X196029456Y-195093328D01*
X196029456Y-195093328D02*
X196172313Y-195164757D01*
X196172313Y-195164757D02*
X196243742Y-195236185D01*
X196243742Y-195236185D02*
X196315170Y-195379042D01*
X196315170Y-195379042D02*
X196386599Y-195664757D01*
X196386599Y-195664757D02*
X196386599Y-196021900D01*
X196386599Y-196021900D02*
X196315170Y-196307614D01*
X196315170Y-196307614D02*
X196243742Y-196450471D01*
X196243742Y-196450471D02*
X196172313Y-196521900D01*
X196172313Y-196521900D02*
X196029456Y-196593328D01*
X196029456Y-196593328D02*
X195886599Y-196593328D01*
X195886599Y-196593328D02*
X195743742Y-196521900D01*
X195743742Y-196521900D02*
X195672313Y-196450471D01*
X195672313Y-196450471D02*
X195600884Y-196307614D01*
X195600884Y-196307614D02*
X195529456Y-196021900D01*
X195529456Y-196021900D02*
X195529456Y-195664757D01*
X195529456Y-195664757D02*
X195600884Y-195379042D01*
X195600884Y-195379042D02*
X195672313Y-195236185D01*
X195672313Y-195236185D02*
X195743742Y-195164757D01*
X195743742Y-195164757D02*
X195886599Y-195093328D01*
X197029455Y-196450471D02*
X197100884Y-196521900D01*
X197100884Y-196521900D02*
X197029455Y-196593328D01*
X197029455Y-196593328D02*
X196958027Y-196521900D01*
X196958027Y-196521900D02*
X197029455Y-196450471D01*
X197029455Y-196450471D02*
X197029455Y-196593328D01*
X198029456Y-195093328D02*
X198172313Y-195093328D01*
X198172313Y-195093328D02*
X198315170Y-195164757D01*
X198315170Y-195164757D02*
X198386599Y-195236185D01*
X198386599Y-195236185D02*
X198458027Y-195379042D01*
X198458027Y-195379042D02*
X198529456Y-195664757D01*
X198529456Y-195664757D02*
X198529456Y-196021900D01*
X198529456Y-196021900D02*
X198458027Y-196307614D01*
X198458027Y-196307614D02*
X198386599Y-196450471D01*
X198386599Y-196450471D02*
X198315170Y-196521900D01*
X198315170Y-196521900D02*
X198172313Y-196593328D01*
X198172313Y-196593328D02*
X198029456Y-196593328D01*
X198029456Y-196593328D02*
X197886599Y-196521900D01*
X197886599Y-196521900D02*
X197815170Y-196450471D01*
X197815170Y-196450471D02*
X197743741Y-196307614D01*
X197743741Y-196307614D02*
X197672313Y-196021900D01*
X197672313Y-196021900D02*
X197672313Y-195664757D01*
X197672313Y-195664757D02*
X197743741Y-195379042D01*
X197743741Y-195379042D02*
X197815170Y-195236185D01*
X197815170Y-195236185D02*
X197886599Y-195164757D01*
X197886599Y-195164757D02*
X198029456Y-195093328D01*
D10*
D11*
X177002200Y-191507200D02*
X285002200Y-191507200D01*
D10*
D12*
X264413853Y-193785528D02*
X263913853Y-193071242D01*
X263556710Y-193785528D02*
X263556710Y-192285528D01*
X263556710Y-192285528D02*
X264128139Y-192285528D01*
X264128139Y-192285528D02*
X264270996Y-192356957D01*
X264270996Y-192356957D02*
X264342425Y-192428385D01*
X264342425Y-192428385D02*
X264413853Y-192571242D01*
X264413853Y-192571242D02*
X264413853Y-192785528D01*
X264413853Y-192785528D02*
X264342425Y-192928385D01*
X264342425Y-192928385D02*
X264270996Y-192999814D01*
X264270996Y-192999814D02*
X264128139Y-193071242D01*
X264128139Y-193071242D02*
X263556710Y-193071242D01*
X265628139Y-193714100D02*
X265485282Y-193785528D01*
X265485282Y-193785528D02*
X265199568Y-193785528D01*
X265199568Y-193785528D02*
X265056710Y-193714100D01*
X265056710Y-193714100D02*
X264985282Y-193571242D01*
X264985282Y-193571242D02*
X264985282Y-192999814D01*
X264985282Y-192999814D02*
X265056710Y-192856957D01*
X265056710Y-192856957D02*
X265199568Y-192785528D01*
X265199568Y-192785528D02*
X265485282Y-192785528D01*
X265485282Y-192785528D02*
X265628139Y-192856957D01*
X265628139Y-192856957D02*
X265699568Y-192999814D01*
X265699568Y-192999814D02*
X265699568Y-193142671D01*
X265699568Y-193142671D02*
X264985282Y-193285528D01*
X266199567Y-192785528D02*
X266556710Y-193785528D01*
X266556710Y-193785528D02*
X266913853Y-192785528D01*
X267485281Y-193642671D02*
X267556710Y-193714100D01*
X267556710Y-193714100D02*
X267485281Y-193785528D01*
X267485281Y-193785528D02*
X267413853Y-193714100D01*
X267413853Y-193714100D02*
X267485281Y-193642671D01*
X267485281Y-193642671D02*
X267485281Y-193785528D01*
X267485281Y-192856957D02*
X267556710Y-192928385D01*
X267556710Y-192928385D02*
X267485281Y-192999814D01*
X267485281Y-192999814D02*
X267413853Y-192928385D01*
X267413853Y-192928385D02*
X267485281Y-192856957D01*
X267485281Y-192856957D02*
X267485281Y-192999814D01*
X269628139Y-192285528D02*
X269770996Y-192285528D01*
X269770996Y-192285528D02*
X269913853Y-192356957D01*
X269913853Y-192356957D02*
X269985282Y-192428385D01*
X269985282Y-192428385D02*
X270056710Y-192571242D01*
X270056710Y-192571242D02*
X270128139Y-192856957D01*
X270128139Y-192856957D02*
X270128139Y-193214100D01*
X270128139Y-193214100D02*
X270056710Y-193499814D01*
X270056710Y-193499814D02*
X269985282Y-193642671D01*
X269985282Y-193642671D02*
X269913853Y-193714100D01*
X269913853Y-193714100D02*
X269770996Y-193785528D01*
X269770996Y-193785528D02*
X269628139Y-193785528D01*
X269628139Y-193785528D02*
X269485282Y-193714100D01*
X269485282Y-193714100D02*
X269413853Y-193642671D01*
X269413853Y-193642671D02*
X269342424Y-193499814D01*
X269342424Y-193499814D02*
X269270996Y-193214100D01*
X269270996Y-193214100D02*
X269270996Y-192856957D01*
X269270996Y-192856957D02*
X269342424Y-192571242D01*
X269342424Y-192571242D02*
X269413853Y-192428385D01*
X269413853Y-192428385D02*
X269485282Y-192356957D01*
X269485282Y-192356957D02*
X269628139Y-192285528D01*
X270699567Y-192428385D02*
X270770995Y-192356957D01*
X270770995Y-192356957D02*
X270913853Y-192285528D01*
X270913853Y-192285528D02*
X271270995Y-192285528D01*
X271270995Y-192285528D02*
X271413853Y-192356957D01*
X271413853Y-192356957D02*
X271485281Y-192428385D01*
X271485281Y-192428385D02*
X271556710Y-192571242D01*
X271556710Y-192571242D02*
X271556710Y-192714100D01*
X271556710Y-192714100D02*
X271485281Y-192928385D01*
X271485281Y-192928385D02*
X270628138Y-193785528D01*
X270628138Y-193785528D02*
X271556710Y-193785528D01*
D10*
D11*
X178386598Y-193721900D02*
X178600884Y-193793328D01*
X178600884Y-193793328D02*
X178958026Y-193793328D01*
X178958026Y-193793328D02*
X179100884Y-193721900D01*
X179100884Y-193721900D02*
X179172312Y-193650471D01*
X179172312Y-193650471D02*
X179243741Y-193507614D01*
X179243741Y-193507614D02*
X179243741Y-193364757D01*
X179243741Y-193364757D02*
X179172312Y-193221900D01*
X179172312Y-193221900D02*
X179100884Y-193150471D01*
X179100884Y-193150471D02*
X178958026Y-193079042D01*
X178958026Y-193079042D02*
X178672312Y-193007614D01*
X178672312Y-193007614D02*
X178529455Y-192936185D01*
X178529455Y-192936185D02*
X178458026Y-192864757D01*
X178458026Y-192864757D02*
X178386598Y-192721900D01*
X178386598Y-192721900D02*
X178386598Y-192579042D01*
X178386598Y-192579042D02*
X178458026Y-192436185D01*
X178458026Y-192436185D02*
X178529455Y-192364757D01*
X178529455Y-192364757D02*
X178672312Y-192293328D01*
X178672312Y-192293328D02*
X179029455Y-192293328D01*
X179029455Y-192293328D02*
X179243741Y-192364757D01*
X179886597Y-193793328D02*
X179886597Y-192793328D01*
X179886597Y-192293328D02*
X179815169Y-192364757D01*
X179815169Y-192364757D02*
X179886597Y-192436185D01*
X179886597Y-192436185D02*
X179958026Y-192364757D01*
X179958026Y-192364757D02*
X179886597Y-192293328D01*
X179886597Y-192293328D02*
X179886597Y-192436185D01*
X180458026Y-192793328D02*
X181243741Y-192793328D01*
X181243741Y-192793328D02*
X180458026Y-193793328D01*
X180458026Y-193793328D02*
X181243741Y-193793328D01*
X182386598Y-193721900D02*
X182243741Y-193793328D01*
X182243741Y-193793328D02*
X181958027Y-193793328D01*
X181958027Y-193793328D02*
X181815169Y-193721900D01*
X181815169Y-193721900D02*
X181743741Y-193579042D01*
X181743741Y-193579042D02*
X181743741Y-193007614D01*
X181743741Y-193007614D02*
X181815169Y-192864757D01*
X181815169Y-192864757D02*
X181958027Y-192793328D01*
X181958027Y-192793328D02*
X182243741Y-192793328D01*
X182243741Y-192793328D02*
X182386598Y-192864757D01*
X182386598Y-192864757D02*
X182458027Y-193007614D01*
X182458027Y-193007614D02*
X182458027Y-193150471D01*
X182458027Y-193150471D02*
X181743741Y-193293328D01*
X183100883Y-193650471D02*
X183172312Y-193721900D01*
X183172312Y-193721900D02*
X183100883Y-193793328D01*
X183100883Y-193793328D02*
X183029455Y-193721900D01*
X183029455Y-193721900D02*
X183100883Y-193650471D01*
X183100883Y-193650471D02*
X183100883Y-193793328D01*
X183100883Y-192864757D02*
X183172312Y-192936185D01*
X183172312Y-192936185D02*
X183100883Y-193007614D01*
X183100883Y-193007614D02*
X183029455Y-192936185D01*
X183029455Y-192936185D02*
X183100883Y-192864757D01*
X183100883Y-192864757D02*
X183100883Y-193007614D01*
X184886598Y-193364757D02*
X185600884Y-193364757D01*
X184743741Y-193793328D02*
X185243741Y-192293328D01*
X185243741Y-192293328D02*
X185743741Y-193793328D01*
X186886598Y-192793328D02*
X186886598Y-193793328D01*
X186529455Y-192221900D02*
X186172312Y-193293328D01*
X186172312Y-193293328D02*
X187100883Y-193293328D01*
D10*
D11*
X263458026Y-196593328D02*
X263458026Y-195093328D01*
X264815170Y-196593328D02*
X264815170Y-195093328D01*
X264815170Y-196521900D02*
X264672312Y-196593328D01*
X264672312Y-196593328D02*
X264386598Y-196593328D01*
X264386598Y-196593328D02*
X264243741Y-196521900D01*
X264243741Y-196521900D02*
X264172312Y-196450471D01*
X264172312Y-196450471D02*
X264100884Y-196307614D01*
X264100884Y-196307614D02*
X264100884Y-195879042D01*
X264100884Y-195879042D02*
X264172312Y-195736185D01*
X264172312Y-195736185D02*
X264243741Y-195664757D01*
X264243741Y-195664757D02*
X264386598Y-195593328D01*
X264386598Y-195593328D02*
X264672312Y-195593328D01*
X264672312Y-195593328D02*
X264815170Y-195664757D01*
X265529455Y-196450471D02*
X265600884Y-196521900D01*
X265600884Y-196521900D02*
X265529455Y-196593328D01*
X265529455Y-196593328D02*
X265458027Y-196521900D01*
X265458027Y-196521900D02*
X265529455Y-196450471D01*
X265529455Y-196450471D02*
X265529455Y-196593328D01*
X265529455Y-195664757D02*
X265600884Y-195736185D01*
X265600884Y-195736185D02*
X265529455Y-195807614D01*
X265529455Y-195807614D02*
X265458027Y-195736185D01*
X265458027Y-195736185D02*
X265529455Y-195664757D01*
X265529455Y-195664757D02*
X265529455Y-195807614D01*
X268172313Y-196593328D02*
X267315170Y-196593328D01*
X267743741Y-196593328D02*
X267743741Y-195093328D01*
X267743741Y-195093328D02*
X267600884Y-195307614D01*
X267600884Y-195307614D02*
X267458027Y-195450471D01*
X267458027Y-195450471D02*
X267315170Y-195521900D01*
X269886598Y-195021900D02*
X268600884Y-196950471D01*
X271172313Y-196593328D02*
X270315170Y-196593328D01*
X270743741Y-196593328D02*
X270743741Y-195093328D01*
X270743741Y-195093328D02*
X270600884Y-195307614D01*
X270600884Y-195307614D02*
X270458027Y-195450471D01*
X270458027Y-195450471D02*
X270315170Y-195521900D01*
D10*
D11*
X177002200Y-187507200D02*
X285002200Y-187507200D01*
D10*
D13*
X178693928Y-188211638D02*
X179836785Y-188211638D01*
X179015357Y-190211638D02*
X179265357Y-188211638D01*
X180253452Y-190211638D02*
X180420119Y-188878304D01*
X180503452Y-188211638D02*
X180396309Y-188306876D01*
X180396309Y-188306876D02*
X180479643Y-188402114D01*
X180479643Y-188402114D02*
X180586786Y-188306876D01*
X180586786Y-188306876D02*
X180503452Y-188211638D01*
X180503452Y-188211638D02*
X180479643Y-188402114D01*
X181086786Y-188878304D02*
X181848690Y-188878304D01*
X181455833Y-188211638D02*
X181241548Y-189925923D01*
X181241548Y-189925923D02*
X181312976Y-190116400D01*
X181312976Y-190116400D02*
X181491548Y-190211638D01*
X181491548Y-190211638D02*
X181682024Y-190211638D01*
X182634405Y-190211638D02*
X182455833Y-190116400D01*
X182455833Y-190116400D02*
X182384405Y-189925923D01*
X182384405Y-189925923D02*
X182598690Y-188211638D01*
X184170119Y-190116400D02*
X183967738Y-190211638D01*
X183967738Y-190211638D02*
X183586785Y-190211638D01*
X183586785Y-190211638D02*
X183408214Y-190116400D01*
X183408214Y-190116400D02*
X183336785Y-189925923D01*
X183336785Y-189925923D02*
X183432024Y-189164019D01*
X183432024Y-189164019D02*
X183551071Y-188973542D01*
X183551071Y-188973542D02*
X183753452Y-188878304D01*
X183753452Y-188878304D02*
X184134404Y-188878304D01*
X184134404Y-188878304D02*
X184312976Y-188973542D01*
X184312976Y-188973542D02*
X184384404Y-189164019D01*
X184384404Y-189164019D02*
X184360595Y-189354495D01*
X184360595Y-189354495D02*
X183384404Y-189544971D01*
X185134405Y-190021161D02*
X185217738Y-190116400D01*
X185217738Y-190116400D02*
X185110595Y-190211638D01*
X185110595Y-190211638D02*
X185027262Y-190116400D01*
X185027262Y-190116400D02*
X185134405Y-190021161D01*
X185134405Y-190021161D02*
X185110595Y-190211638D01*
X185265357Y-188973542D02*
X185348690Y-189068780D01*
X185348690Y-189068780D02*
X185241548Y-189164019D01*
X185241548Y-189164019D02*
X185158214Y-189068780D01*
X185158214Y-189068780D02*
X185265357Y-188973542D01*
X185265357Y-188973542D02*
X185241548Y-189164019D01*
X187562977Y-189640209D02*
X188515358Y-189640209D01*
X187301072Y-190211638D02*
X188217739Y-188211638D01*
X188217739Y-188211638D02*
X188634405Y-190211638D01*
X190324882Y-188878304D02*
X190158215Y-190211638D01*
X189467739Y-188878304D02*
X189336787Y-189925923D01*
X189336787Y-189925923D02*
X189408215Y-190116400D01*
X189408215Y-190116400D02*
X189586787Y-190211638D01*
X189586787Y-190211638D02*
X189872501Y-190211638D01*
X189872501Y-190211638D02*
X190074882Y-190116400D01*
X190074882Y-190116400D02*
X190182025Y-190021161D01*
X190991549Y-188878304D02*
X191753453Y-188878304D01*
X191360596Y-188211638D02*
X191146311Y-189925923D01*
X191146311Y-189925923D02*
X191217739Y-190116400D01*
X191217739Y-190116400D02*
X191396311Y-190211638D01*
X191396311Y-190211638D02*
X191586787Y-190211638D01*
X192539168Y-190211638D02*
X192360596Y-190116400D01*
X192360596Y-190116400D02*
X192277263Y-190021161D01*
X192277263Y-190021161D02*
X192205834Y-189830685D01*
X192205834Y-189830685D02*
X192277263Y-189259257D01*
X192277263Y-189259257D02*
X192396310Y-189068780D01*
X192396310Y-189068780D02*
X192503453Y-188973542D01*
X192503453Y-188973542D02*
X192705834Y-188878304D01*
X192705834Y-188878304D02*
X192991548Y-188878304D01*
X192991548Y-188878304D02*
X193170120Y-188973542D01*
X193170120Y-188973542D02*
X193253453Y-189068780D01*
X193253453Y-189068780D02*
X193324882Y-189259257D01*
X193324882Y-189259257D02*
X193253453Y-189830685D01*
X193253453Y-189830685D02*
X193134406Y-190021161D01*
X193134406Y-190021161D02*
X193027263Y-190116400D01*
X193027263Y-190116400D02*
X192824882Y-190211638D01*
X192824882Y-190211638D02*
X192539168Y-190211638D01*
X196539168Y-190211638D02*
X195586787Y-190211638D01*
X195586787Y-190211638D02*
X195836787Y-188211638D01*
X197205835Y-190211638D02*
X197372502Y-188878304D01*
X197455835Y-188211638D02*
X197348692Y-188306876D01*
X197348692Y-188306876D02*
X197432026Y-188402114D01*
X197432026Y-188402114D02*
X197539169Y-188306876D01*
X197539169Y-188306876D02*
X197455835Y-188211638D01*
X197455835Y-188211638D02*
X197432026Y-188402114D01*
X199182026Y-188878304D02*
X198979645Y-190497352D01*
X198979645Y-190497352D02*
X198860597Y-190687828D01*
X198860597Y-190687828D02*
X198753454Y-190783066D01*
X198753454Y-190783066D02*
X198551073Y-190878304D01*
X198551073Y-190878304D02*
X198265359Y-190878304D01*
X198265359Y-190878304D02*
X198086788Y-190783066D01*
X199027264Y-190116400D02*
X198824883Y-190211638D01*
X198824883Y-190211638D02*
X198443931Y-190211638D01*
X198443931Y-190211638D02*
X198265359Y-190116400D01*
X198265359Y-190116400D02*
X198182026Y-190021161D01*
X198182026Y-190021161D02*
X198110597Y-189830685D01*
X198110597Y-189830685D02*
X198182026Y-189259257D01*
X198182026Y-189259257D02*
X198301073Y-189068780D01*
X198301073Y-189068780D02*
X198408216Y-188973542D01*
X198408216Y-188973542D02*
X198610597Y-188878304D01*
X198610597Y-188878304D02*
X198991550Y-188878304D01*
X198991550Y-188878304D02*
X199170121Y-188973542D01*
X199967740Y-190211638D02*
X200217740Y-188211638D01*
X200824883Y-190211638D02*
X200955835Y-189164019D01*
X200955835Y-189164019D02*
X200884407Y-188973542D01*
X200884407Y-188973542D02*
X200705835Y-188878304D01*
X200705835Y-188878304D02*
X200420121Y-188878304D01*
X200420121Y-188878304D02*
X200217740Y-188973542D01*
X200217740Y-188973542D02*
X200110597Y-189068780D01*
X201658217Y-188878304D02*
X202420121Y-188878304D01*
X202027264Y-188211638D02*
X201812979Y-189925923D01*
X201812979Y-189925923D02*
X201884407Y-190116400D01*
X201884407Y-190116400D02*
X202062979Y-190211638D01*
X202062979Y-190211638D02*
X202253455Y-190211638D01*
D10*
D11*
X178958026Y-185607614D02*
X178458026Y-185607614D01*
X178458026Y-186393328D02*
X178458026Y-184893328D01*
X178458026Y-184893328D02*
X179172312Y-184893328D01*
X179743740Y-186393328D02*
X179743740Y-185393328D01*
X179743740Y-184893328D02*
X179672312Y-184964757D01*
X179672312Y-184964757D02*
X179743740Y-185036185D01*
X179743740Y-185036185D02*
X179815169Y-184964757D01*
X179815169Y-184964757D02*
X179743740Y-184893328D01*
X179743740Y-184893328D02*
X179743740Y-185036185D01*
X180672312Y-186393328D02*
X180529455Y-186321900D01*
X180529455Y-186321900D02*
X180458026Y-186179042D01*
X180458026Y-186179042D02*
X180458026Y-184893328D01*
X181815169Y-186321900D02*
X181672312Y-186393328D01*
X181672312Y-186393328D02*
X181386598Y-186393328D01*
X181386598Y-186393328D02*
X181243740Y-186321900D01*
X181243740Y-186321900D02*
X181172312Y-186179042D01*
X181172312Y-186179042D02*
X181172312Y-185607614D01*
X181172312Y-185607614D02*
X181243740Y-185464757D01*
X181243740Y-185464757D02*
X181386598Y-185393328D01*
X181386598Y-185393328D02*
X181672312Y-185393328D01*
X181672312Y-185393328D02*
X181815169Y-185464757D01*
X181815169Y-185464757D02*
X181886598Y-185607614D01*
X181886598Y-185607614D02*
X181886598Y-185750471D01*
X181886598Y-185750471D02*
X181172312Y-185893328D01*
X182529454Y-186250471D02*
X182600883Y-186321900D01*
X182600883Y-186321900D02*
X182529454Y-186393328D01*
X182529454Y-186393328D02*
X182458026Y-186321900D01*
X182458026Y-186321900D02*
X182529454Y-186250471D01*
X182529454Y-186250471D02*
X182529454Y-186393328D01*
X182529454Y-185464757D02*
X182600883Y-185536185D01*
X182600883Y-185536185D02*
X182529454Y-185607614D01*
X182529454Y-185607614D02*
X182458026Y-185536185D01*
X182458026Y-185536185D02*
X182529454Y-185464757D01*
X182529454Y-185464757D02*
X182529454Y-185607614D01*
X185029455Y-186393328D02*
X185029455Y-185607614D01*
X185029455Y-185607614D02*
X184958026Y-185464757D01*
X184958026Y-185464757D02*
X184815169Y-185393328D01*
X184815169Y-185393328D02*
X184529455Y-185393328D01*
X184529455Y-185393328D02*
X184386597Y-185464757D01*
X185029455Y-186321900D02*
X184886597Y-186393328D01*
X184886597Y-186393328D02*
X184529455Y-186393328D01*
X184529455Y-186393328D02*
X184386597Y-186321900D01*
X184386597Y-186321900D02*
X184315169Y-186179042D01*
X184315169Y-186179042D02*
X184315169Y-186036185D01*
X184315169Y-186036185D02*
X184386597Y-185893328D01*
X184386597Y-185893328D02*
X184529455Y-185821900D01*
X184529455Y-185821900D02*
X184886597Y-185821900D01*
X184886597Y-185821900D02*
X185029455Y-185750471D01*
X186386598Y-185393328D02*
X186386598Y-186393328D01*
X185743740Y-185393328D02*
X185743740Y-186179042D01*
X185743740Y-186179042D02*
X185815169Y-186321900D01*
X185815169Y-186321900D02*
X185958026Y-186393328D01*
X185958026Y-186393328D02*
X186172312Y-186393328D01*
X186172312Y-186393328D02*
X186315169Y-186321900D01*
X186315169Y-186321900D02*
X186386598Y-186250471D01*
X186886598Y-185393328D02*
X187458026Y-185393328D01*
X187100883Y-184893328D02*
X187100883Y-186179042D01*
X187100883Y-186179042D02*
X187172312Y-186321900D01*
X187172312Y-186321900D02*
X187315169Y-186393328D01*
X187315169Y-186393328D02*
X187458026Y-186393328D01*
X188172312Y-186393328D02*
X188029455Y-186321900D01*
X188029455Y-186321900D02*
X187958026Y-186250471D01*
X187958026Y-186250471D02*
X187886598Y-186107614D01*
X187886598Y-186107614D02*
X187886598Y-185679042D01*
X187886598Y-185679042D02*
X187958026Y-185536185D01*
X187958026Y-185536185D02*
X188029455Y-185464757D01*
X188029455Y-185464757D02*
X188172312Y-185393328D01*
X188172312Y-185393328D02*
X188386598Y-185393328D01*
X188386598Y-185393328D02*
X188529455Y-185464757D01*
X188529455Y-185464757D02*
X188600884Y-185536185D01*
X188600884Y-185536185D02*
X188672312Y-185679042D01*
X188672312Y-185679042D02*
X188672312Y-186107614D01*
X188672312Y-186107614D02*
X188600884Y-186250471D01*
X188600884Y-186250471D02*
X188529455Y-186321900D01*
X188529455Y-186321900D02*
X188386598Y-186393328D01*
X188386598Y-186393328D02*
X188172312Y-186393328D01*
X190672312Y-186393328D02*
X190529455Y-186321900D01*
X190529455Y-186321900D02*
X190458026Y-186179042D01*
X190458026Y-186179042D02*
X190458026Y-184893328D01*
X191243740Y-186393328D02*
X191243740Y-185393328D01*
X191243740Y-184893328D02*
X191172312Y-184964757D01*
X191172312Y-184964757D02*
X191243740Y-185036185D01*
X191243740Y-185036185D02*
X191315169Y-184964757D01*
X191315169Y-184964757D02*
X191243740Y-184893328D01*
X191243740Y-184893328D02*
X191243740Y-185036185D01*
X192600884Y-185393328D02*
X192600884Y-186607614D01*
X192600884Y-186607614D02*
X192529455Y-186750471D01*
X192529455Y-186750471D02*
X192458026Y-186821900D01*
X192458026Y-186821900D02*
X192315169Y-186893328D01*
X192315169Y-186893328D02*
X192100884Y-186893328D01*
X192100884Y-186893328D02*
X191958026Y-186821900D01*
X192600884Y-186321900D02*
X192458026Y-186393328D01*
X192458026Y-186393328D02*
X192172312Y-186393328D01*
X192172312Y-186393328D02*
X192029455Y-186321900D01*
X192029455Y-186321900D02*
X191958026Y-186250471D01*
X191958026Y-186250471D02*
X191886598Y-186107614D01*
X191886598Y-186107614D02*
X191886598Y-185679042D01*
X191886598Y-185679042D02*
X191958026Y-185536185D01*
X191958026Y-185536185D02*
X192029455Y-185464757D01*
X192029455Y-185464757D02*
X192172312Y-185393328D01*
X192172312Y-185393328D02*
X192458026Y-185393328D01*
X192458026Y-185393328D02*
X192600884Y-185464757D01*
X193315169Y-186393328D02*
X193315169Y-184893328D01*
X193958027Y-186393328D02*
X193958027Y-185607614D01*
X193958027Y-185607614D02*
X193886598Y-185464757D01*
X193886598Y-185464757D02*
X193743741Y-185393328D01*
X193743741Y-185393328D02*
X193529455Y-185393328D01*
X193529455Y-185393328D02*
X193386598Y-185464757D01*
X193386598Y-185464757D02*
X193315169Y-185536185D01*
X194458027Y-185393328D02*
X195029455Y-185393328D01*
X194672312Y-184893328D02*
X194672312Y-186179042D01*
X194672312Y-186179042D02*
X194743741Y-186321900D01*
X194743741Y-186321900D02*
X194886598Y-186393328D01*
X194886598Y-186393328D02*
X195029455Y-186393328D01*
X195529455Y-186250471D02*
X195600884Y-186321900D01*
X195600884Y-186321900D02*
X195529455Y-186393328D01*
X195529455Y-186393328D02*
X195458027Y-186321900D01*
X195458027Y-186321900D02*
X195529455Y-186250471D01*
X195529455Y-186250471D02*
X195529455Y-186393328D01*
X196243741Y-186393328D02*
X196243741Y-184893328D01*
X196386599Y-185821900D02*
X196815170Y-186393328D01*
X196815170Y-185393328D02*
X196243741Y-185964757D01*
X197458027Y-186393328D02*
X197458027Y-185393328D01*
X197458027Y-184893328D02*
X197386599Y-184964757D01*
X197386599Y-184964757D02*
X197458027Y-185036185D01*
X197458027Y-185036185D02*
X197529456Y-184964757D01*
X197529456Y-184964757D02*
X197458027Y-184893328D01*
X197458027Y-184893328D02*
X197458027Y-185036185D01*
X198815171Y-186321900D02*
X198672313Y-186393328D01*
X198672313Y-186393328D02*
X198386599Y-186393328D01*
X198386599Y-186393328D02*
X198243742Y-186321900D01*
X198243742Y-186321900D02*
X198172313Y-186250471D01*
X198172313Y-186250471D02*
X198100885Y-186107614D01*
X198100885Y-186107614D02*
X198100885Y-185679042D01*
X198100885Y-185679042D02*
X198172313Y-185536185D01*
X198172313Y-185536185D02*
X198243742Y-185464757D01*
X198243742Y-185464757D02*
X198386599Y-185393328D01*
X198386599Y-185393328D02*
X198672313Y-185393328D01*
X198672313Y-185393328D02*
X198815171Y-185464757D01*
X200100885Y-186393328D02*
X200100885Y-185607614D01*
X200100885Y-185607614D02*
X200029456Y-185464757D01*
X200029456Y-185464757D02*
X199886599Y-185393328D01*
X199886599Y-185393328D02*
X199600885Y-185393328D01*
X199600885Y-185393328D02*
X199458027Y-185464757D01*
X200100885Y-186321900D02*
X199958027Y-186393328D01*
X199958027Y-186393328D02*
X199600885Y-186393328D01*
X199600885Y-186393328D02*
X199458027Y-186321900D01*
X199458027Y-186321900D02*
X199386599Y-186179042D01*
X199386599Y-186179042D02*
X199386599Y-186036185D01*
X199386599Y-186036185D02*
X199458027Y-185893328D01*
X199458027Y-185893328D02*
X199600885Y-185821900D01*
X199600885Y-185821900D02*
X199958027Y-185821900D01*
X199958027Y-185821900D02*
X200100885Y-185750471D01*
X201458028Y-186393328D02*
X201458028Y-184893328D01*
X201458028Y-186321900D02*
X201315170Y-186393328D01*
X201315170Y-186393328D02*
X201029456Y-186393328D01*
X201029456Y-186393328D02*
X200886599Y-186321900D01*
X200886599Y-186321900D02*
X200815170Y-186250471D01*
X200815170Y-186250471D02*
X200743742Y-186107614D01*
X200743742Y-186107614D02*
X200743742Y-185679042D01*
X200743742Y-185679042D02*
X200815170Y-185536185D01*
X200815170Y-185536185D02*
X200886599Y-185464757D01*
X200886599Y-185464757D02*
X201029456Y-185393328D01*
X201029456Y-185393328D02*
X201315170Y-185393328D01*
X201315170Y-185393328D02*
X201458028Y-185464757D01*
X201815171Y-186536185D02*
X202958028Y-186536185D01*
X203315170Y-185393328D02*
X203315170Y-186893328D01*
X203315170Y-185464757D02*
X203458028Y-185393328D01*
X203458028Y-185393328D02*
X203743742Y-185393328D01*
X203743742Y-185393328D02*
X203886599Y-185464757D01*
X203886599Y-185464757D02*
X203958028Y-185536185D01*
X203958028Y-185536185D02*
X204029456Y-185679042D01*
X204029456Y-185679042D02*
X204029456Y-186107614D01*
X204029456Y-186107614D02*
X203958028Y-186250471D01*
X203958028Y-186250471D02*
X203886599Y-186321900D01*
X203886599Y-186321900D02*
X203743742Y-186393328D01*
X203743742Y-186393328D02*
X203458028Y-186393328D01*
X203458028Y-186393328D02*
X203315170Y-186321900D01*
X205315171Y-186321900D02*
X205172313Y-186393328D01*
X205172313Y-186393328D02*
X204886599Y-186393328D01*
X204886599Y-186393328D02*
X204743742Y-186321900D01*
X204743742Y-186321900D02*
X204672313Y-186250471D01*
X204672313Y-186250471D02*
X204600885Y-186107614D01*
X204600885Y-186107614D02*
X204600885Y-185679042D01*
X204600885Y-185679042D02*
X204672313Y-185536185D01*
X204672313Y-185536185D02*
X204743742Y-185464757D01*
X204743742Y-185464757D02*
X204886599Y-185393328D01*
X204886599Y-185393328D02*
X205172313Y-185393328D01*
X205172313Y-185393328D02*
X205315171Y-185464757D01*
X205958027Y-186393328D02*
X205958027Y-184893328D01*
X205958027Y-185464757D02*
X206100885Y-185393328D01*
X206100885Y-185393328D02*
X206386599Y-185393328D01*
X206386599Y-185393328D02*
X206529456Y-185464757D01*
X206529456Y-185464757D02*
X206600885Y-185536185D01*
X206600885Y-185536185D02*
X206672313Y-185679042D01*
X206672313Y-185679042D02*
X206672313Y-186107614D01*
X206672313Y-186107614D02*
X206600885Y-186250471D01*
X206600885Y-186250471D02*
X206529456Y-186321900D01*
X206529456Y-186321900D02*
X206386599Y-186393328D01*
X206386599Y-186393328D02*
X206100885Y-186393328D01*
X206100885Y-186393328D02*
X205958027Y-186321900D01*
D10*
D11*
X177002200Y-181507200D02*
X285002200Y-181507200D01*
D10*
D11*
X178386598Y-183621900D02*
X178600884Y-183693328D01*
X178600884Y-183693328D02*
X178958026Y-183693328D01*
X178958026Y-183693328D02*
X179100884Y-183621900D01*
X179100884Y-183621900D02*
X179172312Y-183550471D01*
X179172312Y-183550471D02*
X179243741Y-183407614D01*
X179243741Y-183407614D02*
X179243741Y-183264757D01*
X179243741Y-183264757D02*
X179172312Y-183121900D01*
X179172312Y-183121900D02*
X179100884Y-183050471D01*
X179100884Y-183050471D02*
X178958026Y-182979042D01*
X178958026Y-182979042D02*
X178672312Y-182907614D01*
X178672312Y-182907614D02*
X178529455Y-182836185D01*
X178529455Y-182836185D02*
X178458026Y-182764757D01*
X178458026Y-182764757D02*
X178386598Y-182621900D01*
X178386598Y-182621900D02*
X178386598Y-182479042D01*
X178386598Y-182479042D02*
X178458026Y-182336185D01*
X178458026Y-182336185D02*
X178529455Y-182264757D01*
X178529455Y-182264757D02*
X178672312Y-182193328D01*
X178672312Y-182193328D02*
X179029455Y-182193328D01*
X179029455Y-182193328D02*
X179243741Y-182264757D01*
X179886597Y-183693328D02*
X179886597Y-182193328D01*
X180529455Y-183693328D02*
X180529455Y-182907614D01*
X180529455Y-182907614D02*
X180458026Y-182764757D01*
X180458026Y-182764757D02*
X180315169Y-182693328D01*
X180315169Y-182693328D02*
X180100883Y-182693328D01*
X180100883Y-182693328D02*
X179958026Y-182764757D01*
X179958026Y-182764757D02*
X179886597Y-182836185D01*
X181815169Y-183621900D02*
X181672312Y-183693328D01*
X181672312Y-183693328D02*
X181386598Y-183693328D01*
X181386598Y-183693328D02*
X181243740Y-183621900D01*
X181243740Y-183621900D02*
X181172312Y-183479042D01*
X181172312Y-183479042D02*
X181172312Y-182907614D01*
X181172312Y-182907614D02*
X181243740Y-182764757D01*
X181243740Y-182764757D02*
X181386598Y-182693328D01*
X181386598Y-182693328D02*
X181672312Y-182693328D01*
X181672312Y-182693328D02*
X181815169Y-182764757D01*
X181815169Y-182764757D02*
X181886598Y-182907614D01*
X181886598Y-182907614D02*
X181886598Y-183050471D01*
X181886598Y-183050471D02*
X181172312Y-183193328D01*
X183100883Y-183621900D02*
X182958026Y-183693328D01*
X182958026Y-183693328D02*
X182672312Y-183693328D01*
X182672312Y-183693328D02*
X182529454Y-183621900D01*
X182529454Y-183621900D02*
X182458026Y-183479042D01*
X182458026Y-183479042D02*
X182458026Y-182907614D01*
X182458026Y-182907614D02*
X182529454Y-182764757D01*
X182529454Y-182764757D02*
X182672312Y-182693328D01*
X182672312Y-182693328D02*
X182958026Y-182693328D01*
X182958026Y-182693328D02*
X183100883Y-182764757D01*
X183100883Y-182764757D02*
X183172312Y-182907614D01*
X183172312Y-182907614D02*
X183172312Y-183050471D01*
X183172312Y-183050471D02*
X182458026Y-183193328D01*
X183600883Y-182693328D02*
X184172311Y-182693328D01*
X183815168Y-182193328D02*
X183815168Y-183479042D01*
X183815168Y-183479042D02*
X183886597Y-183621900D01*
X183886597Y-183621900D02*
X184029454Y-183693328D01*
X184029454Y-183693328D02*
X184172311Y-183693328D01*
X184672311Y-183550471D02*
X184743740Y-183621900D01*
X184743740Y-183621900D02*
X184672311Y-183693328D01*
X184672311Y-183693328D02*
X184600883Y-183621900D01*
X184600883Y-183621900D02*
X184672311Y-183550471D01*
X184672311Y-183550471D02*
X184672311Y-183693328D01*
X184672311Y-182764757D02*
X184743740Y-182836185D01*
X184743740Y-182836185D02*
X184672311Y-182907614D01*
X184672311Y-182907614D02*
X184600883Y-182836185D01*
X184600883Y-182836185D02*
X184672311Y-182764757D01*
X184672311Y-182764757D02*
X184672311Y-182907614D01*
D10*
D12*
D10*
D11*
D10*
D11*
D10*
D11*
D10*
D11*
D10*
D11*
X197002200Y-191507200D02*
X197002200Y-194507200D01*
D10*
D11*
X261002200Y-191507200D02*
X261002200Y-198007200D01*
X158386779Y-108494819D02*
X158386779Y-107494819D01*
X158386779Y-107494819D02*
X158958207Y-108494819D01*
X158958207Y-108494819D02*
X158958207Y-107494819D01*
X153612969Y-45469819D02*
X153136779Y-45469819D01*
X153136779Y-45469819D02*
X153136779Y-44469819D01*
X151662969Y-108419819D02*
X151186779Y-108419819D01*
X151186779Y-108419819D02*
X151186779Y-107419819D01*
X155460588Y-75342438D02*
X155365350Y-75294819D01*
X155365350Y-75294819D02*
X155222493Y-75294819D01*
X155222493Y-75294819D02*
X155079636Y-75342438D01*
X155079636Y-75342438D02*
X154984398Y-75437676D01*
X154984398Y-75437676D02*
X154936779Y-75532914D01*
X154936779Y-75532914D02*
X154889160Y-75723390D01*
X154889160Y-75723390D02*
X154889160Y-75866247D01*
X154889160Y-75866247D02*
X154936779Y-76056723D01*
X154936779Y-76056723D02*
X154984398Y-76151961D01*
X154984398Y-76151961D02*
X155079636Y-76247200D01*
X155079636Y-76247200D02*
X155222493Y-76294819D01*
X155222493Y-76294819D02*
X155317731Y-76294819D01*
X155317731Y-76294819D02*
X155460588Y-76247200D01*
X155460588Y-76247200D02*
X155508207Y-76199580D01*
X155508207Y-76199580D02*
X155508207Y-75866247D01*
X155508207Y-75866247D02*
X155317731Y-75866247D01*
X158861779Y-45469819D02*
X158861779Y-44469819D01*
X158861779Y-44469819D02*
X159433207Y-45469819D01*
X159433207Y-45469819D02*
X159433207Y-44469819D01*
X119030953Y-107404819D02*
X119269048Y-108404819D01*
X119269048Y-108404819D02*
X119459524Y-107690533D01*
X119459524Y-107690533D02*
X119650000Y-108404819D01*
X119650000Y-108404819D02*
X119888096Y-107404819D01*
X120650000Y-108357200D02*
X120554762Y-108404819D01*
X120554762Y-108404819D02*
X120364286Y-108404819D01*
X120364286Y-108404819D02*
X120269048Y-108357200D01*
X120269048Y-108357200D02*
X120221429Y-108261961D01*
X120221429Y-108261961D02*
X120221429Y-107881009D01*
X120221429Y-107881009D02*
X120269048Y-107785771D01*
X120269048Y-107785771D02*
X120364286Y-107738152D01*
X120364286Y-107738152D02*
X120554762Y-107738152D01*
X120554762Y-107738152D02*
X120650000Y-107785771D01*
X120650000Y-107785771D02*
X120697619Y-107881009D01*
X120697619Y-107881009D02*
X120697619Y-107976247D01*
X120697619Y-107976247D02*
X120221429Y-108071485D01*
X121126191Y-108404819D02*
X121126191Y-107404819D01*
X121126191Y-107404819D02*
X121459524Y-108119104D01*
X121459524Y-108119104D02*
X121792857Y-107404819D01*
X121792857Y-107404819D02*
X121792857Y-108404819D01*
X122411905Y-108404819D02*
X122316667Y-108357200D01*
X122316667Y-108357200D02*
X122269048Y-108309580D01*
X122269048Y-108309580D02*
X122221429Y-108214342D01*
X122221429Y-108214342D02*
X122221429Y-107928628D01*
X122221429Y-107928628D02*
X122269048Y-107833390D01*
X122269048Y-107833390D02*
X122316667Y-107785771D01*
X122316667Y-107785771D02*
X122411905Y-107738152D01*
X122411905Y-107738152D02*
X122554762Y-107738152D01*
X122554762Y-107738152D02*
X122650000Y-107785771D01*
X122650000Y-107785771D02*
X122697619Y-107833390D01*
X122697619Y-107833390D02*
X122745238Y-107928628D01*
X122745238Y-107928628D02*
X122745238Y-108214342D01*
X122745238Y-108214342D02*
X122697619Y-108309580D01*
X122697619Y-108309580D02*
X122650000Y-108357200D01*
X122650000Y-108357200D02*
X122554762Y-108404819D01*
X122554762Y-108404819D02*
X122411905Y-108404819D01*
X123126191Y-108357200D02*
X123221429Y-108404819D01*
X123221429Y-108404819D02*
X123411905Y-108404819D01*
X123411905Y-108404819D02*
X123507143Y-108357200D01*
X123507143Y-108357200D02*
X123554762Y-108261961D01*
X123554762Y-108261961D02*
X123554762Y-108214342D01*
X123554762Y-108214342D02*
X123507143Y-108119104D01*
X123507143Y-108119104D02*
X123411905Y-108071485D01*
X123411905Y-108071485D02*
X123269048Y-108071485D01*
X123269048Y-108071485D02*
X123173810Y-108023866D01*
X123173810Y-108023866D02*
X123126191Y-107928628D01*
X123126191Y-107928628D02*
X123126191Y-107881009D01*
X123126191Y-107881009D02*
X123173810Y-107785771D01*
X123173810Y-107785771D02*
X123269048Y-107738152D01*
X123269048Y-107738152D02*
X123411905Y-107738152D01*
X123411905Y-107738152D02*
X123507143Y-107785771D01*
X123745239Y-108500057D02*
X124507143Y-108500057D01*
X124745239Y-108404819D02*
X124745239Y-107404819D01*
X124745239Y-107404819D02*
X124983334Y-107404819D01*
X124983334Y-107404819D02*
X125126191Y-107452438D01*
X125126191Y-107452438D02*
X125221429Y-107547676D01*
X125221429Y-107547676D02*
X125269048Y-107642914D01*
X125269048Y-107642914D02*
X125316667Y-107833390D01*
X125316667Y-107833390D02*
X125316667Y-107976247D01*
X125316667Y-107976247D02*
X125269048Y-108166723D01*
X125269048Y-108166723D02*
X125221429Y-108261961D01*
X125221429Y-108261961D02*
X125126191Y-108357200D01*
X125126191Y-108357200D02*
X124983334Y-108404819D01*
X124983334Y-108404819D02*
X124745239Y-108404819D01*
X126269048Y-108404819D02*
X125697620Y-108404819D01*
X125983334Y-108404819D02*
X125983334Y-107404819D01*
X125983334Y-107404819D02*
X125888096Y-107547676D01*
X125888096Y-107547676D02*
X125792858Y-107642914D01*
X125792858Y-107642914D02*
X125697620Y-107690533D01*
X126459525Y-108500057D02*
X127221429Y-108500057D01*
X127459525Y-108404819D02*
X127459525Y-107738152D01*
X127459525Y-107833390D02*
X127507144Y-107785771D01*
X127507144Y-107785771D02*
X127602382Y-107738152D01*
X127602382Y-107738152D02*
X127745239Y-107738152D01*
X127745239Y-107738152D02*
X127840477Y-107785771D01*
X127840477Y-107785771D02*
X127888096Y-107881009D01*
X127888096Y-107881009D02*
X127888096Y-108404819D01*
X127888096Y-107881009D02*
X127935715Y-107785771D01*
X127935715Y-107785771D02*
X128030953Y-107738152D01*
X128030953Y-107738152D02*
X128173810Y-107738152D01*
X128173810Y-107738152D02*
X128269049Y-107785771D01*
X128269049Y-107785771D02*
X128316668Y-107881009D01*
X128316668Y-107881009D02*
X128316668Y-108404819D01*
X128792858Y-108404819D02*
X128792858Y-107738152D01*
X128792858Y-107404819D02*
X128745239Y-107452438D01*
X128745239Y-107452438D02*
X128792858Y-107500057D01*
X128792858Y-107500057D02*
X128840477Y-107452438D01*
X128840477Y-107452438D02*
X128792858Y-107404819D01*
X128792858Y-107404819D02*
X128792858Y-107500057D01*
X129269048Y-107738152D02*
X129269048Y-108404819D01*
X129269048Y-107833390D02*
X129316667Y-107785771D01*
X129316667Y-107785771D02*
X129411905Y-107738152D01*
X129411905Y-107738152D02*
X129554762Y-107738152D01*
X129554762Y-107738152D02*
X129650000Y-107785771D01*
X129650000Y-107785771D02*
X129697619Y-107881009D01*
X129697619Y-107881009D02*
X129697619Y-108404819D01*
X130173810Y-108404819D02*
X130173810Y-107738152D01*
X130173810Y-107404819D02*
X130126191Y-107452438D01*
X130126191Y-107452438D02*
X130173810Y-107500057D01*
X130173810Y-107500057D02*
X130221429Y-107452438D01*
X130221429Y-107452438D02*
X130173810Y-107404819D01*
X130173810Y-107404819D02*
X130173810Y-107500057D01*
X101929819Y-70834999D02*
X100929819Y-70834999D01*
X100929819Y-70834999D02*
X100929819Y-70454047D01*
X100929819Y-70454047D02*
X100977438Y-70358809D01*
X100977438Y-70358809D02*
X101025057Y-70311190D01*
X101025057Y-70311190D02*
X101120295Y-70263571D01*
X101120295Y-70263571D02*
X101263152Y-70263571D01*
X101263152Y-70263571D02*
X101358390Y-70311190D01*
X101358390Y-70311190D02*
X101406009Y-70358809D01*
X101406009Y-70358809D02*
X101453628Y-70454047D01*
X101453628Y-70454047D02*
X101453628Y-70834999D01*
X102025057Y-70073095D02*
X102025057Y-69311190D01*
X101929819Y-68596904D02*
X101929819Y-69073094D01*
X101929819Y-69073094D02*
X100929819Y-69073094D01*
X101406009Y-68263570D02*
X101406009Y-67930237D01*
X101929819Y-67787380D02*
X101929819Y-68263570D01*
X101929819Y-68263570D02*
X100929819Y-68263570D01*
X100929819Y-68263570D02*
X100929819Y-67787380D01*
X101929819Y-67358808D02*
X100929819Y-67358808D01*
X100929819Y-67358808D02*
X100929819Y-67120713D01*
X100929819Y-67120713D02*
X100977438Y-66977856D01*
X100977438Y-66977856D02*
X101072676Y-66882618D01*
X101072676Y-66882618D02*
X101167914Y-66834999D01*
X101167914Y-66834999D02*
X101358390Y-66787380D01*
X101358390Y-66787380D02*
X101501247Y-66787380D01*
X101501247Y-66787380D02*
X101691723Y-66834999D01*
X101691723Y-66834999D02*
X101786961Y-66882618D01*
X101786961Y-66882618D02*
X101882200Y-66977856D01*
X101882200Y-66977856D02*
X101929819Y-67120713D01*
X101929819Y-67120713D02*
X101929819Y-67358808D01*
X107849819Y-57717857D02*
X107849819Y-58289285D01*
X107849819Y-58003571D02*
X106849819Y-58003571D01*
X106849819Y-58003571D02*
X106992676Y-58098809D01*
X106992676Y-58098809D02*
X107087914Y-58194047D01*
X107087914Y-58194047D02*
X107135533Y-58289285D01*
X107849819Y-57289285D02*
X106849819Y-57289285D01*
X106849819Y-57289285D02*
X107849819Y-56717857D01*
X107849819Y-56717857D02*
X106849819Y-56717857D01*
X107183152Y-55813095D02*
X107849819Y-55813095D01*
X106802200Y-56051190D02*
X107516485Y-56289285D01*
X107516485Y-56289285D02*
X107516485Y-55670238D01*
X106849819Y-55098809D02*
X106849819Y-55003571D01*
X106849819Y-55003571D02*
X106897438Y-54908333D01*
X106897438Y-54908333D02*
X106945057Y-54860714D01*
X106945057Y-54860714D02*
X107040295Y-54813095D01*
X107040295Y-54813095D02*
X107230771Y-54765476D01*
X107230771Y-54765476D02*
X107468866Y-54765476D01*
X107468866Y-54765476D02*
X107659342Y-54813095D01*
X107659342Y-54813095D02*
X107754580Y-54860714D01*
X107754580Y-54860714D02*
X107802200Y-54908333D01*
X107802200Y-54908333D02*
X107849819Y-55003571D01*
X107849819Y-55003571D02*
X107849819Y-55098809D01*
X107849819Y-55098809D02*
X107802200Y-55194047D01*
X107802200Y-55194047D02*
X107754580Y-55241666D01*
X107754580Y-55241666D02*
X107659342Y-55289285D01*
X107659342Y-55289285D02*
X107468866Y-55336904D01*
X107468866Y-55336904D02*
X107230771Y-55336904D01*
X107230771Y-55336904D02*
X107040295Y-55289285D01*
X107040295Y-55289285D02*
X106945057Y-55241666D01*
X106945057Y-55241666D02*
X106897438Y-55194047D01*
X106897438Y-55194047D02*
X106849819Y-55098809D01*
X106849819Y-54146428D02*
X106849819Y-54051190D01*
X106849819Y-54051190D02*
X106897438Y-53955952D01*
X106897438Y-53955952D02*
X106945057Y-53908333D01*
X106945057Y-53908333D02*
X107040295Y-53860714D01*
X107040295Y-53860714D02*
X107230771Y-53813095D01*
X107230771Y-53813095D02*
X107468866Y-53813095D01*
X107468866Y-53813095D02*
X107659342Y-53860714D01*
X107659342Y-53860714D02*
X107754580Y-53908333D01*
X107754580Y-53908333D02*
X107802200Y-53955952D01*
X107802200Y-53955952D02*
X107849819Y-54051190D01*
X107849819Y-54051190D02*
X107849819Y-54146428D01*
X107849819Y-54146428D02*
X107802200Y-54241666D01*
X107802200Y-54241666D02*
X107754580Y-54289285D01*
X107754580Y-54289285D02*
X107659342Y-54336904D01*
X107659342Y-54336904D02*
X107468866Y-54384523D01*
X107468866Y-54384523D02*
X107230771Y-54384523D01*
X107230771Y-54384523D02*
X107040295Y-54336904D01*
X107040295Y-54336904D02*
X106945057Y-54289285D01*
X106945057Y-54289285D02*
X106897438Y-54241666D01*
X106897438Y-54241666D02*
X106849819Y-54146428D01*
X106849819Y-53479761D02*
X106849819Y-52813095D01*
X106849819Y-52813095D02*
X107849819Y-53241666D01*
X105379819Y-55923094D02*
X104379819Y-55923094D01*
X104379819Y-55923094D02*
X104379819Y-55684999D01*
X104379819Y-55684999D02*
X104427438Y-55542142D01*
X104427438Y-55542142D02*
X104522676Y-55446904D01*
X104522676Y-55446904D02*
X104617914Y-55399285D01*
X104617914Y-55399285D02*
X104808390Y-55351666D01*
X104808390Y-55351666D02*
X104951247Y-55351666D01*
X104951247Y-55351666D02*
X105141723Y-55399285D01*
X105141723Y-55399285D02*
X105236961Y-55446904D01*
X105236961Y-55446904D02*
X105332200Y-55542142D01*
X105332200Y-55542142D02*
X105379819Y-55684999D01*
X105379819Y-55684999D02*
X105379819Y-55923094D01*
X105379819Y-54399285D02*
X105379819Y-54970713D01*
X105379819Y-54684999D02*
X104379819Y-54684999D01*
X104379819Y-54684999D02*
X104522676Y-54780237D01*
X104522676Y-54780237D02*
X104617914Y-54875475D01*
X104617914Y-54875475D02*
X104665533Y-54970713D01*
X151139285Y-82456009D02*
X151282142Y-82503628D01*
X151282142Y-82503628D02*
X151329761Y-82551247D01*
X151329761Y-82551247D02*
X151377380Y-82646485D01*
X151377380Y-82646485D02*
X151377380Y-82789342D01*
X151377380Y-82789342D02*
X151329761Y-82884580D01*
X151329761Y-82884580D02*
X151282142Y-82932200D01*
X151282142Y-82932200D02*
X151186904Y-82979819D01*
X151186904Y-82979819D02*
X150805952Y-82979819D01*
X150805952Y-82979819D02*
X150805952Y-81979819D01*
X150805952Y-81979819D02*
X151139285Y-81979819D01*
X151139285Y-81979819D02*
X151234523Y-82027438D01*
X151234523Y-82027438D02*
X151282142Y-82075057D01*
X151282142Y-82075057D02*
X151329761Y-82170295D01*
X151329761Y-82170295D02*
X151329761Y-82265533D01*
X151329761Y-82265533D02*
X151282142Y-82360771D01*
X151282142Y-82360771D02*
X151234523Y-82408390D01*
X151234523Y-82408390D02*
X151139285Y-82456009D01*
X151139285Y-82456009D02*
X150805952Y-82456009D01*
X151663095Y-81979819D02*
X152234523Y-81979819D01*
X151948809Y-82979819D02*
X151948809Y-81979819D01*
X153091666Y-82979819D02*
X152520238Y-82979819D01*
X152805952Y-82979819D02*
X152805952Y-81979819D01*
X152805952Y-81979819D02*
X152710714Y-82122676D01*
X152710714Y-82122676D02*
X152615476Y-82217914D01*
X152615476Y-82217914D02*
X152520238Y-82265533D01*
X153425000Y-81979819D02*
X154044047Y-81979819D01*
X154044047Y-81979819D02*
X153710714Y-82360771D01*
X153710714Y-82360771D02*
X153853571Y-82360771D01*
X153853571Y-82360771D02*
X153948809Y-82408390D01*
X153948809Y-82408390D02*
X153996428Y-82456009D01*
X153996428Y-82456009D02*
X154044047Y-82551247D01*
X154044047Y-82551247D02*
X154044047Y-82789342D01*
X154044047Y-82789342D02*
X153996428Y-82884580D01*
X153996428Y-82884580D02*
X153948809Y-82932200D01*
X153948809Y-82932200D02*
X153853571Y-82979819D01*
X153853571Y-82979819D02*
X153567857Y-82979819D01*
X153567857Y-82979819D02*
X153472619Y-82932200D01*
X153472619Y-82932200D02*
X153425000Y-82884580D01*
X154901190Y-81979819D02*
X154710714Y-81979819D01*
X154710714Y-81979819D02*
X154615476Y-82027438D01*
X154615476Y-82027438D02*
X154567857Y-82075057D01*
X154567857Y-82075057D02*
X154472619Y-82217914D01*
X154472619Y-82217914D02*
X154425000Y-82408390D01*
X154425000Y-82408390D02*
X154425000Y-82789342D01*
X154425000Y-82789342D02*
X154472619Y-82884580D01*
X154472619Y-82884580D02*
X154520238Y-82932200D01*
X154520238Y-82932200D02*
X154615476Y-82979819D01*
X154615476Y-82979819D02*
X154805952Y-82979819D01*
X154805952Y-82979819D02*
X154901190Y-82932200D01*
X154901190Y-82932200D02*
X154948809Y-82884580D01*
X154948809Y-82884580D02*
X154996428Y-82789342D01*
X154996428Y-82789342D02*
X154996428Y-82551247D01*
X154996428Y-82551247D02*
X154948809Y-82456009D01*
X154948809Y-82456009D02*
X154901190Y-82408390D01*
X154901190Y-82408390D02*
X154805952Y-82360771D01*
X154805952Y-82360771D02*
X154615476Y-82360771D01*
X154615476Y-82360771D02*
X154520238Y-82408390D01*
X154520238Y-82408390D02*
X154472619Y-82456009D01*
X154472619Y-82456009D02*
X154425000Y-82551247D01*
X155425000Y-82598866D02*
X156186905Y-82598866D01*
X157139285Y-81979819D02*
X156663095Y-81979819D01*
X156663095Y-81979819D02*
X156615476Y-82456009D01*
X156615476Y-82456009D02*
X156663095Y-82408390D01*
X156663095Y-82408390D02*
X156758333Y-82360771D01*
X156758333Y-82360771D02*
X156996428Y-82360771D01*
X156996428Y-82360771D02*
X157091666Y-82408390D01*
X157091666Y-82408390D02*
X157139285Y-82456009D01*
X157139285Y-82456009D02*
X157186904Y-82551247D01*
X157186904Y-82551247D02*
X157186904Y-82789342D01*
X157186904Y-82789342D02*
X157139285Y-82884580D01*
X157139285Y-82884580D02*
X157091666Y-82932200D01*
X157091666Y-82932200D02*
X156996428Y-82979819D01*
X156996428Y-82979819D02*
X156758333Y-82979819D01*
X156758333Y-82979819D02*
X156663095Y-82932200D01*
X156663095Y-82932200D02*
X156615476Y-82884580D01*
X157805952Y-81979819D02*
X157901190Y-81979819D01*
X157901190Y-81979819D02*
X157996428Y-82027438D01*
X157996428Y-82027438D02*
X158044047Y-82075057D01*
X158044047Y-82075057D02*
X158091666Y-82170295D01*
X158091666Y-82170295D02*
X158139285Y-82360771D01*
X158139285Y-82360771D02*
X158139285Y-82598866D01*
X158139285Y-82598866D02*
X158091666Y-82789342D01*
X158091666Y-82789342D02*
X158044047Y-82884580D01*
X158044047Y-82884580D02*
X157996428Y-82932200D01*
X157996428Y-82932200D02*
X157901190Y-82979819D01*
X157901190Y-82979819D02*
X157805952Y-82979819D01*
X157805952Y-82979819D02*
X157710714Y-82932200D01*
X157710714Y-82932200D02*
X157663095Y-82884580D01*
X157663095Y-82884580D02*
X157615476Y-82789342D01*
X157615476Y-82789342D02*
X157567857Y-82598866D01*
X157567857Y-82598866D02*
X157567857Y-82360771D01*
X157567857Y-82360771D02*
X157615476Y-82170295D01*
X157615476Y-82170295D02*
X157663095Y-82075057D01*
X157663095Y-82075057D02*
X157710714Y-82027438D01*
X157710714Y-82027438D02*
X157805952Y-81979819D01*
X158758333Y-81979819D02*
X158853571Y-81979819D01*
X158853571Y-81979819D02*
X158948809Y-82027438D01*
X158948809Y-82027438D02*
X158996428Y-82075057D01*
X158996428Y-82075057D02*
X159044047Y-82170295D01*
X159044047Y-82170295D02*
X159091666Y-82360771D01*
X159091666Y-82360771D02*
X159091666Y-82598866D01*
X159091666Y-82598866D02*
X159044047Y-82789342D01*
X159044047Y-82789342D02*
X158996428Y-82884580D01*
X158996428Y-82884580D02*
X158948809Y-82932200D01*
X158948809Y-82932200D02*
X158853571Y-82979819D01*
X158853571Y-82979819D02*
X158758333Y-82979819D01*
X158758333Y-82979819D02*
X158663095Y-82932200D01*
X158663095Y-82932200D02*
X158615476Y-82884580D01*
X158615476Y-82884580D02*
X158567857Y-82789342D01*
X158567857Y-82789342D02*
X158520238Y-82598866D01*
X158520238Y-82598866D02*
X158520238Y-82360771D01*
X158520238Y-82360771D02*
X158567857Y-82170295D01*
X158567857Y-82170295D02*
X158615476Y-82075057D01*
X158615476Y-82075057D02*
X158663095Y-82027438D01*
X158663095Y-82027438D02*
X158758333Y-81979819D01*
X146979819Y-94158333D02*
X145979819Y-94158333D01*
X145979819Y-94158333D02*
X146694104Y-93825000D01*
X146694104Y-93825000D02*
X145979819Y-93491667D01*
X145979819Y-93491667D02*
X146979819Y-93491667D01*
X145979819Y-92825000D02*
X145979819Y-92634524D01*
X145979819Y-92634524D02*
X146027438Y-92539286D01*
X146027438Y-92539286D02*
X146122676Y-92444048D01*
X146122676Y-92444048D02*
X146313152Y-92396429D01*
X146313152Y-92396429D02*
X146646485Y-92396429D01*
X146646485Y-92396429D02*
X146836961Y-92444048D01*
X146836961Y-92444048D02*
X146932200Y-92539286D01*
X146932200Y-92539286D02*
X146979819Y-92634524D01*
X146979819Y-92634524D02*
X146979819Y-92825000D01*
X146979819Y-92825000D02*
X146932200Y-92920238D01*
X146932200Y-92920238D02*
X146836961Y-93015476D01*
X146836961Y-93015476D02*
X146646485Y-93063095D01*
X146646485Y-93063095D02*
X146313152Y-93063095D01*
X146313152Y-93063095D02*
X146122676Y-93015476D01*
X146122676Y-93015476D02*
X146027438Y-92920238D01*
X146027438Y-92920238D02*
X145979819Y-92825000D01*
X146884580Y-91396429D02*
X146932200Y-91444048D01*
X146932200Y-91444048D02*
X146979819Y-91586905D01*
X146979819Y-91586905D02*
X146979819Y-91682143D01*
X146979819Y-91682143D02*
X146932200Y-91825000D01*
X146932200Y-91825000D02*
X146836961Y-91920238D01*
X146836961Y-91920238D02*
X146741723Y-91967857D01*
X146741723Y-91967857D02*
X146551247Y-92015476D01*
X146551247Y-92015476D02*
X146408390Y-92015476D01*
X146408390Y-92015476D02*
X146217914Y-91967857D01*
X146217914Y-91967857D02*
X146122676Y-91920238D01*
X146122676Y-91920238D02*
X146027438Y-91825000D01*
X146027438Y-91825000D02*
X145979819Y-91682143D01*
X145979819Y-91682143D02*
X145979819Y-91586905D01*
X145979819Y-91586905D02*
X146027438Y-91444048D01*
X146027438Y-91444048D02*
X146075057Y-91396429D01*
X147075057Y-91205953D02*
X147075057Y-90444048D01*
X146075057Y-90253571D02*
X146027438Y-90205952D01*
X146027438Y-90205952D02*
X145979819Y-90110714D01*
X145979819Y-90110714D02*
X145979819Y-89872619D01*
X145979819Y-89872619D02*
X146027438Y-89777381D01*
X146027438Y-89777381D02*
X146075057Y-89729762D01*
X146075057Y-89729762D02*
X146170295Y-89682143D01*
X146170295Y-89682143D02*
X146265533Y-89682143D01*
X146265533Y-89682143D02*
X146408390Y-89729762D01*
X146408390Y-89729762D02*
X146979819Y-90301190D01*
X146979819Y-90301190D02*
X146979819Y-89682143D01*
X145979819Y-89063095D02*
X145979819Y-88967857D01*
X145979819Y-88967857D02*
X146027438Y-88872619D01*
X146027438Y-88872619D02*
X146075057Y-88825000D01*
X146075057Y-88825000D02*
X146170295Y-88777381D01*
X146170295Y-88777381D02*
X146360771Y-88729762D01*
X146360771Y-88729762D02*
X146598866Y-88729762D01*
X146598866Y-88729762D02*
X146789342Y-88777381D01*
X146789342Y-88777381D02*
X146884580Y-88825000D01*
X146884580Y-88825000D02*
X146932200Y-88872619D01*
X146932200Y-88872619D02*
X146979819Y-88967857D01*
X146979819Y-88967857D02*
X146979819Y-89063095D01*
X146979819Y-89063095D02*
X146932200Y-89158333D01*
X146932200Y-89158333D02*
X146884580Y-89205952D01*
X146884580Y-89205952D02*
X146789342Y-89253571D01*
X146789342Y-89253571D02*
X146598866Y-89301190D01*
X146598866Y-89301190D02*
X146360771Y-89301190D01*
X146360771Y-89301190D02*
X146170295Y-89253571D01*
X146170295Y-89253571D02*
X146075057Y-89205952D01*
X146075057Y-89205952D02*
X146027438Y-89158333D01*
X146027438Y-89158333D02*
X145979819Y-89063095D01*
X146075057Y-88348809D02*
X146027438Y-88301190D01*
X146027438Y-88301190D02*
X145979819Y-88205952D01*
X145979819Y-88205952D02*
X145979819Y-87967857D01*
X145979819Y-87967857D02*
X146027438Y-87872619D01*
X146027438Y-87872619D02*
X146075057Y-87825000D01*
X146075057Y-87825000D02*
X146170295Y-87777381D01*
X146170295Y-87777381D02*
X146265533Y-87777381D01*
X146265533Y-87777381D02*
X146408390Y-87825000D01*
X146408390Y-87825000D02*
X146979819Y-88396428D01*
X146979819Y-88396428D02*
X146979819Y-87777381D01*
X145979819Y-87444047D02*
X145979819Y-86825000D01*
X145979819Y-86825000D02*
X146360771Y-87158333D01*
X146360771Y-87158333D02*
X146360771Y-87015476D01*
X146360771Y-87015476D02*
X146408390Y-86920238D01*
X146408390Y-86920238D02*
X146456009Y-86872619D01*
X146456009Y-86872619D02*
X146551247Y-86825000D01*
X146551247Y-86825000D02*
X146789342Y-86825000D01*
X146789342Y-86825000D02*
X146884580Y-86872619D01*
X146884580Y-86872619D02*
X146932200Y-86920238D01*
X146932200Y-86920238D02*
X146979819Y-87015476D01*
X146979819Y-87015476D02*
X146979819Y-87301190D01*
X146979819Y-87301190D02*
X146932200Y-87396428D01*
X146932200Y-87396428D02*
X146884580Y-87444047D01*
X147075057Y-86634524D02*
X147075057Y-85872619D01*
X146979819Y-85063095D02*
X146503628Y-85396428D01*
X146979819Y-85634523D02*
X145979819Y-85634523D01*
X145979819Y-85634523D02*
X145979819Y-85253571D01*
X145979819Y-85253571D02*
X146027438Y-85158333D01*
X146027438Y-85158333D02*
X146075057Y-85110714D01*
X146075057Y-85110714D02*
X146170295Y-85063095D01*
X146170295Y-85063095D02*
X146313152Y-85063095D01*
X146313152Y-85063095D02*
X146408390Y-85110714D01*
X146408390Y-85110714D02*
X146456009Y-85158333D01*
X146456009Y-85158333D02*
X146503628Y-85253571D01*
X146503628Y-85253571D02*
X146503628Y-85634523D01*
X145979819Y-83967856D02*
X145979819Y-83348809D01*
X145979819Y-83348809D02*
X146360771Y-83682142D01*
X146360771Y-83682142D02*
X146360771Y-83539285D01*
X146360771Y-83539285D02*
X146408390Y-83444047D01*
X146408390Y-83444047D02*
X146456009Y-83396428D01*
X146456009Y-83396428D02*
X146551247Y-83348809D01*
X146551247Y-83348809D02*
X146789342Y-83348809D01*
X146789342Y-83348809D02*
X146884580Y-83396428D01*
X146884580Y-83396428D02*
X146932200Y-83444047D01*
X146932200Y-83444047D02*
X146979819Y-83539285D01*
X146979819Y-83539285D02*
X146979819Y-83824999D01*
X146979819Y-83824999D02*
X146932200Y-83920237D01*
X146932200Y-83920237D02*
X146884580Y-83967856D01*
X145979819Y-83015475D02*
X145979819Y-82396428D01*
X145979819Y-82396428D02*
X146360771Y-82729761D01*
X146360771Y-82729761D02*
X146360771Y-82586904D01*
X146360771Y-82586904D02*
X146408390Y-82491666D01*
X146408390Y-82491666D02*
X146456009Y-82444047D01*
X146456009Y-82444047D02*
X146551247Y-82396428D01*
X146551247Y-82396428D02*
X146789342Y-82396428D01*
X146789342Y-82396428D02*
X146884580Y-82444047D01*
X146884580Y-82444047D02*
X146932200Y-82491666D01*
X146932200Y-82491666D02*
X146979819Y-82586904D01*
X146979819Y-82586904D02*
X146979819Y-82872618D01*
X146979819Y-82872618D02*
X146932200Y-82967856D01*
X146932200Y-82967856D02*
X146884580Y-83015475D01*
X145979819Y-81777380D02*
X145979819Y-81682142D01*
X145979819Y-81682142D02*
X146027438Y-81586904D01*
X146027438Y-81586904D02*
X146075057Y-81539285D01*
X146075057Y-81539285D02*
X146170295Y-81491666D01*
X146170295Y-81491666D02*
X146360771Y-81444047D01*
X146360771Y-81444047D02*
X146598866Y-81444047D01*
X146598866Y-81444047D02*
X146789342Y-81491666D01*
X146789342Y-81491666D02*
X146884580Y-81539285D01*
X146884580Y-81539285D02*
X146932200Y-81586904D01*
X146932200Y-81586904D02*
X146979819Y-81682142D01*
X146979819Y-81682142D02*
X146979819Y-81777380D01*
X146979819Y-81777380D02*
X146932200Y-81872618D01*
X146932200Y-81872618D02*
X146884580Y-81920237D01*
X146884580Y-81920237D02*
X146789342Y-81967856D01*
X146789342Y-81967856D02*
X146598866Y-82015475D01*
X146598866Y-82015475D02*
X146360771Y-82015475D01*
X146360771Y-82015475D02*
X146170295Y-81967856D01*
X146170295Y-81967856D02*
X146075057Y-81920237D01*
X146075057Y-81920237D02*
X146027438Y-81872618D01*
X146027438Y-81872618D02*
X145979819Y-81777380D01*
X154753810Y-45412319D02*
X154753810Y-44412319D01*
X154753810Y-44412319D02*
X155087143Y-45126604D01*
X155087143Y-45126604D02*
X155420476Y-44412319D01*
X155420476Y-44412319D02*
X155420476Y-45412319D01*
X156325238Y-45412319D02*
X156325238Y-44888509D01*
X156325238Y-44888509D02*
X156277619Y-44793271D01*
X156277619Y-44793271D02*
X156182381Y-44745652D01*
X156182381Y-44745652D02*
X155991905Y-44745652D01*
X155991905Y-44745652D02*
X155896667Y-44793271D01*
X156325238Y-45364700D02*
X156230000Y-45412319D01*
X156230000Y-45412319D02*
X155991905Y-45412319D01*
X155991905Y-45412319D02*
X155896667Y-45364700D01*
X155896667Y-45364700D02*
X155849048Y-45269461D01*
X155849048Y-45269461D02*
X155849048Y-45174223D01*
X155849048Y-45174223D02*
X155896667Y-45078985D01*
X155896667Y-45078985D02*
X155991905Y-45031366D01*
X155991905Y-45031366D02*
X156230000Y-45031366D01*
X156230000Y-45031366D02*
X156325238Y-44983747D01*
X156801429Y-45412319D02*
X156801429Y-44745652D01*
X156801429Y-44412319D02*
X156753810Y-44459938D01*
X156753810Y-44459938D02*
X156801429Y-44507557D01*
X156801429Y-44507557D02*
X156849048Y-44459938D01*
X156849048Y-44459938D02*
X156801429Y-44412319D01*
X156801429Y-44412319D02*
X156801429Y-44507557D01*
X157277619Y-44745652D02*
X157277619Y-45412319D01*
X157277619Y-44840890D02*
X157325238Y-44793271D01*
X157325238Y-44793271D02*
X157420476Y-44745652D01*
X157420476Y-44745652D02*
X157563333Y-44745652D01*
X157563333Y-44745652D02*
X157658571Y-44793271D01*
X157658571Y-44793271D02*
X157706190Y-44888509D01*
X157706190Y-44888509D02*
X157706190Y-45412319D01*
X89388334Y-108562200D02*
X89531191Y-108609819D01*
X89531191Y-108609819D02*
X89769286Y-108609819D01*
X89769286Y-108609819D02*
X89864524Y-108562200D01*
X89864524Y-108562200D02*
X89912143Y-108514580D01*
X89912143Y-108514580D02*
X89959762Y-108419342D01*
X89959762Y-108419342D02*
X89959762Y-108324104D01*
X89959762Y-108324104D02*
X89912143Y-108228866D01*
X89912143Y-108228866D02*
X89864524Y-108181247D01*
X89864524Y-108181247D02*
X89769286Y-108133628D01*
X89769286Y-108133628D02*
X89578810Y-108086009D01*
X89578810Y-108086009D02*
X89483572Y-108038390D01*
X89483572Y-108038390D02*
X89435953Y-107990771D01*
X89435953Y-107990771D02*
X89388334Y-107895533D01*
X89388334Y-107895533D02*
X89388334Y-107800295D01*
X89388334Y-107800295D02*
X89435953Y-107705057D01*
X89435953Y-107705057D02*
X89483572Y-107657438D01*
X89483572Y-107657438D02*
X89578810Y-107609819D01*
X89578810Y-107609819D02*
X89816905Y-107609819D01*
X89816905Y-107609819D02*
X89959762Y-107657438D01*
X90293096Y-107609819D02*
X90531191Y-108609819D01*
X90531191Y-108609819D02*
X90721667Y-107895533D01*
X90721667Y-107895533D02*
X90912143Y-108609819D01*
X90912143Y-108609819D02*
X91150239Y-107609819D01*
X91293096Y-108705057D02*
X92055000Y-108705057D01*
X92293096Y-108609819D02*
X92293096Y-107609819D01*
X92293096Y-107609819D02*
X92674048Y-107609819D01*
X92674048Y-107609819D02*
X92769286Y-107657438D01*
X92769286Y-107657438D02*
X92816905Y-107705057D01*
X92816905Y-107705057D02*
X92864524Y-107800295D01*
X92864524Y-107800295D02*
X92864524Y-107943152D01*
X92864524Y-107943152D02*
X92816905Y-108038390D01*
X92816905Y-108038390D02*
X92769286Y-108086009D01*
X92769286Y-108086009D02*
X92674048Y-108133628D01*
X92674048Y-108133628D02*
X92293096Y-108133628D01*
X93293096Y-107609819D02*
X93293096Y-108419342D01*
X93293096Y-108419342D02*
X93340715Y-108514580D01*
X93340715Y-108514580D02*
X93388334Y-108562200D01*
X93388334Y-108562200D02*
X93483572Y-108609819D01*
X93483572Y-108609819D02*
X93674048Y-108609819D01*
X93674048Y-108609819D02*
X93769286Y-108562200D01*
X93769286Y-108562200D02*
X93816905Y-108514580D01*
X93816905Y-108514580D02*
X93864524Y-108419342D01*
X93864524Y-108419342D02*
X93864524Y-107609819D01*
X94293096Y-108562200D02*
X94435953Y-108609819D01*
X94435953Y-108609819D02*
X94674048Y-108609819D01*
X94674048Y-108609819D02*
X94769286Y-108562200D01*
X94769286Y-108562200D02*
X94816905Y-108514580D01*
X94816905Y-108514580D02*
X94864524Y-108419342D01*
X94864524Y-108419342D02*
X94864524Y-108324104D01*
X94864524Y-108324104D02*
X94816905Y-108228866D01*
X94816905Y-108228866D02*
X94769286Y-108181247D01*
X94769286Y-108181247D02*
X94674048Y-108133628D01*
X94674048Y-108133628D02*
X94483572Y-108086009D01*
X94483572Y-108086009D02*
X94388334Y-108038390D01*
X94388334Y-108038390D02*
X94340715Y-107990771D01*
X94340715Y-107990771D02*
X94293096Y-107895533D01*
X94293096Y-107895533D02*
X94293096Y-107800295D01*
X94293096Y-107800295D02*
X94340715Y-107705057D01*
X94340715Y-107705057D02*
X94388334Y-107657438D01*
X94388334Y-107657438D02*
X94483572Y-107609819D01*
X94483572Y-107609819D02*
X94721667Y-107609819D01*
X94721667Y-107609819D02*
X94864524Y-107657438D01*
X95293096Y-108609819D02*
X95293096Y-107609819D01*
X95293096Y-108086009D02*
X95864524Y-108086009D01*
X95864524Y-108609819D02*
X95864524Y-107609819D01*
X96340715Y-108228866D02*
X97102620Y-108228866D01*
X98102619Y-108609819D02*
X97531191Y-108609819D01*
X97816905Y-108609819D02*
X97816905Y-107609819D01*
X97816905Y-107609819D02*
X97721667Y-107752676D01*
X97721667Y-107752676D02*
X97626429Y-107847914D01*
X97626429Y-107847914D02*
X97531191Y-107895533D01*
X98483572Y-107705057D02*
X98531191Y-107657438D01*
X98531191Y-107657438D02*
X98626429Y-107609819D01*
X98626429Y-107609819D02*
X98864524Y-107609819D01*
X98864524Y-107609819D02*
X98959762Y-107657438D01*
X98959762Y-107657438D02*
X99007381Y-107705057D01*
X99007381Y-107705057D02*
X99055000Y-107800295D01*
X99055000Y-107800295D02*
X99055000Y-107895533D01*
X99055000Y-107895533D02*
X99007381Y-108038390D01*
X99007381Y-108038390D02*
X98435953Y-108609819D01*
X98435953Y-108609819D02*
X99055000Y-108609819D01*
X99483572Y-108609819D02*
X99483572Y-107943152D01*
X99483572Y-108038390D02*
X99531191Y-107990771D01*
X99531191Y-107990771D02*
X99626429Y-107943152D01*
X99626429Y-107943152D02*
X99769286Y-107943152D01*
X99769286Y-107943152D02*
X99864524Y-107990771D01*
X99864524Y-107990771D02*
X99912143Y-108086009D01*
X99912143Y-108086009D02*
X99912143Y-108609819D01*
X99912143Y-108086009D02*
X99959762Y-107990771D01*
X99959762Y-107990771D02*
X100055000Y-107943152D01*
X100055000Y-107943152D02*
X100197857Y-107943152D01*
X100197857Y-107943152D02*
X100293096Y-107990771D01*
X100293096Y-107990771D02*
X100340715Y-108086009D01*
X100340715Y-108086009D02*
X100340715Y-108609819D01*
X100816905Y-108609819D02*
X100816905Y-107943152D01*
X100816905Y-108038390D02*
X100864524Y-107990771D01*
X100864524Y-107990771D02*
X100959762Y-107943152D01*
X100959762Y-107943152D02*
X101102619Y-107943152D01*
X101102619Y-107943152D02*
X101197857Y-107990771D01*
X101197857Y-107990771D02*
X101245476Y-108086009D01*
X101245476Y-108086009D02*
X101245476Y-108609819D01*
X101245476Y-108086009D02*
X101293095Y-107990771D01*
X101293095Y-107990771D02*
X101388333Y-107943152D01*
X101388333Y-107943152D02*
X101531190Y-107943152D01*
X101531190Y-107943152D02*
X101626429Y-107990771D01*
X101626429Y-107990771D02*
X101674048Y-108086009D01*
X101674048Y-108086009D02*
X101674048Y-108609819D01*
X94432200Y-70768809D02*
X94479819Y-70625952D01*
X94479819Y-70625952D02*
X94479819Y-70387857D01*
X94479819Y-70387857D02*
X94432200Y-70292619D01*
X94432200Y-70292619D02*
X94384580Y-70245000D01*
X94384580Y-70245000D02*
X94289342Y-70197381D01*
X94289342Y-70197381D02*
X94194104Y-70197381D01*
X94194104Y-70197381D02*
X94098866Y-70245000D01*
X94098866Y-70245000D02*
X94051247Y-70292619D01*
X94051247Y-70292619D02*
X94003628Y-70387857D01*
X94003628Y-70387857D02*
X93956009Y-70578333D01*
X93956009Y-70578333D02*
X93908390Y-70673571D01*
X93908390Y-70673571D02*
X93860771Y-70721190D01*
X93860771Y-70721190D02*
X93765533Y-70768809D01*
X93765533Y-70768809D02*
X93670295Y-70768809D01*
X93670295Y-70768809D02*
X93575057Y-70721190D01*
X93575057Y-70721190D02*
X93527438Y-70673571D01*
X93527438Y-70673571D02*
X93479819Y-70578333D01*
X93479819Y-70578333D02*
X93479819Y-70340238D01*
X93479819Y-70340238D02*
X93527438Y-70197381D01*
X94575057Y-70006905D02*
X94575057Y-69245000D01*
X94479819Y-68530714D02*
X94479819Y-69006904D01*
X94479819Y-69006904D02*
X93479819Y-69006904D01*
X93956009Y-68197380D02*
X93956009Y-67864047D01*
X94479819Y-67721190D02*
X94479819Y-68197380D01*
X94479819Y-68197380D02*
X93479819Y-68197380D01*
X93479819Y-68197380D02*
X93479819Y-67721190D01*
X94479819Y-67292618D02*
X93479819Y-67292618D01*
X93479819Y-67292618D02*
X93479819Y-67054523D01*
X93479819Y-67054523D02*
X93527438Y-66911666D01*
X93527438Y-66911666D02*
X93622676Y-66816428D01*
X93622676Y-66816428D02*
X93717914Y-66768809D01*
X93717914Y-66768809D02*
X93908390Y-66721190D01*
X93908390Y-66721190D02*
X94051247Y-66721190D01*
X94051247Y-66721190D02*
X94241723Y-66768809D01*
X94241723Y-66768809D02*
X94336961Y-66816428D01*
X94336961Y-66816428D02*
X94432200Y-66911666D01*
X94432200Y-66911666D02*
X94479819Y-67054523D01*
X94479819Y-67054523D02*
X94479819Y-67292618D01*
X102129819Y-59388095D02*
X101129819Y-59388095D01*
X101129819Y-59388095D02*
X101129819Y-59007143D01*
X101129819Y-59007143D02*
X101177438Y-58911905D01*
X101177438Y-58911905D02*
X101225057Y-58864286D01*
X101225057Y-58864286D02*
X101320295Y-58816667D01*
X101320295Y-58816667D02*
X101463152Y-58816667D01*
X101463152Y-58816667D02*
X101558390Y-58864286D01*
X101558390Y-58864286D02*
X101606009Y-58911905D01*
X101606009Y-58911905D02*
X101653628Y-59007143D01*
X101653628Y-59007143D02*
X101653628Y-59388095D01*
X102225057Y-58626191D02*
X102225057Y-57864286D01*
X102129819Y-57150000D02*
X102129819Y-57626190D01*
X102129819Y-57626190D02*
X101129819Y-57626190D01*
X101606009Y-56816666D02*
X101606009Y-56483333D01*
X102129819Y-56340476D02*
X102129819Y-56816666D01*
X102129819Y-56816666D02*
X101129819Y-56816666D01*
X101129819Y-56816666D02*
X101129819Y-56340476D01*
X102129819Y-55911904D02*
X101129819Y-55911904D01*
X101129819Y-55911904D02*
X101129819Y-55673809D01*
X101129819Y-55673809D02*
X101177438Y-55530952D01*
X101177438Y-55530952D02*
X101272676Y-55435714D01*
X101272676Y-55435714D02*
X101367914Y-55388095D01*
X101367914Y-55388095D02*
X101558390Y-55340476D01*
X101558390Y-55340476D02*
X101701247Y-55340476D01*
X101701247Y-55340476D02*
X101891723Y-55388095D01*
X101891723Y-55388095D02*
X101986961Y-55435714D01*
X101986961Y-55435714D02*
X102082200Y-55530952D01*
X102082200Y-55530952D02*
X102129819Y-55673809D01*
X102129819Y-55673809D02*
X102129819Y-55911904D01*
X102225057Y-55150000D02*
X102225057Y-54388095D01*
X102129819Y-53578571D02*
X101653628Y-53911904D01*
X102129819Y-54149999D02*
X101129819Y-54149999D01*
X101129819Y-54149999D02*
X101129819Y-53769047D01*
X101129819Y-53769047D02*
X101177438Y-53673809D01*
X101177438Y-53673809D02*
X101225057Y-53626190D01*
X101225057Y-53626190D02*
X101320295Y-53578571D01*
X101320295Y-53578571D02*
X101463152Y-53578571D01*
X101463152Y-53578571D02*
X101558390Y-53626190D01*
X101558390Y-53626190D02*
X101606009Y-53673809D01*
X101606009Y-53673809D02*
X101653628Y-53769047D01*
X101653628Y-53769047D02*
X101653628Y-54149999D01*
X102129819Y-51864285D02*
X102129819Y-52435713D01*
X102129819Y-52149999D02*
X101129819Y-52149999D01*
X101129819Y-52149999D02*
X101272676Y-52245237D01*
X101272676Y-52245237D02*
X101367914Y-52340475D01*
X101367914Y-52340475D02*
X101415533Y-52435713D01*
X102129819Y-51435713D02*
X101129819Y-51435713D01*
X102129819Y-50864285D02*
X101558390Y-51292856D01*
X101129819Y-50864285D02*
X101701247Y-51435713D01*
X94532200Y-61861904D02*
X94579819Y-61719047D01*
X94579819Y-61719047D02*
X94579819Y-61480952D01*
X94579819Y-61480952D02*
X94532200Y-61385714D01*
X94532200Y-61385714D02*
X94484580Y-61338095D01*
X94484580Y-61338095D02*
X94389342Y-61290476D01*
X94389342Y-61290476D02*
X94294104Y-61290476D01*
X94294104Y-61290476D02*
X94198866Y-61338095D01*
X94198866Y-61338095D02*
X94151247Y-61385714D01*
X94151247Y-61385714D02*
X94103628Y-61480952D01*
X94103628Y-61480952D02*
X94056009Y-61671428D01*
X94056009Y-61671428D02*
X94008390Y-61766666D01*
X94008390Y-61766666D02*
X93960771Y-61814285D01*
X93960771Y-61814285D02*
X93865533Y-61861904D01*
X93865533Y-61861904D02*
X93770295Y-61861904D01*
X93770295Y-61861904D02*
X93675057Y-61814285D01*
X93675057Y-61814285D02*
X93627438Y-61766666D01*
X93627438Y-61766666D02*
X93579819Y-61671428D01*
X93579819Y-61671428D02*
X93579819Y-61433333D01*
X93579819Y-61433333D02*
X93627438Y-61290476D01*
X94675057Y-61100000D02*
X94675057Y-60338095D01*
X94579819Y-59623809D02*
X94579819Y-60099999D01*
X94579819Y-60099999D02*
X93579819Y-60099999D01*
X94056009Y-59290475D02*
X94056009Y-58957142D01*
X94579819Y-58814285D02*
X94579819Y-59290475D01*
X94579819Y-59290475D02*
X93579819Y-59290475D01*
X93579819Y-59290475D02*
X93579819Y-58814285D01*
X94579819Y-58385713D02*
X93579819Y-58385713D01*
X93579819Y-58385713D02*
X93579819Y-58147618D01*
X93579819Y-58147618D02*
X93627438Y-58004761D01*
X93627438Y-58004761D02*
X93722676Y-57909523D01*
X93722676Y-57909523D02*
X93817914Y-57861904D01*
X93817914Y-57861904D02*
X94008390Y-57814285D01*
X94008390Y-57814285D02*
X94151247Y-57814285D01*
X94151247Y-57814285D02*
X94341723Y-57861904D01*
X94341723Y-57861904D02*
X94436961Y-57909523D01*
X94436961Y-57909523D02*
X94532200Y-58004761D01*
X94532200Y-58004761D02*
X94579819Y-58147618D01*
X94579819Y-58147618D02*
X94579819Y-58385713D01*
X94675057Y-57623809D02*
X94675057Y-56861904D01*
X94579819Y-56052380D02*
X94103628Y-56385713D01*
X94579819Y-56623808D02*
X93579819Y-56623808D01*
X93579819Y-56623808D02*
X93579819Y-56242856D01*
X93579819Y-56242856D02*
X93627438Y-56147618D01*
X93627438Y-56147618D02*
X93675057Y-56099999D01*
X93675057Y-56099999D02*
X93770295Y-56052380D01*
X93770295Y-56052380D02*
X93913152Y-56052380D01*
X93913152Y-56052380D02*
X94008390Y-56099999D01*
X94008390Y-56099999D02*
X94056009Y-56147618D01*
X94056009Y-56147618D02*
X94103628Y-56242856D01*
X94103628Y-56242856D02*
X94103628Y-56623808D01*
X94579819Y-54338094D02*
X94579819Y-54909522D01*
X94579819Y-54623808D02*
X93579819Y-54623808D01*
X93579819Y-54623808D02*
X93722676Y-54719046D01*
X93722676Y-54719046D02*
X93817914Y-54814284D01*
X93817914Y-54814284D02*
X93865533Y-54909522D01*
X94579819Y-53909522D02*
X93579819Y-53909522D01*
X94579819Y-53338094D02*
X94008390Y-53766665D01*
X93579819Y-53338094D02*
X94151247Y-53909522D01*
X150158333Y-69879819D02*
X150729761Y-69879819D01*
X150444047Y-70879819D02*
X150444047Y-69879819D01*
X151634523Y-70879819D02*
X151301190Y-70403628D01*
X151063095Y-70879819D02*
X151063095Y-69879819D01*
X151063095Y-69879819D02*
X151444047Y-69879819D01*
X151444047Y-69879819D02*
X151539285Y-69927438D01*
X151539285Y-69927438D02*
X151586904Y-69975057D01*
X151586904Y-69975057D02*
X151634523Y-70070295D01*
X151634523Y-70070295D02*
X151634523Y-70213152D01*
X151634523Y-70213152D02*
X151586904Y-70308390D01*
X151586904Y-70308390D02*
X151539285Y-70356009D01*
X151539285Y-70356009D02*
X151444047Y-70403628D01*
X151444047Y-70403628D02*
X151063095Y-70403628D01*
X152063095Y-70879819D02*
X152063095Y-69879819D01*
X152491666Y-70594104D02*
X152967856Y-70594104D01*
X152396428Y-70879819D02*
X152729761Y-69879819D01*
X152729761Y-69879819D02*
X153063094Y-70879819D01*
X153967856Y-70784580D02*
X153920237Y-70832200D01*
X153920237Y-70832200D02*
X153777380Y-70879819D01*
X153777380Y-70879819D02*
X153682142Y-70879819D01*
X153682142Y-70879819D02*
X153539285Y-70832200D01*
X153539285Y-70832200D02*
X153444047Y-70736961D01*
X153444047Y-70736961D02*
X153396428Y-70641723D01*
X153396428Y-70641723D02*
X153348809Y-70451247D01*
X153348809Y-70451247D02*
X153348809Y-70308390D01*
X153348809Y-70308390D02*
X153396428Y-70117914D01*
X153396428Y-70117914D02*
X153444047Y-70022676D01*
X153444047Y-70022676D02*
X153539285Y-69927438D01*
X153539285Y-69927438D02*
X153682142Y-69879819D01*
X153682142Y-69879819D02*
X153777380Y-69879819D01*
X153777380Y-69879819D02*
X153920237Y-69927438D01*
X153920237Y-69927438D02*
X153967856Y-69975057D01*
X154158333Y-70975057D02*
X154920237Y-70975057D01*
X155729761Y-70879819D02*
X155396428Y-70403628D01*
X155158333Y-70879819D02*
X155158333Y-69879819D01*
X155158333Y-69879819D02*
X155539285Y-69879819D01*
X155539285Y-69879819D02*
X155634523Y-69927438D01*
X155634523Y-69927438D02*
X155682142Y-69975057D01*
X155682142Y-69975057D02*
X155729761Y-70070295D01*
X155729761Y-70070295D02*
X155729761Y-70213152D01*
X155729761Y-70213152D02*
X155682142Y-70308390D01*
X155682142Y-70308390D02*
X155634523Y-70356009D01*
X155634523Y-70356009D02*
X155539285Y-70403628D01*
X155539285Y-70403628D02*
X155158333Y-70403628D01*
X157444047Y-70879819D02*
X156872619Y-70879819D01*
X157158333Y-70879819D02*
X157158333Y-69879819D01*
X157158333Y-69879819D02*
X157063095Y-70022676D01*
X157063095Y-70022676D02*
X156967857Y-70117914D01*
X156967857Y-70117914D02*
X156872619Y-70165533D01*
X158063095Y-69879819D02*
X158158333Y-69879819D01*
X158158333Y-69879819D02*
X158253571Y-69927438D01*
X158253571Y-69927438D02*
X158301190Y-69975057D01*
X158301190Y-69975057D02*
X158348809Y-70070295D01*
X158348809Y-70070295D02*
X158396428Y-70260771D01*
X158396428Y-70260771D02*
X158396428Y-70498866D01*
X158396428Y-70498866D02*
X158348809Y-70689342D01*
X158348809Y-70689342D02*
X158301190Y-70784580D01*
X158301190Y-70784580D02*
X158253571Y-70832200D01*
X158253571Y-70832200D02*
X158158333Y-70879819D01*
X158158333Y-70879819D02*
X158063095Y-70879819D01*
X158063095Y-70879819D02*
X157967857Y-70832200D01*
X157967857Y-70832200D02*
X157920238Y-70784580D01*
X157920238Y-70784580D02*
X157872619Y-70689342D01*
X157872619Y-70689342D02*
X157825000Y-70498866D01*
X157825000Y-70498866D02*
X157825000Y-70260771D01*
X157825000Y-70260771D02*
X157872619Y-70070295D01*
X157872619Y-70070295D02*
X157920238Y-69975057D01*
X157920238Y-69975057D02*
X157967857Y-69927438D01*
X157967857Y-69927438D02*
X158063095Y-69879819D01*
X158825000Y-70879819D02*
X158825000Y-69879819D01*
X159396428Y-70879819D02*
X158967857Y-70308390D01*
X159396428Y-69879819D02*
X158825000Y-70451247D01*
X154032142Y-108454819D02*
X153555952Y-108454819D01*
X153555952Y-108454819D02*
X153555952Y-107454819D01*
X154555952Y-107454819D02*
X154746428Y-107454819D01*
X154746428Y-107454819D02*
X154841666Y-107502438D01*
X154841666Y-107502438D02*
X154936904Y-107597676D01*
X154936904Y-107597676D02*
X154984523Y-107788152D01*
X154984523Y-107788152D02*
X154984523Y-108121485D01*
X154984523Y-108121485D02*
X154936904Y-108311961D01*
X154936904Y-108311961D02*
X154841666Y-108407200D01*
X154841666Y-108407200D02*
X154746428Y-108454819D01*
X154746428Y-108454819D02*
X154555952Y-108454819D01*
X154555952Y-108454819D02*
X154460714Y-108407200D01*
X154460714Y-108407200D02*
X154365476Y-108311961D01*
X154365476Y-108311961D02*
X154317857Y-108121485D01*
X154317857Y-108121485D02*
X154317857Y-107788152D01*
X154317857Y-107788152D02*
X154365476Y-107597676D01*
X154365476Y-107597676D02*
X154460714Y-107502438D01*
X154460714Y-107502438D02*
X154555952Y-107454819D01*
X155365476Y-108169104D02*
X155841666Y-108169104D01*
X155270238Y-108454819D02*
X155603571Y-107454819D01*
X155603571Y-107454819D02*
X155936904Y-108454819D01*
X156270238Y-108454819D02*
X156270238Y-107454819D01*
X156270238Y-107454819D02*
X156508333Y-107454819D01*
X156508333Y-107454819D02*
X156651190Y-107502438D01*
X156651190Y-107502438D02*
X156746428Y-107597676D01*
X156746428Y-107597676D02*
X156794047Y-107692914D01*
X156794047Y-107692914D02*
X156841666Y-107883390D01*
X156841666Y-107883390D02*
X156841666Y-108026247D01*
X156841666Y-108026247D02*
X156794047Y-108216723D01*
X156794047Y-108216723D02*
X156746428Y-108311961D01*
X156746428Y-108311961D02*
X156651190Y-108407200D01*
X156651190Y-108407200D02*
X156508333Y-108454819D01*
X156508333Y-108454819D02*
X156270238Y-108454819D01*
X95932142Y-92879819D02*
X95455952Y-92879819D01*
X95455952Y-92879819D02*
X95455952Y-91879819D01*
X96265476Y-92879819D02*
X96265476Y-91879819D01*
X96265476Y-91879819D02*
X96503571Y-91879819D01*
X96503571Y-91879819D02*
X96646428Y-91927438D01*
X96646428Y-91927438D02*
X96741666Y-92022676D01*
X96741666Y-92022676D02*
X96789285Y-92117914D01*
X96789285Y-92117914D02*
X96836904Y-92308390D01*
X96836904Y-92308390D02*
X96836904Y-92451247D01*
X96836904Y-92451247D02*
X96789285Y-92641723D01*
X96789285Y-92641723D02*
X96741666Y-92736961D01*
X96741666Y-92736961D02*
X96646428Y-92832200D01*
X96646428Y-92832200D02*
X96503571Y-92879819D01*
X96503571Y-92879819D02*
X96265476Y-92879819D01*
X97836904Y-92879819D02*
X97503571Y-92403628D01*
X97265476Y-92879819D02*
X97265476Y-91879819D01*
X97265476Y-91879819D02*
X97646428Y-91879819D01*
X97646428Y-91879819D02*
X97741666Y-91927438D01*
X97741666Y-91927438D02*
X97789285Y-91975057D01*
X97789285Y-91975057D02*
X97836904Y-92070295D01*
X97836904Y-92070295D02*
X97836904Y-92213152D01*
X97836904Y-92213152D02*
X97789285Y-92308390D01*
X97789285Y-92308390D02*
X97741666Y-92356009D01*
X97741666Y-92356009D02*
X97646428Y-92403628D01*
X97646428Y-92403628D02*
X97265476Y-92403628D01*
X98455952Y-91879819D02*
X98551190Y-91879819D01*
X98551190Y-91879819D02*
X98646428Y-91927438D01*
X98646428Y-91927438D02*
X98694047Y-91975057D01*
X98694047Y-91975057D02*
X98741666Y-92070295D01*
X98741666Y-92070295D02*
X98789285Y-92260771D01*
X98789285Y-92260771D02*
X98789285Y-92498866D01*
X98789285Y-92498866D02*
X98741666Y-92689342D01*
X98741666Y-92689342D02*
X98694047Y-92784580D01*
X98694047Y-92784580D02*
X98646428Y-92832200D01*
X98646428Y-92832200D02*
X98551190Y-92879819D01*
X98551190Y-92879819D02*
X98455952Y-92879819D01*
X98455952Y-92879819D02*
X98360714Y-92832200D01*
X98360714Y-92832200D02*
X98313095Y-92784580D01*
X98313095Y-92784580D02*
X98265476Y-92689342D01*
X98265476Y-92689342D02*
X98217857Y-92498866D01*
X98217857Y-92498866D02*
X98217857Y-92260771D01*
X98217857Y-92260771D02*
X98265476Y-92070295D01*
X98265476Y-92070295D02*
X98313095Y-91975057D01*
X98313095Y-91975057D02*
X98360714Y-91927438D01*
X98360714Y-91927438D02*
X98455952Y-91879819D01*
X99122619Y-91879819D02*
X99741666Y-91879819D01*
X99741666Y-91879819D02*
X99408333Y-92260771D01*
X99408333Y-92260771D02*
X99551190Y-92260771D01*
X99551190Y-92260771D02*
X99646428Y-92308390D01*
X99646428Y-92308390D02*
X99694047Y-92356009D01*
X99694047Y-92356009D02*
X99741666Y-92451247D01*
X99741666Y-92451247D02*
X99741666Y-92689342D01*
X99741666Y-92689342D02*
X99694047Y-92784580D01*
X99694047Y-92784580D02*
X99646428Y-92832200D01*
X99646428Y-92832200D02*
X99551190Y-92879819D01*
X99551190Y-92879819D02*
X99265476Y-92879819D01*
X99265476Y-92879819D02*
X99170238Y-92832200D01*
X99170238Y-92832200D02*
X99122619Y-92784580D01*
X97508333Y-85179819D02*
X97175000Y-84703628D01*
X96936905Y-85179819D02*
X96936905Y-84179819D01*
X96936905Y-84179819D02*
X97317857Y-84179819D01*
X97317857Y-84179819D02*
X97413095Y-84227438D01*
X97413095Y-84227438D02*
X97460714Y-84275057D01*
X97460714Y-84275057D02*
X97508333Y-84370295D01*
X97508333Y-84370295D02*
X97508333Y-84513152D01*
X97508333Y-84513152D02*
X97460714Y-84608390D01*
X97460714Y-84608390D02*
X97413095Y-84656009D01*
X97413095Y-84656009D02*
X97317857Y-84703628D01*
X97317857Y-84703628D02*
X96936905Y-84703628D01*
X98460714Y-85179819D02*
X97889286Y-85179819D01*
X98175000Y-85179819D02*
X98175000Y-84179819D01*
X98175000Y-84179819D02*
X98079762Y-84322676D01*
X98079762Y-84322676D02*
X97984524Y-84417914D01*
X97984524Y-84417914D02*
X97889286Y-84465533D01*
X134016667Y-46029819D02*
X134016667Y-45029819D01*
X134016667Y-45506009D02*
X134588095Y-45506009D01*
X134588095Y-46029819D02*
X134588095Y-45029819D01*
X135540476Y-46029819D02*
X135064286Y-46029819D01*
X135064286Y-46029819D02*
X135064286Y-45029819D01*
X135873810Y-46029819D02*
X135873810Y-45029819D01*
X136445238Y-46029819D02*
X136016667Y-45458390D01*
X136445238Y-45029819D02*
X135873810Y-45601247D01*
X136873810Y-45648866D02*
X137635715Y-45648866D01*
X138111905Y-46029819D02*
X138111905Y-45029819D01*
X138111905Y-45029819D02*
X138492857Y-45029819D01*
X138492857Y-45029819D02*
X138588095Y-45077438D01*
X138588095Y-45077438D02*
X138635714Y-45125057D01*
X138635714Y-45125057D02*
X138683333Y-45220295D01*
X138683333Y-45220295D02*
X138683333Y-45363152D01*
X138683333Y-45363152D02*
X138635714Y-45458390D01*
X138635714Y-45458390D02*
X138588095Y-45506009D01*
X138588095Y-45506009D02*
X138492857Y-45553628D01*
X138492857Y-45553628D02*
X138111905Y-45553628D01*
X139111905Y-46029819D02*
X139111905Y-45029819D01*
X139111905Y-45029819D02*
X139445238Y-45744104D01*
X139445238Y-45744104D02*
X139778571Y-45029819D01*
X139778571Y-45029819D02*
X139778571Y-46029819D01*
X140445238Y-45029819D02*
X140540476Y-45029819D01*
X140540476Y-45029819D02*
X140635714Y-45077438D01*
X140635714Y-45077438D02*
X140683333Y-45125057D01*
X140683333Y-45125057D02*
X140730952Y-45220295D01*
X140730952Y-45220295D02*
X140778571Y-45410771D01*
X140778571Y-45410771D02*
X140778571Y-45648866D01*
X140778571Y-45648866D02*
X140730952Y-45839342D01*
X140730952Y-45839342D02*
X140683333Y-45934580D01*
X140683333Y-45934580D02*
X140635714Y-45982200D01*
X140635714Y-45982200D02*
X140540476Y-46029819D01*
X140540476Y-46029819D02*
X140445238Y-46029819D01*
X140445238Y-46029819D02*
X140350000Y-45982200D01*
X140350000Y-45982200D02*
X140302381Y-45934580D01*
X140302381Y-45934580D02*
X140254762Y-45839342D01*
X140254762Y-45839342D02*
X140207143Y-45648866D01*
X140207143Y-45648866D02*
X140207143Y-45410771D01*
X140207143Y-45410771D02*
X140254762Y-45220295D01*
X140254762Y-45220295D02*
X140302381Y-45125057D01*
X140302381Y-45125057D02*
X140350000Y-45077438D01*
X140350000Y-45077438D02*
X140445238Y-45029819D01*
X141730952Y-46029819D02*
X141159524Y-46029819D01*
X141445238Y-46029819D02*
X141445238Y-45029819D01*
X141445238Y-45029819D02*
X141350000Y-45172676D01*
X141350000Y-45172676D02*
X141254762Y-45267914D01*
X141254762Y-45267914D02*
X141159524Y-45315533D01*
X142813095Y-80879819D02*
X142813095Y-79879819D01*
X142813095Y-79879819D02*
X143146428Y-80594104D01*
X143146428Y-80594104D02*
X143479761Y-79879819D01*
X143479761Y-79879819D02*
X143479761Y-80879819D01*
X144146428Y-79879819D02*
X144336904Y-79879819D01*
X144336904Y-79879819D02*
X144432142Y-79927438D01*
X144432142Y-79927438D02*
X144527380Y-80022676D01*
X144527380Y-80022676D02*
X144574999Y-80213152D01*
X144574999Y-80213152D02*
X144574999Y-80546485D01*
X144574999Y-80546485D02*
X144527380Y-80736961D01*
X144527380Y-80736961D02*
X144432142Y-80832200D01*
X144432142Y-80832200D02*
X144336904Y-80879819D01*
X144336904Y-80879819D02*
X144146428Y-80879819D01*
X144146428Y-80879819D02*
X144051190Y-80832200D01*
X144051190Y-80832200D02*
X143955952Y-80736961D01*
X143955952Y-80736961D02*
X143908333Y-80546485D01*
X143908333Y-80546485D02*
X143908333Y-80213152D01*
X143908333Y-80213152D02*
X143955952Y-80022676D01*
X143955952Y-80022676D02*
X144051190Y-79927438D01*
X144051190Y-79927438D02*
X144146428Y-79879819D01*
X145574999Y-80784580D02*
X145527380Y-80832200D01*
X145527380Y-80832200D02*
X145384523Y-80879819D01*
X145384523Y-80879819D02*
X145289285Y-80879819D01*
X145289285Y-80879819D02*
X145146428Y-80832200D01*
X145146428Y-80832200D02*
X145051190Y-80736961D01*
X145051190Y-80736961D02*
X145003571Y-80641723D01*
X145003571Y-80641723D02*
X144955952Y-80451247D01*
X144955952Y-80451247D02*
X144955952Y-80308390D01*
X144955952Y-80308390D02*
X145003571Y-80117914D01*
X145003571Y-80117914D02*
X145051190Y-80022676D01*
X145051190Y-80022676D02*
X145146428Y-79927438D01*
X145146428Y-79927438D02*
X145289285Y-79879819D01*
X145289285Y-79879819D02*
X145384523Y-79879819D01*
X145384523Y-79879819D02*
X145527380Y-79927438D01*
X145527380Y-79927438D02*
X145574999Y-79975057D01*
X145955952Y-79975057D02*
X146003571Y-79927438D01*
X146003571Y-79927438D02*
X146098809Y-79879819D01*
X146098809Y-79879819D02*
X146336904Y-79879819D01*
X146336904Y-79879819D02*
X146432142Y-79927438D01*
X146432142Y-79927438D02*
X146479761Y-79975057D01*
X146479761Y-79975057D02*
X146527380Y-80070295D01*
X146527380Y-80070295D02*
X146527380Y-80165533D01*
X146527380Y-80165533D02*
X146479761Y-80308390D01*
X146479761Y-80308390D02*
X145908333Y-80879819D01*
X145908333Y-80879819D02*
X146527380Y-80879819D01*
X147146428Y-79879819D02*
X147241666Y-79879819D01*
X147241666Y-79879819D02*
X147336904Y-79927438D01*
X147336904Y-79927438D02*
X147384523Y-79975057D01*
X147384523Y-79975057D02*
X147432142Y-80070295D01*
X147432142Y-80070295D02*
X147479761Y-80260771D01*
X147479761Y-80260771D02*
X147479761Y-80498866D01*
X147479761Y-80498866D02*
X147432142Y-80689342D01*
X147432142Y-80689342D02*
X147384523Y-80784580D01*
X147384523Y-80784580D02*
X147336904Y-80832200D01*
X147336904Y-80832200D02*
X147241666Y-80879819D01*
X147241666Y-80879819D02*
X147146428Y-80879819D01*
X147146428Y-80879819D02*
X147051190Y-80832200D01*
X147051190Y-80832200D02*
X147003571Y-80784580D01*
X147003571Y-80784580D02*
X146955952Y-80689342D01*
X146955952Y-80689342D02*
X146908333Y-80498866D01*
X146908333Y-80498866D02*
X146908333Y-80260771D01*
X146908333Y-80260771D02*
X146955952Y-80070295D01*
X146955952Y-80070295D02*
X147003571Y-79975057D01*
X147003571Y-79975057D02*
X147051190Y-79927438D01*
X147051190Y-79927438D02*
X147146428Y-79879819D01*
X147860714Y-79975057D02*
X147908333Y-79927438D01*
X147908333Y-79927438D02*
X148003571Y-79879819D01*
X148003571Y-79879819D02*
X148241666Y-79879819D01*
X148241666Y-79879819D02*
X148336904Y-79927438D01*
X148336904Y-79927438D02*
X148384523Y-79975057D01*
X148384523Y-79975057D02*
X148432142Y-80070295D01*
X148432142Y-80070295D02*
X148432142Y-80165533D01*
X148432142Y-80165533D02*
X148384523Y-80308390D01*
X148384523Y-80308390D02*
X147813095Y-80879819D01*
X147813095Y-80879819D02*
X148432142Y-80879819D01*
X148765476Y-79879819D02*
X149384523Y-79879819D01*
X149384523Y-79879819D02*
X149051190Y-80260771D01*
X149051190Y-80260771D02*
X149194047Y-80260771D01*
X149194047Y-80260771D02*
X149289285Y-80308390D01*
X149289285Y-80308390D02*
X149336904Y-80356009D01*
X149336904Y-80356009D02*
X149384523Y-80451247D01*
X149384523Y-80451247D02*
X149384523Y-80689342D01*
X149384523Y-80689342D02*
X149336904Y-80784580D01*
X149336904Y-80784580D02*
X149289285Y-80832200D01*
X149289285Y-80832200D02*
X149194047Y-80879819D01*
X149194047Y-80879819D02*
X148908333Y-80879819D01*
X148908333Y-80879819D02*
X148813095Y-80832200D01*
X148813095Y-80832200D02*
X148765476Y-80784580D01*
D10*
%TO.C,U1*%
X110670000Y-74550000D02*
X110670000Y-79760000D01*
X110670000Y-81760000D02*
X110670000Y-99850000D01*
X110670000Y-81760000D02*
X111670000Y-80760000D01*
X110670000Y-99850000D02*
X113210000Y-99850000D01*
X111670000Y-80760000D02*
X110670000Y-79760000D01*
X113210000Y-99850000D02*
X113210000Y-106750000D01*
X113210000Y-106750000D02*
X136270000Y-106750000D01*
X134270000Y-72550000D02*
X112670000Y-72550000D01*
X136270000Y-106750000D02*
X136270000Y-74550000D01*
X110670000Y-74550000D02*
G75*
G02*
X112670000Y-72550000I1999999J1D01*
G01*
X134290000Y-72550001D02*
G75*
G02*
X136269999Y-74570000I-20000J-1999999D01*
G01*
%TO.C,D1*%
X103575000Y-52975000D02*
X103575000Y-58175000D01*
X103575000Y-57295000D02*
X106275000Y-57295000D01*
X103575000Y-57395000D02*
X106275000Y-57395000D01*
X103575000Y-57495000D02*
X106275000Y-57495000D01*
X103575000Y-58175000D02*
X106275000Y-58175000D01*
X104925000Y-50495000D02*
X104925000Y-52975000D01*
X104925000Y-60655000D02*
X104925000Y-58175000D01*
X106275000Y-52975000D02*
X103575000Y-52975000D01*
X106275000Y-58175000D02*
X106275000Y-52975000D01*
%TO.C,Q1*%
X152775000Y-77080000D02*
X152775000Y-81480000D01*
X152775000Y-81480000D02*
X162775000Y-81480000D01*
X155925000Y-81480000D02*
X155925000Y-80210000D01*
X159625000Y-81480000D02*
X159625000Y-80210000D01*
X162775000Y-77080000D02*
X152775000Y-77080000D01*
X162775000Y-80210000D02*
X152775000Y-80210000D01*
X162775000Y-81480000D02*
X162775000Y-77080000D01*
%TO.C,REF\u002A\u002A*%
X151165000Y-46825000D02*
X151165000Y-54325000D01*
X151165000Y-54325000D02*
X161165000Y-54325000D01*
X151215000Y-53125000D02*
X161115000Y-53125000D01*
X161165000Y-46825000D02*
X151165000Y-46825000D01*
X161165000Y-54325000D02*
X161165000Y-46825000D01*
X89185000Y-94725000D02*
X89185000Y-106725000D01*
X89185000Y-94725000D02*
X101185000Y-94725000D01*
X89185000Y-106725000D02*
X101185000Y-106725000D01*
X101185000Y-94725000D02*
X101185000Y-106725000D01*
X150175000Y-99225000D02*
X150175000Y-106725000D01*
X150175000Y-106725000D02*
X160175000Y-106725000D01*
X160125000Y-100425000D02*
X150225000Y-100425000D01*
X160175000Y-99225000D02*
X150175000Y-99225000D01*
X160175000Y-106725000D02*
X160175000Y-99225000D01*
%TO.C,R1*%
X94675000Y-82975000D02*
X100675000Y-82975000D01*
X96775000Y-85425000D02*
X98575000Y-85425000D01*
X96775000Y-86025000D02*
X96775000Y-86625000D01*
X96775000Y-86625000D02*
X98575000Y-86625000D01*
X96775000Y-87225000D02*
X96775000Y-87825000D01*
X96775000Y-87825000D02*
X98575000Y-87825000D01*
X96775000Y-88425000D02*
X96775000Y-89025000D01*
X96775000Y-89025000D02*
X98575000Y-89025000D01*
X98575000Y-85425000D02*
X98575000Y-86025000D01*
X98575000Y-86025000D02*
X96775000Y-86025000D01*
X98575000Y-86625000D02*
X98575000Y-87225000D01*
X98575000Y-87225000D02*
X96775000Y-87225000D01*
X98575000Y-87825000D02*
X98575000Y-88425000D01*
X98575000Y-88425000D02*
X96775000Y-88425000D01*
X100675000Y-91475000D02*
X94675000Y-91475000D01*
X94675000Y-91475000D02*
G75*
G02*
X94633251Y-83004780I3000000J4250000D01*
G01*
X100675000Y-82975000D02*
G75*
G02*
X100716749Y-91445220I-3000000J-4250000D01*
G01*
%TO.C,PS1*%
X111682500Y-47757500D02*
X146482500Y-47757500D01*
X111682500Y-68257500D02*
X111682500Y-47757500D01*
X145482500Y-68257500D02*
X111682500Y-68257500D01*
X146482500Y-47757500D02*
X146482500Y-67257500D01*
X146482500Y-67257500D02*
X145482500Y-68257500D01*
D14*
%TO.C,REF\u002A\u002A*%
X149462500Y-79480000D02*
X142602500Y-79480000D01*
X149462500Y-72120000D02*
X149462500Y-79480000D01*
X142602500Y-79480000D02*
X142602500Y-72120000D01*
X142602500Y-72120000D02*
X149462500Y-72120000D01*
%TD*%
D15*
X85375000Y-42550000D02*
X165375000Y-42550000D01*
X165375000Y-110550000D01*
X85375000Y-110550000D01*
X85375000Y-42550000D01*
D16*
%TO.P,U1,1,~{RST}*%
%TO.N,unconnected-(U1-~{RST}-Pad1)*%
X112040000Y-80760000D03*
D17*
%TO.P,U1,2,A0*%
%TO.N,unconnected-(U1-A0-Pad2)*%
X112040000Y-83300000D03*
%TO.P,U1,3,D0*%
%TO.N,unconnected-(U1-D0-Pad3)*%
X112040000Y-85840000D03*
%TO.P,U1,4,SCK/D5*%
%TO.N,Net-(U1-SCK{slash}D5)*%
X112040000Y-88380000D03*
%TO.P,U1,5,MISO/D6*%
%TO.N,Net-(U1-MISO{slash}D6)*%
X112040000Y-90920000D03*
%TO.P,U1,6,MOSI/D7*%
%TO.N,Net-(U1-MOSI{slash}D7)*%
X112040000Y-93460000D03*
%TO.P,U1,7,CS/D8*%
%TO.N,Net-(U1-CS{slash}D8)*%
X112040000Y-96000000D03*
%TO.P,U1,8,3V3*%
%TO.N,unconnected-(U1-3V3-Pad8)*%
X112040000Y-98540000D03*
%TO.P,U1,9,5V*%
%TO.N,Net-(D1-K)*%
X134900000Y-98540000D03*
%TO.P,U1,10,GND*%
%TO.N,Net-(D2-K)*%
X134900000Y-96000000D03*
%TO.P,U1,11,D4*%
%TO.N,unconnected-(U1-D4-Pad11)*%
X134900000Y-93460000D03*
%TO.P,U1,12,D3*%
%TO.N,unconnected-(U1-D3-Pad12)*%
X134900000Y-90920000D03*
%TO.P,U1,13,SDA/D2*%
%TO.N,Net-(U1-SDA{slash}D2)*%
X134900000Y-88380000D03*
%TO.P,U1,14,SCL/D1*%
%TO.N,unconnected-(U1-SCL{slash}D1-Pad14)*%
X134900000Y-85840000D03*
%TO.P,U1,15,RX*%
%TO.N,unconnected-(U1-RX-Pad15)*%
X134900000Y-83300000D03*
%TO.P,U1,16,TX*%
%TO.N,unconnected-(U1-TX-Pad16)*%
X134900000Y-80760000D03*
%TD*%
D16*
%TO.P,REF\u002A\u002A,1*%
%TO.N,Net-(D2-K)*%
X98700000Y-66235000D03*
D18*
%TO.P,REF\u002A\u002A,2*%
%TO.N,Net-(U1-SCK{slash}D5)*%
X98700000Y-71315000D03*
%TD*%
D19*
%TO.P,D1,1,K*%
%TO.N,Net-(D1-K)*%
X104925000Y-60655000D03*
D20*
%TO.P,D1,2,A*%
%TO.N,Net-(D1-A)*%
X104925000Y-50495000D03*
%TD*%
D21*
%TO.P,Q1,1,A1*%
%TO.N,Net-(J2-Pin_2)*%
X160315000Y-78330000D03*
D22*
%TO.P,Q1,2,A2*%
%TO.N,Net-(J1-Pin_2)*%
X157315000Y-78330000D03*
%TO.P,Q1,3,G*%
%TO.N,Net-(Q1-G)*%
X154315000Y-78330000D03*
%TD*%
D16*
%TO.P,REF\u002A\u002A,1*%
%TO.N,Net-(U1-SDA{slash}D2)*%
X143700000Y-83360000D03*
D18*
%TO.P,REF\u002A\u002A,2*%
X143700000Y-88440000D03*
%TD*%
D23*
%TO.P,REF\u002A\u002A,1*%
%TO.N,Net-(J1-Pin_2)*%
X153625000Y-50575000D03*
D24*
%TO.P,REF\u002A\u002A,2*%
%TO.N,Net-(J1-Pin_1)*%
X158705000Y-50575000D03*
%TD*%
D25*
%TO.P,REF\u002A\u002A,1*%
%TO.N,N/C*%
X88935000Y-98225000D03*
%TO.N,unconnected-(U1-D4-Pad11)*%
X101435000Y-98225000D03*
%TO.P,REF\u002A\u002A,2*%
%TO.N,Net-(D2-K)*%
X88935000Y-103225000D03*
%TO.N,N/C*%
X101435000Y-103225000D03*
%TD*%
D16*
%TO.P,REF\u002A\u002A,1*%
%TO.N,Net-(D2-K)*%
X91250000Y-66220000D03*
D18*
%TO.P,REF\u002A\u002A,2*%
%TO.N,Net-(U1-MISO{slash}D6)*%
X91250000Y-71300000D03*
%TD*%
D16*
%TO.P,REF\u002A\u002A,1*%
%TO.N,Net-(D2-K)*%
X98700000Y-57650000D03*
D18*
%TO.P,REF\u002A\u002A,2*%
X98700000Y-52570000D03*
%TD*%
D16*
%TO.P,REF\u002A\u002A,1*%
%TO.N,Net-(D2-K)*%
X91250000Y-57635000D03*
D18*
%TO.P,REF\u002A\u002A,2*%
X91250000Y-52555000D03*
%TD*%
D16*
%TO.P,REF\u002A\u002A,1*%
%TO.N,Net-(J1-Pin_2)*%
X155285000Y-73125000D03*
D18*
%TO.P,REF\u002A\u002A,2*%
X160365000Y-73125000D03*
%TD*%
D23*
%TO.P,REF\u002A\u002A,1*%
%TO.N,Net-(J1-Pin_1)*%
X157715000Y-102975000D03*
D24*
%TO.P,REF\u002A\u002A,2*%
%TO.N,Net-(J2-Pin_2)*%
X152635000Y-102975000D03*
%TD*%
D26*
%TO.P,R1,1*%
%TO.N,Net-(D2-K)*%
X93875000Y-87225000D03*
%TO.P,R1,2*%
%TO.N,Net-(U1-MOSI{slash}D7)*%
X101475000Y-87225000D03*
%TD*%
D27*
%TO.P,PS1,1,AC/L*%
%TO.N,Net-(J1-Pin_2)*%
X143622500Y-60507500D03*
D28*
%TO.P,PS1,2,AC/N*%
%TO.N,Net-(J1-Pin_1)*%
X143622500Y-55507500D03*
%TO.P,PS1,3,-Vout*%
%TO.N,Net-(D2-K)*%
X114542500Y-65507500D03*
%TO.P,PS1,4,+Vout*%
%TO.N,Net-(D1-A)*%
X114542500Y-50507500D03*
%TD*%
D29*
%TO.P,REF\u002A\u002A,6*%
%TO.N,Net-(J1-Pin_2)*%
X149842500Y-73260000D03*
%TO.P,REF\u002A\u002A,5*%
%TO.N,N/C*%
X149842500Y-75800000D03*
%TO.P,REF\u002A\u002A,4*%
%TO.N,Net-(Q1-G)*%
X149842500Y-78340000D03*
%TO.P,REF\u002A\u002A,3*%
%TO.N,N/C*%
X142222500Y-78340000D03*
%TO.P,REF\u002A\u002A,2*%
%TO.N,Net-(D2-K)*%
X142222500Y-75800000D03*
D30*
%TO.P,REF\u002A\u002A,1*%
%TO.N,Net-(U1-SDA{slash}D2)*%
X142222500Y-73260000D03*
%TD*%
D31*
%TO.N,unconnected-(U1-D4-Pad11)*%
X104400000Y-98225000D02*
X101435000Y-98225000D01*
X107925000Y-101750000D02*
X104400000Y-98225000D01*
X139825000Y-93450000D02*
X139825000Y-101625000D01*
X139825000Y-101625000D02*
X139700000Y-101750000D01*
X139700000Y-101750000D02*
X107925000Y-101750000D01*
X139815000Y-93460000D02*
X139825000Y-93450000D01*
X134900000Y-93460000D02*
X139815000Y-93460000D01*
%TO.N,Net-(D2-K)*%
X142725000Y-75800000D02*
X145250000Y-73275000D01*
X145250000Y-73275000D02*
X145250000Y-70575000D01*
X142222500Y-75800000D02*
X142725000Y-75800000D01*
X123150000Y-65507500D02*
X123150000Y-70625000D01*
X123200000Y-70575000D02*
X123150000Y-70625000D01*
X123150000Y-70625000D02*
X123150000Y-95650000D01*
X145250000Y-70575000D02*
X123200000Y-70575000D01*
%TO.N,Net-(J2-Pin_2)*%
X152635000Y-91715000D02*
X152635000Y-102975000D01*
X160315000Y-84035000D02*
X152635000Y-91715000D01*
X160315000Y-78330000D02*
X160315000Y-84035000D01*
%TO.N,Net-(J1-Pin_2)*%
X160365000Y-74285000D02*
X159075000Y-75575000D01*
X160365000Y-73125000D02*
X160365000Y-74285000D01*
X159075000Y-75575000D02*
X157315000Y-77335000D01*
X157315000Y-77335000D02*
X157315000Y-78330000D01*
%TO.N,Net-(D1-A)*%
X104925000Y-50495000D02*
X114530000Y-50495000D01*
%TO.N,Net-(D1-K)*%
X116925000Y-75975000D02*
X119425000Y-78475000D01*
X110525000Y-75975000D02*
X116925000Y-75975000D01*
X104925000Y-60655000D02*
X104925000Y-70375000D01*
X119940000Y-98540000D02*
X134965000Y-98540000D01*
X119425000Y-98025000D02*
X119940000Y-98540000D01*
X104925000Y-70375000D02*
X110525000Y-75975000D01*
X119425000Y-78475000D02*
X119425000Y-98025000D01*
%TO.N,Net-(J1-Pin_2)*%
X153625000Y-50575000D02*
X138700000Y-50575000D01*
X143622500Y-60507500D02*
X155857500Y-60507500D01*
X155857500Y-60507500D02*
X160365000Y-65015000D01*
X138675000Y-50550000D02*
X138675000Y-60375000D01*
X138807500Y-60507500D02*
X143622500Y-60507500D01*
X160365000Y-65015000D02*
X160365000Y-73125000D01*
X149842500Y-73260000D02*
X155150000Y-73260000D01*
%TO.N,Net-(J1-Pin_1)*%
X158705000Y-55507500D02*
X163107500Y-55507500D01*
X163275000Y-55675000D02*
X163775000Y-56175000D01*
X163775000Y-56175000D02*
X163775000Y-96915000D01*
X158705000Y-55507500D02*
X158705000Y-50575000D01*
X163775000Y-96915000D02*
X157715000Y-102975000D01*
X143622500Y-55507500D02*
X158705000Y-55507500D01*
%TO.N,Net-(D2-K)*%
X88425000Y-81775000D02*
X93875000Y-87225000D01*
X123150000Y-45600000D02*
X123150000Y-65507500D01*
X95000000Y-88350000D02*
X93875000Y-87225000D01*
X123500000Y-96000000D02*
X134965000Y-96000000D01*
X91250000Y-52555000D02*
X98685000Y-52555000D01*
X98800000Y-45475000D02*
X123025000Y-45475000D01*
X98700000Y-52570000D02*
X98700000Y-45575000D01*
X90670000Y-52555000D02*
X88425000Y-54800000D01*
X114542500Y-65507500D02*
X123150000Y-65507500D01*
X91250000Y-66220000D02*
X91250000Y-57635000D01*
X88425000Y-54800000D02*
X88425000Y-81775000D01*
X98700000Y-66235000D02*
X98700000Y-57650000D01*
X88960000Y-103250000D02*
X94975000Y-103250000D01*
X95000000Y-103225000D02*
X95000000Y-88350000D01*
%TO.N,Net-(Q1-G)*%
X149842500Y-78340000D02*
X154305000Y-78340000D01*
%TO.N,Net-(U1-MOSI{slash}D7)*%
X101660000Y-93460000D02*
X112040000Y-93460000D01*
X101475000Y-87225000D02*
X101475000Y-93275000D01*
%TO.N,Net-(U1-SCK{slash}D5)*%
X104445000Y-77495000D02*
X108125000Y-81175000D01*
X98700000Y-71315000D02*
X98700000Y-77495000D01*
X108125000Y-84868574D02*
X111636426Y-88380000D01*
X98700000Y-77495000D02*
X104445000Y-77495000D01*
X108125000Y-81175000D02*
X108125000Y-84868574D01*
%TO.N,Net-(U1-MISO{slash}D6)*%
X91250000Y-77500000D02*
X91250000Y-71300000D01*
X105750000Y-82675000D02*
X103050000Y-79975000D01*
X105750000Y-90625000D02*
X105750000Y-82675000D01*
X112040000Y-90920000D02*
X106045000Y-90920000D01*
X93725000Y-79975000D02*
X91250000Y-77500000D01*
X103050000Y-79975000D02*
X93725000Y-79975000D01*
%TO.N,Net-(U1-SDA{slash}D2)*%
X141485000Y-83360000D02*
X138975000Y-80850000D01*
X138975000Y-76200000D02*
X141915000Y-73260000D01*
X134900000Y-88380000D02*
X143640000Y-88380000D01*
X138975000Y-80850000D02*
X138975000Y-76200000D01*
X143700000Y-83360000D02*
X141485000Y-83360000D01*
%TD*%
M02*
