%TF.GenerationSoftware,KiCad,Pcbnew,8.0.0*%
%TF.CreationDate,2024-09-22T00:05:50+06:00*%
%TF.ProjectId,auto light,6175746f-206c-4696-9768-742e6b696361,02*%
%TF.SameCoordinates,Original*%
%TF.FileFunction,Copper,L2,Bot*%
%TF.FilePolarity,Positive*%
%FSLAX46Y46*%
G04 Gerber Fmt 4.6, Leading zero omitted, Abs format (unit mm)*
G04 Created by KiCad (PCBNEW 8.0.0) date 2024-09-22 00:05:50*
%MOMM*%
%LPD*%
G01*
G04 APERTURE LIST*
%ADD10C,0.100000*%
%ADD11C,0.150000*%
%ADD12C,0.300000*%
%ADD13C,0.400000*%
%TA.AperFunction,NonConductor*%
%ADD14C,0.200000*%
%TD*%
%TA.AperFunction,ComponentPad*%
%ADD15R,2.000000X2.000000*%
%TD*%
%TA.AperFunction,ComponentPad*%
%ADD16O,2.000000X1.600000*%
%TD*%
%TA.AperFunction,ComponentPad*%
%ADD17C,2.000000*%
%TD*%
%TA.AperFunction,ComponentPad*%
%ADD18R,2.200000X2.200000*%
%TD*%
%TA.AperFunction,ComponentPad*%
%ADD19O,2.200000X2.200000*%
%TD*%
%TA.AperFunction,ComponentPad*%
%ADD20R,1.905000X2.000000*%
%TD*%
%TA.AperFunction,ComponentPad*%
%ADD21O,1.905000X2.000000*%
%TD*%
%TA.AperFunction,ComponentPad*%
%ADD22R,3.000000X3.000000*%
%TD*%
%TA.AperFunction,ComponentPad*%
%ADD23C,3.000000*%
%TD*%
%TA.AperFunction,ComponentPad*%
%ADD24O,3.048000X1.850000*%
%TD*%
%TA.AperFunction,ComponentPad*%
%ADD25C,1.600000*%
%TD*%
%TA.AperFunction,ComponentPad*%
%ADD26R,1.700000X2.000000*%
%TD*%
%TA.AperFunction,ComponentPad*%
%ADD27O,1.700000X2.000000*%
%TD*%
%TA.AperFunction,ComponentPad*%
%ADD28C,1.260000*%
%TD*%
%TA.AperFunction,ComponentPad*%
%ADD29R,1.260000X1.260000*%
%TD*%
%TA.AperFunction,Conductor*%
%ADD30C,0.760000*%
%TD*%
G04 APERTURE END LIST*
D10*
D11*
X177002200Y-166007200D02*
X285002200Y-166007200D01*
X285002200Y-198007200D01*
X177002200Y-198007200D01*
X177002200Y-166007200D01*
D10*
D11*
X10000000Y-10000000D02*
X287002200Y-10000000D01*
X287002200Y-200007200D01*
X10000000Y-200007200D01*
X10000000Y-10000000D01*
D10*
D11*
X12000000Y-12000000D02*
X285002200Y-12000000D01*
X285002200Y-198007200D01*
X12000000Y-198007200D01*
X12000000Y-12000000D01*
D10*
D11*
X60000000Y-12000000D02*
X60000000Y-10000000D01*
D10*
D11*
X110000000Y-12000000D02*
X110000000Y-10000000D01*
D10*
D11*
X160000000Y-12000000D02*
X160000000Y-10000000D01*
D10*
D11*
X210000000Y-12000000D02*
X210000000Y-10000000D01*
D10*
D11*
X260000000Y-12000000D02*
X260000000Y-10000000D01*
D10*
D11*
X36089160Y-11593604D02*
X35346303Y-11593604D01*
X35717731Y-11593604D02*
X35717731Y-10293604D01*
X35717731Y-10293604D02*
X35593922Y-10479319D01*
X35593922Y-10479319D02*
X35470112Y-10603128D01*
X35470112Y-10603128D02*
X35346303Y-10665033D01*
D10*
D11*
X85346303Y-10417414D02*
X85408207Y-10355509D01*
X85408207Y-10355509D02*
X85532017Y-10293604D01*
X85532017Y-10293604D02*
X85841541Y-10293604D01*
X85841541Y-10293604D02*
X85965350Y-10355509D01*
X85965350Y-10355509D02*
X86027255Y-10417414D01*
X86027255Y-10417414D02*
X86089160Y-10541223D01*
X86089160Y-10541223D02*
X86089160Y-10665033D01*
X86089160Y-10665033D02*
X86027255Y-10850747D01*
X86027255Y-10850747D02*
X85284398Y-11593604D01*
X85284398Y-11593604D02*
X86089160Y-11593604D01*
D10*
D11*
X135284398Y-10293604D02*
X136089160Y-10293604D01*
X136089160Y-10293604D02*
X135655826Y-10788842D01*
X135655826Y-10788842D02*
X135841541Y-10788842D01*
X135841541Y-10788842D02*
X135965350Y-10850747D01*
X135965350Y-10850747D02*
X136027255Y-10912652D01*
X136027255Y-10912652D02*
X136089160Y-11036461D01*
X136089160Y-11036461D02*
X136089160Y-11345985D01*
X136089160Y-11345985D02*
X136027255Y-11469795D01*
X136027255Y-11469795D02*
X135965350Y-11531700D01*
X135965350Y-11531700D02*
X135841541Y-11593604D01*
X135841541Y-11593604D02*
X135470112Y-11593604D01*
X135470112Y-11593604D02*
X135346303Y-11531700D01*
X135346303Y-11531700D02*
X135284398Y-11469795D01*
D10*
D11*
X185965350Y-10726938D02*
X185965350Y-11593604D01*
X185655826Y-10231700D02*
X185346303Y-11160271D01*
X185346303Y-11160271D02*
X186151064Y-11160271D01*
D10*
D11*
X236027255Y-10293604D02*
X235408207Y-10293604D01*
X235408207Y-10293604D02*
X235346303Y-10912652D01*
X235346303Y-10912652D02*
X235408207Y-10850747D01*
X235408207Y-10850747D02*
X235532017Y-10788842D01*
X235532017Y-10788842D02*
X235841541Y-10788842D01*
X235841541Y-10788842D02*
X235965350Y-10850747D01*
X235965350Y-10850747D02*
X236027255Y-10912652D01*
X236027255Y-10912652D02*
X236089160Y-11036461D01*
X236089160Y-11036461D02*
X236089160Y-11345985D01*
X236089160Y-11345985D02*
X236027255Y-11469795D01*
X236027255Y-11469795D02*
X235965350Y-11531700D01*
X235965350Y-11531700D02*
X235841541Y-11593604D01*
X235841541Y-11593604D02*
X235532017Y-11593604D01*
X235532017Y-11593604D02*
X235408207Y-11531700D01*
X235408207Y-11531700D02*
X235346303Y-11469795D01*
D10*
D11*
X285965350Y-10293604D02*
X285717731Y-10293604D01*
X285717731Y-10293604D02*
X285593922Y-10355509D01*
X285593922Y-10355509D02*
X285532017Y-10417414D01*
X285532017Y-10417414D02*
X285408207Y-10603128D01*
X285408207Y-10603128D02*
X285346303Y-10850747D01*
X285346303Y-10850747D02*
X285346303Y-11345985D01*
X285346303Y-11345985D02*
X285408207Y-11469795D01*
X285408207Y-11469795D02*
X285470112Y-11531700D01*
X285470112Y-11531700D02*
X285593922Y-11593604D01*
X285593922Y-11593604D02*
X285841541Y-11593604D01*
X285841541Y-11593604D02*
X285965350Y-11531700D01*
X285965350Y-11531700D02*
X286027255Y-11469795D01*
X286027255Y-11469795D02*
X286089160Y-11345985D01*
X286089160Y-11345985D02*
X286089160Y-11036461D01*
X286089160Y-11036461D02*
X286027255Y-10912652D01*
X286027255Y-10912652D02*
X285965350Y-10850747D01*
X285965350Y-10850747D02*
X285841541Y-10788842D01*
X285841541Y-10788842D02*
X285593922Y-10788842D01*
X285593922Y-10788842D02*
X285470112Y-10850747D01*
X285470112Y-10850747D02*
X285408207Y-10912652D01*
X285408207Y-10912652D02*
X285346303Y-11036461D01*
D10*
D11*
X60000000Y-198007200D02*
X60000000Y-200007200D01*
D10*
D11*
X110000000Y-198007200D02*
X110000000Y-200007200D01*
D10*
D11*
X160000000Y-198007200D02*
X160000000Y-200007200D01*
D10*
D11*
X210000000Y-198007200D02*
X210000000Y-200007200D01*
D10*
D11*
X260000000Y-198007200D02*
X260000000Y-200007200D01*
D10*
D11*
X36089160Y-199600804D02*
X35346303Y-199600804D01*
X35717731Y-199600804D02*
X35717731Y-198300804D01*
X35717731Y-198300804D02*
X35593922Y-198486519D01*
X35593922Y-198486519D02*
X35470112Y-198610328D01*
X35470112Y-198610328D02*
X35346303Y-198672233D01*
D10*
D11*
X85346303Y-198424614D02*
X85408207Y-198362709D01*
X85408207Y-198362709D02*
X85532017Y-198300804D01*
X85532017Y-198300804D02*
X85841541Y-198300804D01*
X85841541Y-198300804D02*
X85965350Y-198362709D01*
X85965350Y-198362709D02*
X86027255Y-198424614D01*
X86027255Y-198424614D02*
X86089160Y-198548423D01*
X86089160Y-198548423D02*
X86089160Y-198672233D01*
X86089160Y-198672233D02*
X86027255Y-198857947D01*
X86027255Y-198857947D02*
X85284398Y-199600804D01*
X85284398Y-199600804D02*
X86089160Y-199600804D01*
D10*
D11*
X135284398Y-198300804D02*
X136089160Y-198300804D01*
X136089160Y-198300804D02*
X135655826Y-198796042D01*
X135655826Y-198796042D02*
X135841541Y-198796042D01*
X135841541Y-198796042D02*
X135965350Y-198857947D01*
X135965350Y-198857947D02*
X136027255Y-198919852D01*
X136027255Y-198919852D02*
X136089160Y-199043661D01*
X136089160Y-199043661D02*
X136089160Y-199353185D01*
X136089160Y-199353185D02*
X136027255Y-199476995D01*
X136027255Y-199476995D02*
X135965350Y-199538900D01*
X135965350Y-199538900D02*
X135841541Y-199600804D01*
X135841541Y-199600804D02*
X135470112Y-199600804D01*
X135470112Y-199600804D02*
X135346303Y-199538900D01*
X135346303Y-199538900D02*
X135284398Y-199476995D01*
D10*
D11*
X185965350Y-198734138D02*
X185965350Y-199600804D01*
X185655826Y-198238900D02*
X185346303Y-199167471D01*
X185346303Y-199167471D02*
X186151064Y-199167471D01*
D10*
D11*
X236027255Y-198300804D02*
X235408207Y-198300804D01*
X235408207Y-198300804D02*
X235346303Y-198919852D01*
X235346303Y-198919852D02*
X235408207Y-198857947D01*
X235408207Y-198857947D02*
X235532017Y-198796042D01*
X235532017Y-198796042D02*
X235841541Y-198796042D01*
X235841541Y-198796042D02*
X235965350Y-198857947D01*
X235965350Y-198857947D02*
X236027255Y-198919852D01*
X236027255Y-198919852D02*
X236089160Y-199043661D01*
X236089160Y-199043661D02*
X236089160Y-199353185D01*
X236089160Y-199353185D02*
X236027255Y-199476995D01*
X236027255Y-199476995D02*
X235965350Y-199538900D01*
X235965350Y-199538900D02*
X235841541Y-199600804D01*
X235841541Y-199600804D02*
X235532017Y-199600804D01*
X235532017Y-199600804D02*
X235408207Y-199538900D01*
X235408207Y-199538900D02*
X235346303Y-199476995D01*
D10*
D11*
X285965350Y-198300804D02*
X285717731Y-198300804D01*
X285717731Y-198300804D02*
X285593922Y-198362709D01*
X285593922Y-198362709D02*
X285532017Y-198424614D01*
X285532017Y-198424614D02*
X285408207Y-198610328D01*
X285408207Y-198610328D02*
X285346303Y-198857947D01*
X285346303Y-198857947D02*
X285346303Y-199353185D01*
X285346303Y-199353185D02*
X285408207Y-199476995D01*
X285408207Y-199476995D02*
X285470112Y-199538900D01*
X285470112Y-199538900D02*
X285593922Y-199600804D01*
X285593922Y-199600804D02*
X285841541Y-199600804D01*
X285841541Y-199600804D02*
X285965350Y-199538900D01*
X285965350Y-199538900D02*
X286027255Y-199476995D01*
X286027255Y-199476995D02*
X286089160Y-199353185D01*
X286089160Y-199353185D02*
X286089160Y-199043661D01*
X286089160Y-199043661D02*
X286027255Y-198919852D01*
X286027255Y-198919852D02*
X285965350Y-198857947D01*
X285965350Y-198857947D02*
X285841541Y-198796042D01*
X285841541Y-198796042D02*
X285593922Y-198796042D01*
X285593922Y-198796042D02*
X285470112Y-198857947D01*
X285470112Y-198857947D02*
X285408207Y-198919852D01*
X285408207Y-198919852D02*
X285346303Y-199043661D01*
D10*
D11*
X10000000Y-60000000D02*
X12000000Y-60000000D01*
D10*
D11*
X10000000Y-110000000D02*
X12000000Y-110000000D01*
D10*
D11*
X10000000Y-160000000D02*
X12000000Y-160000000D01*
D10*
D11*
X10690476Y-35222176D02*
X11309523Y-35222176D01*
X10566666Y-35593604D02*
X10999999Y-34293604D01*
X10999999Y-34293604D02*
X11433333Y-35593604D01*
D10*
D11*
X11092857Y-84912652D02*
X11278571Y-84974557D01*
X11278571Y-84974557D02*
X11340476Y-85036461D01*
X11340476Y-85036461D02*
X11402380Y-85160271D01*
X11402380Y-85160271D02*
X11402380Y-85345985D01*
X11402380Y-85345985D02*
X11340476Y-85469795D01*
X11340476Y-85469795D02*
X11278571Y-85531700D01*
X11278571Y-85531700D02*
X11154761Y-85593604D01*
X11154761Y-85593604D02*
X10659523Y-85593604D01*
X10659523Y-85593604D02*
X10659523Y-84293604D01*
X10659523Y-84293604D02*
X11092857Y-84293604D01*
X11092857Y-84293604D02*
X11216666Y-84355509D01*
X11216666Y-84355509D02*
X11278571Y-84417414D01*
X11278571Y-84417414D02*
X11340476Y-84541223D01*
X11340476Y-84541223D02*
X11340476Y-84665033D01*
X11340476Y-84665033D02*
X11278571Y-84788842D01*
X11278571Y-84788842D02*
X11216666Y-84850747D01*
X11216666Y-84850747D02*
X11092857Y-84912652D01*
X11092857Y-84912652D02*
X10659523Y-84912652D01*
D10*
D11*
X11402380Y-135469795D02*
X11340476Y-135531700D01*
X11340476Y-135531700D02*
X11154761Y-135593604D01*
X11154761Y-135593604D02*
X11030952Y-135593604D01*
X11030952Y-135593604D02*
X10845238Y-135531700D01*
X10845238Y-135531700D02*
X10721428Y-135407890D01*
X10721428Y-135407890D02*
X10659523Y-135284080D01*
X10659523Y-135284080D02*
X10597619Y-135036461D01*
X10597619Y-135036461D02*
X10597619Y-134850747D01*
X10597619Y-134850747D02*
X10659523Y-134603128D01*
X10659523Y-134603128D02*
X10721428Y-134479319D01*
X10721428Y-134479319D02*
X10845238Y-134355509D01*
X10845238Y-134355509D02*
X11030952Y-134293604D01*
X11030952Y-134293604D02*
X11154761Y-134293604D01*
X11154761Y-134293604D02*
X11340476Y-134355509D01*
X11340476Y-134355509D02*
X11402380Y-134417414D01*
D10*
D11*
X10659523Y-185593604D02*
X10659523Y-184293604D01*
X10659523Y-184293604D02*
X10969047Y-184293604D01*
X10969047Y-184293604D02*
X11154761Y-184355509D01*
X11154761Y-184355509D02*
X11278571Y-184479319D01*
X11278571Y-184479319D02*
X11340476Y-184603128D01*
X11340476Y-184603128D02*
X11402380Y-184850747D01*
X11402380Y-184850747D02*
X11402380Y-185036461D01*
X11402380Y-185036461D02*
X11340476Y-185284080D01*
X11340476Y-185284080D02*
X11278571Y-185407890D01*
X11278571Y-185407890D02*
X11154761Y-185531700D01*
X11154761Y-185531700D02*
X10969047Y-185593604D01*
X10969047Y-185593604D02*
X10659523Y-185593604D01*
D10*
D11*
X287002200Y-60000000D02*
X285002200Y-60000000D01*
D10*
D11*
X287002200Y-110000000D02*
X285002200Y-110000000D01*
D10*
D11*
X287002200Y-160000000D02*
X285002200Y-160000000D01*
D10*
D11*
X285692676Y-35222176D02*
X286311723Y-35222176D01*
X285568866Y-35593604D02*
X286002199Y-34293604D01*
X286002199Y-34293604D02*
X286435533Y-35593604D01*
D10*
D11*
X286095057Y-84912652D02*
X286280771Y-84974557D01*
X286280771Y-84974557D02*
X286342676Y-85036461D01*
X286342676Y-85036461D02*
X286404580Y-85160271D01*
X286404580Y-85160271D02*
X286404580Y-85345985D01*
X286404580Y-85345985D02*
X286342676Y-85469795D01*
X286342676Y-85469795D02*
X286280771Y-85531700D01*
X286280771Y-85531700D02*
X286156961Y-85593604D01*
X286156961Y-85593604D02*
X285661723Y-85593604D01*
X285661723Y-85593604D02*
X285661723Y-84293604D01*
X285661723Y-84293604D02*
X286095057Y-84293604D01*
X286095057Y-84293604D02*
X286218866Y-84355509D01*
X286218866Y-84355509D02*
X286280771Y-84417414D01*
X286280771Y-84417414D02*
X286342676Y-84541223D01*
X286342676Y-84541223D02*
X286342676Y-84665033D01*
X286342676Y-84665033D02*
X286280771Y-84788842D01*
X286280771Y-84788842D02*
X286218866Y-84850747D01*
X286218866Y-84850747D02*
X286095057Y-84912652D01*
X286095057Y-84912652D02*
X285661723Y-84912652D01*
D10*
D11*
X286404580Y-135469795D02*
X286342676Y-135531700D01*
X286342676Y-135531700D02*
X286156961Y-135593604D01*
X286156961Y-135593604D02*
X286033152Y-135593604D01*
X286033152Y-135593604D02*
X285847438Y-135531700D01*
X285847438Y-135531700D02*
X285723628Y-135407890D01*
X285723628Y-135407890D02*
X285661723Y-135284080D01*
X285661723Y-135284080D02*
X285599819Y-135036461D01*
X285599819Y-135036461D02*
X285599819Y-134850747D01*
X285599819Y-134850747D02*
X285661723Y-134603128D01*
X285661723Y-134603128D02*
X285723628Y-134479319D01*
X285723628Y-134479319D02*
X285847438Y-134355509D01*
X285847438Y-134355509D02*
X286033152Y-134293604D01*
X286033152Y-134293604D02*
X286156961Y-134293604D01*
X286156961Y-134293604D02*
X286342676Y-134355509D01*
X286342676Y-134355509D02*
X286404580Y-134417414D01*
D10*
D11*
X285661723Y-185593604D02*
X285661723Y-184293604D01*
X285661723Y-184293604D02*
X285971247Y-184293604D01*
X285971247Y-184293604D02*
X286156961Y-184355509D01*
X286156961Y-184355509D02*
X286280771Y-184479319D01*
X286280771Y-184479319D02*
X286342676Y-184603128D01*
X286342676Y-184603128D02*
X286404580Y-184850747D01*
X286404580Y-184850747D02*
X286404580Y-185036461D01*
X286404580Y-185036461D02*
X286342676Y-185284080D01*
X286342676Y-185284080D02*
X286280771Y-185407890D01*
X286280771Y-185407890D02*
X286156961Y-185531700D01*
X286156961Y-185531700D02*
X285971247Y-185593604D01*
X285971247Y-185593604D02*
X285661723Y-185593604D01*
D10*
D11*
X200458026Y-193793328D02*
X200458026Y-192293328D01*
X200458026Y-192293328D02*
X200815169Y-192293328D01*
X200815169Y-192293328D02*
X201029455Y-192364757D01*
X201029455Y-192364757D02*
X201172312Y-192507614D01*
X201172312Y-192507614D02*
X201243741Y-192650471D01*
X201243741Y-192650471D02*
X201315169Y-192936185D01*
X201315169Y-192936185D02*
X201315169Y-193150471D01*
X201315169Y-193150471D02*
X201243741Y-193436185D01*
X201243741Y-193436185D02*
X201172312Y-193579042D01*
X201172312Y-193579042D02*
X201029455Y-193721900D01*
X201029455Y-193721900D02*
X200815169Y-193793328D01*
X200815169Y-193793328D02*
X200458026Y-193793328D01*
X202600884Y-193793328D02*
X202600884Y-193007614D01*
X202600884Y-193007614D02*
X202529455Y-192864757D01*
X202529455Y-192864757D02*
X202386598Y-192793328D01*
X202386598Y-192793328D02*
X202100884Y-192793328D01*
X202100884Y-192793328D02*
X201958026Y-192864757D01*
X202600884Y-193721900D02*
X202458026Y-193793328D01*
X202458026Y-193793328D02*
X202100884Y-193793328D01*
X202100884Y-193793328D02*
X201958026Y-193721900D01*
X201958026Y-193721900D02*
X201886598Y-193579042D01*
X201886598Y-193579042D02*
X201886598Y-193436185D01*
X201886598Y-193436185D02*
X201958026Y-193293328D01*
X201958026Y-193293328D02*
X202100884Y-193221900D01*
X202100884Y-193221900D02*
X202458026Y-193221900D01*
X202458026Y-193221900D02*
X202600884Y-193150471D01*
X203100884Y-192793328D02*
X203672312Y-192793328D01*
X203315169Y-192293328D02*
X203315169Y-193579042D01*
X203315169Y-193579042D02*
X203386598Y-193721900D01*
X203386598Y-193721900D02*
X203529455Y-193793328D01*
X203529455Y-193793328D02*
X203672312Y-193793328D01*
X204743741Y-193721900D02*
X204600884Y-193793328D01*
X204600884Y-193793328D02*
X204315170Y-193793328D01*
X204315170Y-193793328D02*
X204172312Y-193721900D01*
X204172312Y-193721900D02*
X204100884Y-193579042D01*
X204100884Y-193579042D02*
X204100884Y-193007614D01*
X204100884Y-193007614D02*
X204172312Y-192864757D01*
X204172312Y-192864757D02*
X204315170Y-192793328D01*
X204315170Y-192793328D02*
X204600884Y-192793328D01*
X204600884Y-192793328D02*
X204743741Y-192864757D01*
X204743741Y-192864757D02*
X204815170Y-193007614D01*
X204815170Y-193007614D02*
X204815170Y-193150471D01*
X204815170Y-193150471D02*
X204100884Y-193293328D01*
X205458026Y-193650471D02*
X205529455Y-193721900D01*
X205529455Y-193721900D02*
X205458026Y-193793328D01*
X205458026Y-193793328D02*
X205386598Y-193721900D01*
X205386598Y-193721900D02*
X205458026Y-193650471D01*
X205458026Y-193650471D02*
X205458026Y-193793328D01*
X205458026Y-192864757D02*
X205529455Y-192936185D01*
X205529455Y-192936185D02*
X205458026Y-193007614D01*
X205458026Y-193007614D02*
X205386598Y-192936185D01*
X205386598Y-192936185D02*
X205458026Y-192864757D01*
X205458026Y-192864757D02*
X205458026Y-193007614D01*
X207243741Y-192436185D02*
X207315169Y-192364757D01*
X207315169Y-192364757D02*
X207458027Y-192293328D01*
X207458027Y-192293328D02*
X207815169Y-192293328D01*
X207815169Y-192293328D02*
X207958027Y-192364757D01*
X207958027Y-192364757D02*
X208029455Y-192436185D01*
X208029455Y-192436185D02*
X208100884Y-192579042D01*
X208100884Y-192579042D02*
X208100884Y-192721900D01*
X208100884Y-192721900D02*
X208029455Y-192936185D01*
X208029455Y-192936185D02*
X207172312Y-193793328D01*
X207172312Y-193793328D02*
X208100884Y-193793328D01*
X209029455Y-192293328D02*
X209172312Y-192293328D01*
X209172312Y-192293328D02*
X209315169Y-192364757D01*
X209315169Y-192364757D02*
X209386598Y-192436185D01*
X209386598Y-192436185D02*
X209458026Y-192579042D01*
X209458026Y-192579042D02*
X209529455Y-192864757D01*
X209529455Y-192864757D02*
X209529455Y-193221900D01*
X209529455Y-193221900D02*
X209458026Y-193507614D01*
X209458026Y-193507614D02*
X209386598Y-193650471D01*
X209386598Y-193650471D02*
X209315169Y-193721900D01*
X209315169Y-193721900D02*
X209172312Y-193793328D01*
X209172312Y-193793328D02*
X209029455Y-193793328D01*
X209029455Y-193793328D02*
X208886598Y-193721900D01*
X208886598Y-193721900D02*
X208815169Y-193650471D01*
X208815169Y-193650471D02*
X208743740Y-193507614D01*
X208743740Y-193507614D02*
X208672312Y-193221900D01*
X208672312Y-193221900D02*
X208672312Y-192864757D01*
X208672312Y-192864757D02*
X208743740Y-192579042D01*
X208743740Y-192579042D02*
X208815169Y-192436185D01*
X208815169Y-192436185D02*
X208886598Y-192364757D01*
X208886598Y-192364757D02*
X209029455Y-192293328D01*
X210100883Y-192436185D02*
X210172311Y-192364757D01*
X210172311Y-192364757D02*
X210315169Y-192293328D01*
X210315169Y-192293328D02*
X210672311Y-192293328D01*
X210672311Y-192293328D02*
X210815169Y-192364757D01*
X210815169Y-192364757D02*
X210886597Y-192436185D01*
X210886597Y-192436185D02*
X210958026Y-192579042D01*
X210958026Y-192579042D02*
X210958026Y-192721900D01*
X210958026Y-192721900D02*
X210886597Y-192936185D01*
X210886597Y-192936185D02*
X210029454Y-193793328D01*
X210029454Y-193793328D02*
X210958026Y-193793328D01*
X212243740Y-192793328D02*
X212243740Y-193793328D01*
X211886597Y-192221900D02*
X211529454Y-193293328D01*
X211529454Y-193293328D02*
X212458025Y-193293328D01*
X214100882Y-192221900D02*
X212815168Y-194150471D01*
X214886597Y-192293328D02*
X215029454Y-192293328D01*
X215029454Y-192293328D02*
X215172311Y-192364757D01*
X215172311Y-192364757D02*
X215243740Y-192436185D01*
X215243740Y-192436185D02*
X215315168Y-192579042D01*
X215315168Y-192579042D02*
X215386597Y-192864757D01*
X215386597Y-192864757D02*
X215386597Y-193221900D01*
X215386597Y-193221900D02*
X215315168Y-193507614D01*
X215315168Y-193507614D02*
X215243740Y-193650471D01*
X215243740Y-193650471D02*
X215172311Y-193721900D01*
X215172311Y-193721900D02*
X215029454Y-193793328D01*
X215029454Y-193793328D02*
X214886597Y-193793328D01*
X214886597Y-193793328D02*
X214743740Y-193721900D01*
X214743740Y-193721900D02*
X214672311Y-193650471D01*
X214672311Y-193650471D02*
X214600882Y-193507614D01*
X214600882Y-193507614D02*
X214529454Y-193221900D01*
X214529454Y-193221900D02*
X214529454Y-192864757D01*
X214529454Y-192864757D02*
X214600882Y-192579042D01*
X214600882Y-192579042D02*
X214672311Y-192436185D01*
X214672311Y-192436185D02*
X214743740Y-192364757D01*
X214743740Y-192364757D02*
X214886597Y-192293328D01*
X216100882Y-193793328D02*
X216386596Y-193793328D01*
X216386596Y-193793328D02*
X216529453Y-193721900D01*
X216529453Y-193721900D02*
X216600882Y-193650471D01*
X216600882Y-193650471D02*
X216743739Y-193436185D01*
X216743739Y-193436185D02*
X216815168Y-193150471D01*
X216815168Y-193150471D02*
X216815168Y-192579042D01*
X216815168Y-192579042D02*
X216743739Y-192436185D01*
X216743739Y-192436185D02*
X216672311Y-192364757D01*
X216672311Y-192364757D02*
X216529453Y-192293328D01*
X216529453Y-192293328D02*
X216243739Y-192293328D01*
X216243739Y-192293328D02*
X216100882Y-192364757D01*
X216100882Y-192364757D02*
X216029453Y-192436185D01*
X216029453Y-192436185D02*
X215958025Y-192579042D01*
X215958025Y-192579042D02*
X215958025Y-192936185D01*
X215958025Y-192936185D02*
X216029453Y-193079042D01*
X216029453Y-193079042D02*
X216100882Y-193150471D01*
X216100882Y-193150471D02*
X216243739Y-193221900D01*
X216243739Y-193221900D02*
X216529453Y-193221900D01*
X216529453Y-193221900D02*
X216672311Y-193150471D01*
X216672311Y-193150471D02*
X216743739Y-193079042D01*
X216743739Y-193079042D02*
X216815168Y-192936185D01*
X218529453Y-192221900D02*
X217243739Y-194150471D01*
X218958025Y-192436185D02*
X219029453Y-192364757D01*
X219029453Y-192364757D02*
X219172311Y-192293328D01*
X219172311Y-192293328D02*
X219529453Y-192293328D01*
X219529453Y-192293328D02*
X219672311Y-192364757D01*
X219672311Y-192364757D02*
X219743739Y-192436185D01*
X219743739Y-192436185D02*
X219815168Y-192579042D01*
X219815168Y-192579042D02*
X219815168Y-192721900D01*
X219815168Y-192721900D02*
X219743739Y-192936185D01*
X219743739Y-192936185D02*
X218886596Y-193793328D01*
X218886596Y-193793328D02*
X219815168Y-193793328D01*
X220386596Y-192436185D02*
X220458024Y-192364757D01*
X220458024Y-192364757D02*
X220600882Y-192293328D01*
X220600882Y-192293328D02*
X220958024Y-192293328D01*
X220958024Y-192293328D02*
X221100882Y-192364757D01*
X221100882Y-192364757D02*
X221172310Y-192436185D01*
X221172310Y-192436185D02*
X221243739Y-192579042D01*
X221243739Y-192579042D02*
X221243739Y-192721900D01*
X221243739Y-192721900D02*
X221172310Y-192936185D01*
X221172310Y-192936185D02*
X220315167Y-193793328D01*
X220315167Y-193793328D02*
X221243739Y-193793328D01*
D10*
D11*
X177002200Y-194507200D02*
X285002200Y-194507200D01*
D10*
D11*
X178458026Y-196593328D02*
X178458026Y-195093328D01*
X179315169Y-196593328D02*
X178672312Y-195736185D01*
X179315169Y-195093328D02*
X178458026Y-195950471D01*
X179958026Y-196593328D02*
X179958026Y-195593328D01*
X179958026Y-195093328D02*
X179886598Y-195164757D01*
X179886598Y-195164757D02*
X179958026Y-195236185D01*
X179958026Y-195236185D02*
X180029455Y-195164757D01*
X180029455Y-195164757D02*
X179958026Y-195093328D01*
X179958026Y-195093328D02*
X179958026Y-195236185D01*
X181529455Y-196450471D02*
X181458027Y-196521900D01*
X181458027Y-196521900D02*
X181243741Y-196593328D01*
X181243741Y-196593328D02*
X181100884Y-196593328D01*
X181100884Y-196593328D02*
X180886598Y-196521900D01*
X180886598Y-196521900D02*
X180743741Y-196379042D01*
X180743741Y-196379042D02*
X180672312Y-196236185D01*
X180672312Y-196236185D02*
X180600884Y-195950471D01*
X180600884Y-195950471D02*
X180600884Y-195736185D01*
X180600884Y-195736185D02*
X180672312Y-195450471D01*
X180672312Y-195450471D02*
X180743741Y-195307614D01*
X180743741Y-195307614D02*
X180886598Y-195164757D01*
X180886598Y-195164757D02*
X181100884Y-195093328D01*
X181100884Y-195093328D02*
X181243741Y-195093328D01*
X181243741Y-195093328D02*
X181458027Y-195164757D01*
X181458027Y-195164757D02*
X181529455Y-195236185D01*
X182815170Y-196593328D02*
X182815170Y-195807614D01*
X182815170Y-195807614D02*
X182743741Y-195664757D01*
X182743741Y-195664757D02*
X182600884Y-195593328D01*
X182600884Y-195593328D02*
X182315170Y-195593328D01*
X182315170Y-195593328D02*
X182172312Y-195664757D01*
X182815170Y-196521900D02*
X182672312Y-196593328D01*
X182672312Y-196593328D02*
X182315170Y-196593328D01*
X182315170Y-196593328D02*
X182172312Y-196521900D01*
X182172312Y-196521900D02*
X182100884Y-196379042D01*
X182100884Y-196379042D02*
X182100884Y-196236185D01*
X182100884Y-196236185D02*
X182172312Y-196093328D01*
X182172312Y-196093328D02*
X182315170Y-196021900D01*
X182315170Y-196021900D02*
X182672312Y-196021900D01*
X182672312Y-196021900D02*
X182815170Y-195950471D01*
X184172313Y-196593328D02*
X184172313Y-195093328D01*
X184172313Y-196521900D02*
X184029455Y-196593328D01*
X184029455Y-196593328D02*
X183743741Y-196593328D01*
X183743741Y-196593328D02*
X183600884Y-196521900D01*
X183600884Y-196521900D02*
X183529455Y-196450471D01*
X183529455Y-196450471D02*
X183458027Y-196307614D01*
X183458027Y-196307614D02*
X183458027Y-195879042D01*
X183458027Y-195879042D02*
X183529455Y-195736185D01*
X183529455Y-195736185D02*
X183600884Y-195664757D01*
X183600884Y-195664757D02*
X183743741Y-195593328D01*
X183743741Y-195593328D02*
X184029455Y-195593328D01*
X184029455Y-195593328D02*
X184172313Y-195664757D01*
X186029455Y-195807614D02*
X186529455Y-195807614D01*
X186743741Y-196593328D02*
X186029455Y-196593328D01*
X186029455Y-196593328D02*
X186029455Y-195093328D01*
X186029455Y-195093328D02*
X186743741Y-195093328D01*
X187386598Y-196450471D02*
X187458027Y-196521900D01*
X187458027Y-196521900D02*
X187386598Y-196593328D01*
X187386598Y-196593328D02*
X187315170Y-196521900D01*
X187315170Y-196521900D02*
X187386598Y-196450471D01*
X187386598Y-196450471D02*
X187386598Y-196593328D01*
X188100884Y-196593328D02*
X188100884Y-195093328D01*
X188100884Y-195093328D02*
X188458027Y-195093328D01*
X188458027Y-195093328D02*
X188672313Y-195164757D01*
X188672313Y-195164757D02*
X188815170Y-195307614D01*
X188815170Y-195307614D02*
X188886599Y-195450471D01*
X188886599Y-195450471D02*
X188958027Y-195736185D01*
X188958027Y-195736185D02*
X188958027Y-195950471D01*
X188958027Y-195950471D02*
X188886599Y-196236185D01*
X188886599Y-196236185D02*
X188815170Y-196379042D01*
X188815170Y-196379042D02*
X188672313Y-196521900D01*
X188672313Y-196521900D02*
X188458027Y-196593328D01*
X188458027Y-196593328D02*
X188100884Y-196593328D01*
X189600884Y-196450471D02*
X189672313Y-196521900D01*
X189672313Y-196521900D02*
X189600884Y-196593328D01*
X189600884Y-196593328D02*
X189529456Y-196521900D01*
X189529456Y-196521900D02*
X189600884Y-196450471D01*
X189600884Y-196450471D02*
X189600884Y-196593328D01*
X190243742Y-196164757D02*
X190958028Y-196164757D01*
X190100885Y-196593328D02*
X190600885Y-195093328D01*
X190600885Y-195093328D02*
X191100885Y-196593328D01*
X191600884Y-196450471D02*
X191672313Y-196521900D01*
X191672313Y-196521900D02*
X191600884Y-196593328D01*
X191600884Y-196593328D02*
X191529456Y-196521900D01*
X191529456Y-196521900D02*
X191600884Y-196450471D01*
X191600884Y-196450471D02*
X191600884Y-196593328D01*
X193672313Y-195736185D02*
X193529456Y-195664757D01*
X193529456Y-195664757D02*
X193458027Y-195593328D01*
X193458027Y-195593328D02*
X193386599Y-195450471D01*
X193386599Y-195450471D02*
X193386599Y-195379042D01*
X193386599Y-195379042D02*
X193458027Y-195236185D01*
X193458027Y-195236185D02*
X193529456Y-195164757D01*
X193529456Y-195164757D02*
X193672313Y-195093328D01*
X193672313Y-195093328D02*
X193958027Y-195093328D01*
X193958027Y-195093328D02*
X194100885Y-195164757D01*
X194100885Y-195164757D02*
X194172313Y-195236185D01*
X194172313Y-195236185D02*
X194243742Y-195379042D01*
X194243742Y-195379042D02*
X194243742Y-195450471D01*
X194243742Y-195450471D02*
X194172313Y-195593328D01*
X194172313Y-195593328D02*
X194100885Y-195664757D01*
X194100885Y-195664757D02*
X193958027Y-195736185D01*
X193958027Y-195736185D02*
X193672313Y-195736185D01*
X193672313Y-195736185D02*
X193529456Y-195807614D01*
X193529456Y-195807614D02*
X193458027Y-195879042D01*
X193458027Y-195879042D02*
X193386599Y-196021900D01*
X193386599Y-196021900D02*
X193386599Y-196307614D01*
X193386599Y-196307614D02*
X193458027Y-196450471D01*
X193458027Y-196450471D02*
X193529456Y-196521900D01*
X193529456Y-196521900D02*
X193672313Y-196593328D01*
X193672313Y-196593328D02*
X193958027Y-196593328D01*
X193958027Y-196593328D02*
X194100885Y-196521900D01*
X194100885Y-196521900D02*
X194172313Y-196450471D01*
X194172313Y-196450471D02*
X194243742Y-196307614D01*
X194243742Y-196307614D02*
X194243742Y-196021900D01*
X194243742Y-196021900D02*
X194172313Y-195879042D01*
X194172313Y-195879042D02*
X194100885Y-195807614D01*
X194100885Y-195807614D02*
X193958027Y-195736185D01*
X194886598Y-196450471D02*
X194958027Y-196521900D01*
X194958027Y-196521900D02*
X194886598Y-196593328D01*
X194886598Y-196593328D02*
X194815170Y-196521900D01*
X194815170Y-196521900D02*
X194886598Y-196450471D01*
X194886598Y-196450471D02*
X194886598Y-196593328D01*
X195886599Y-195093328D02*
X196029456Y-195093328D01*
X196029456Y-195093328D02*
X196172313Y-195164757D01*
X196172313Y-195164757D02*
X196243742Y-195236185D01*
X196243742Y-195236185D02*
X196315170Y-195379042D01*
X196315170Y-195379042D02*
X196386599Y-195664757D01*
X196386599Y-195664757D02*
X196386599Y-196021900D01*
X196386599Y-196021900D02*
X196315170Y-196307614D01*
X196315170Y-196307614D02*
X196243742Y-196450471D01*
X196243742Y-196450471D02*
X196172313Y-196521900D01*
X196172313Y-196521900D02*
X196029456Y-196593328D01*
X196029456Y-196593328D02*
X195886599Y-196593328D01*
X195886599Y-196593328D02*
X195743742Y-196521900D01*
X195743742Y-196521900D02*
X195672313Y-196450471D01*
X195672313Y-196450471D02*
X195600884Y-196307614D01*
X195600884Y-196307614D02*
X195529456Y-196021900D01*
X195529456Y-196021900D02*
X195529456Y-195664757D01*
X195529456Y-195664757D02*
X195600884Y-195379042D01*
X195600884Y-195379042D02*
X195672313Y-195236185D01*
X195672313Y-195236185D02*
X195743742Y-195164757D01*
X195743742Y-195164757D02*
X195886599Y-195093328D01*
X197029455Y-196450471D02*
X197100884Y-196521900D01*
X197100884Y-196521900D02*
X197029455Y-196593328D01*
X197029455Y-196593328D02*
X196958027Y-196521900D01*
X196958027Y-196521900D02*
X197029455Y-196450471D01*
X197029455Y-196450471D02*
X197029455Y-196593328D01*
X198029456Y-195093328D02*
X198172313Y-195093328D01*
X198172313Y-195093328D02*
X198315170Y-195164757D01*
X198315170Y-195164757D02*
X198386599Y-195236185D01*
X198386599Y-195236185D02*
X198458027Y-195379042D01*
X198458027Y-195379042D02*
X198529456Y-195664757D01*
X198529456Y-195664757D02*
X198529456Y-196021900D01*
X198529456Y-196021900D02*
X198458027Y-196307614D01*
X198458027Y-196307614D02*
X198386599Y-196450471D01*
X198386599Y-196450471D02*
X198315170Y-196521900D01*
X198315170Y-196521900D02*
X198172313Y-196593328D01*
X198172313Y-196593328D02*
X198029456Y-196593328D01*
X198029456Y-196593328D02*
X197886599Y-196521900D01*
X197886599Y-196521900D02*
X197815170Y-196450471D01*
X197815170Y-196450471D02*
X197743741Y-196307614D01*
X197743741Y-196307614D02*
X197672313Y-196021900D01*
X197672313Y-196021900D02*
X197672313Y-195664757D01*
X197672313Y-195664757D02*
X197743741Y-195379042D01*
X197743741Y-195379042D02*
X197815170Y-195236185D01*
X197815170Y-195236185D02*
X197886599Y-195164757D01*
X197886599Y-195164757D02*
X198029456Y-195093328D01*
D10*
D11*
X177002200Y-191507200D02*
X285002200Y-191507200D01*
D10*
D12*
X264413853Y-193785528D02*
X263913853Y-193071242D01*
X263556710Y-193785528D02*
X263556710Y-192285528D01*
X263556710Y-192285528D02*
X264128139Y-192285528D01*
X264128139Y-192285528D02*
X264270996Y-192356957D01*
X264270996Y-192356957D02*
X264342425Y-192428385D01*
X264342425Y-192428385D02*
X264413853Y-192571242D01*
X264413853Y-192571242D02*
X264413853Y-192785528D01*
X264413853Y-192785528D02*
X264342425Y-192928385D01*
X264342425Y-192928385D02*
X264270996Y-192999814D01*
X264270996Y-192999814D02*
X264128139Y-193071242D01*
X264128139Y-193071242D02*
X263556710Y-193071242D01*
X265628139Y-193714100D02*
X265485282Y-193785528D01*
X265485282Y-193785528D02*
X265199568Y-193785528D01*
X265199568Y-193785528D02*
X265056710Y-193714100D01*
X265056710Y-193714100D02*
X264985282Y-193571242D01*
X264985282Y-193571242D02*
X264985282Y-192999814D01*
X264985282Y-192999814D02*
X265056710Y-192856957D01*
X265056710Y-192856957D02*
X265199568Y-192785528D01*
X265199568Y-192785528D02*
X265485282Y-192785528D01*
X265485282Y-192785528D02*
X265628139Y-192856957D01*
X265628139Y-192856957D02*
X265699568Y-192999814D01*
X265699568Y-192999814D02*
X265699568Y-193142671D01*
X265699568Y-193142671D02*
X264985282Y-193285528D01*
X266199567Y-192785528D02*
X266556710Y-193785528D01*
X266556710Y-193785528D02*
X266913853Y-192785528D01*
X267485281Y-193642671D02*
X267556710Y-193714100D01*
X267556710Y-193714100D02*
X267485281Y-193785528D01*
X267485281Y-193785528D02*
X267413853Y-193714100D01*
X267413853Y-193714100D02*
X267485281Y-193642671D01*
X267485281Y-193642671D02*
X267485281Y-193785528D01*
X267485281Y-192856957D02*
X267556710Y-192928385D01*
X267556710Y-192928385D02*
X267485281Y-192999814D01*
X267485281Y-192999814D02*
X267413853Y-192928385D01*
X267413853Y-192928385D02*
X267485281Y-192856957D01*
X267485281Y-192856957D02*
X267485281Y-192999814D01*
X269628139Y-192285528D02*
X269770996Y-192285528D01*
X269770996Y-192285528D02*
X269913853Y-192356957D01*
X269913853Y-192356957D02*
X269985282Y-192428385D01*
X269985282Y-192428385D02*
X270056710Y-192571242D01*
X270056710Y-192571242D02*
X270128139Y-192856957D01*
X270128139Y-192856957D02*
X270128139Y-193214100D01*
X270128139Y-193214100D02*
X270056710Y-193499814D01*
X270056710Y-193499814D02*
X269985282Y-193642671D01*
X269985282Y-193642671D02*
X269913853Y-193714100D01*
X269913853Y-193714100D02*
X269770996Y-193785528D01*
X269770996Y-193785528D02*
X269628139Y-193785528D01*
X269628139Y-193785528D02*
X269485282Y-193714100D01*
X269485282Y-193714100D02*
X269413853Y-193642671D01*
X269413853Y-193642671D02*
X269342424Y-193499814D01*
X269342424Y-193499814D02*
X269270996Y-193214100D01*
X269270996Y-193214100D02*
X269270996Y-192856957D01*
X269270996Y-192856957D02*
X269342424Y-192571242D01*
X269342424Y-192571242D02*
X269413853Y-192428385D01*
X269413853Y-192428385D02*
X269485282Y-192356957D01*
X269485282Y-192356957D02*
X269628139Y-192285528D01*
X270699567Y-192428385D02*
X270770995Y-192356957D01*
X270770995Y-192356957D02*
X270913853Y-192285528D01*
X270913853Y-192285528D02*
X271270995Y-192285528D01*
X271270995Y-192285528D02*
X271413853Y-192356957D01*
X271413853Y-192356957D02*
X271485281Y-192428385D01*
X271485281Y-192428385D02*
X271556710Y-192571242D01*
X271556710Y-192571242D02*
X271556710Y-192714100D01*
X271556710Y-192714100D02*
X271485281Y-192928385D01*
X271485281Y-192928385D02*
X270628138Y-193785528D01*
X270628138Y-193785528D02*
X271556710Y-193785528D01*
D10*
D11*
X178386598Y-193721900D02*
X178600884Y-193793328D01*
X178600884Y-193793328D02*
X178958026Y-193793328D01*
X178958026Y-193793328D02*
X179100884Y-193721900D01*
X179100884Y-193721900D02*
X179172312Y-193650471D01*
X179172312Y-193650471D02*
X179243741Y-193507614D01*
X179243741Y-193507614D02*
X179243741Y-193364757D01*
X179243741Y-193364757D02*
X179172312Y-193221900D01*
X179172312Y-193221900D02*
X179100884Y-193150471D01*
X179100884Y-193150471D02*
X178958026Y-193079042D01*
X178958026Y-193079042D02*
X178672312Y-193007614D01*
X178672312Y-193007614D02*
X178529455Y-192936185D01*
X178529455Y-192936185D02*
X178458026Y-192864757D01*
X178458026Y-192864757D02*
X178386598Y-192721900D01*
X178386598Y-192721900D02*
X178386598Y-192579042D01*
X178386598Y-192579042D02*
X178458026Y-192436185D01*
X178458026Y-192436185D02*
X178529455Y-192364757D01*
X178529455Y-192364757D02*
X178672312Y-192293328D01*
X178672312Y-192293328D02*
X179029455Y-192293328D01*
X179029455Y-192293328D02*
X179243741Y-192364757D01*
X179886597Y-193793328D02*
X179886597Y-192793328D01*
X179886597Y-192293328D02*
X179815169Y-192364757D01*
X179815169Y-192364757D02*
X179886597Y-192436185D01*
X179886597Y-192436185D02*
X179958026Y-192364757D01*
X179958026Y-192364757D02*
X179886597Y-192293328D01*
X179886597Y-192293328D02*
X179886597Y-192436185D01*
X180458026Y-192793328D02*
X181243741Y-192793328D01*
X181243741Y-192793328D02*
X180458026Y-193793328D01*
X180458026Y-193793328D02*
X181243741Y-193793328D01*
X182386598Y-193721900D02*
X182243741Y-193793328D01*
X182243741Y-193793328D02*
X181958027Y-193793328D01*
X181958027Y-193793328D02*
X181815169Y-193721900D01*
X181815169Y-193721900D02*
X181743741Y-193579042D01*
X181743741Y-193579042D02*
X181743741Y-193007614D01*
X181743741Y-193007614D02*
X181815169Y-192864757D01*
X181815169Y-192864757D02*
X181958027Y-192793328D01*
X181958027Y-192793328D02*
X182243741Y-192793328D01*
X182243741Y-192793328D02*
X182386598Y-192864757D01*
X182386598Y-192864757D02*
X182458027Y-193007614D01*
X182458027Y-193007614D02*
X182458027Y-193150471D01*
X182458027Y-193150471D02*
X181743741Y-193293328D01*
X183100883Y-193650471D02*
X183172312Y-193721900D01*
X183172312Y-193721900D02*
X183100883Y-193793328D01*
X183100883Y-193793328D02*
X183029455Y-193721900D01*
X183029455Y-193721900D02*
X183100883Y-193650471D01*
X183100883Y-193650471D02*
X183100883Y-193793328D01*
X183100883Y-192864757D02*
X183172312Y-192936185D01*
X183172312Y-192936185D02*
X183100883Y-193007614D01*
X183100883Y-193007614D02*
X183029455Y-192936185D01*
X183029455Y-192936185D02*
X183100883Y-192864757D01*
X183100883Y-192864757D02*
X183100883Y-193007614D01*
X184886598Y-193364757D02*
X185600884Y-193364757D01*
X184743741Y-193793328D02*
X185243741Y-192293328D01*
X185243741Y-192293328D02*
X185743741Y-193793328D01*
X186886598Y-192793328D02*
X186886598Y-193793328D01*
X186529455Y-192221900D02*
X186172312Y-193293328D01*
X186172312Y-193293328D02*
X187100883Y-193293328D01*
D10*
D11*
X263458026Y-196593328D02*
X263458026Y-195093328D01*
X264815170Y-196593328D02*
X264815170Y-195093328D01*
X264815170Y-196521900D02*
X264672312Y-196593328D01*
X264672312Y-196593328D02*
X264386598Y-196593328D01*
X264386598Y-196593328D02*
X264243741Y-196521900D01*
X264243741Y-196521900D02*
X264172312Y-196450471D01*
X264172312Y-196450471D02*
X264100884Y-196307614D01*
X264100884Y-196307614D02*
X264100884Y-195879042D01*
X264100884Y-195879042D02*
X264172312Y-195736185D01*
X264172312Y-195736185D02*
X264243741Y-195664757D01*
X264243741Y-195664757D02*
X264386598Y-195593328D01*
X264386598Y-195593328D02*
X264672312Y-195593328D01*
X264672312Y-195593328D02*
X264815170Y-195664757D01*
X265529455Y-196450471D02*
X265600884Y-196521900D01*
X265600884Y-196521900D02*
X265529455Y-196593328D01*
X265529455Y-196593328D02*
X265458027Y-196521900D01*
X265458027Y-196521900D02*
X265529455Y-196450471D01*
X265529455Y-196450471D02*
X265529455Y-196593328D01*
X265529455Y-195664757D02*
X265600884Y-195736185D01*
X265600884Y-195736185D02*
X265529455Y-195807614D01*
X265529455Y-195807614D02*
X265458027Y-195736185D01*
X265458027Y-195736185D02*
X265529455Y-195664757D01*
X265529455Y-195664757D02*
X265529455Y-195807614D01*
X268172313Y-196593328D02*
X267315170Y-196593328D01*
X267743741Y-196593328D02*
X267743741Y-195093328D01*
X267743741Y-195093328D02*
X267600884Y-195307614D01*
X267600884Y-195307614D02*
X267458027Y-195450471D01*
X267458027Y-195450471D02*
X267315170Y-195521900D01*
X269886598Y-195021900D02*
X268600884Y-196950471D01*
X271172313Y-196593328D02*
X270315170Y-196593328D01*
X270743741Y-196593328D02*
X270743741Y-195093328D01*
X270743741Y-195093328D02*
X270600884Y-195307614D01*
X270600884Y-195307614D02*
X270458027Y-195450471D01*
X270458027Y-195450471D02*
X270315170Y-195521900D01*
D10*
D11*
X177002200Y-187507200D02*
X285002200Y-187507200D01*
D10*
D13*
X178693928Y-188211638D02*
X179836785Y-188211638D01*
X179015357Y-190211638D02*
X179265357Y-188211638D01*
X180253452Y-190211638D02*
X180420119Y-188878304D01*
X180503452Y-188211638D02*
X180396309Y-188306876D01*
X180396309Y-188306876D02*
X180479643Y-188402114D01*
X180479643Y-188402114D02*
X180586786Y-188306876D01*
X180586786Y-188306876D02*
X180503452Y-188211638D01*
X180503452Y-188211638D02*
X180479643Y-188402114D01*
X181086786Y-188878304D02*
X181848690Y-188878304D01*
X181455833Y-188211638D02*
X181241548Y-189925923D01*
X181241548Y-189925923D02*
X181312976Y-190116400D01*
X181312976Y-190116400D02*
X181491548Y-190211638D01*
X181491548Y-190211638D02*
X181682024Y-190211638D01*
X182634405Y-190211638D02*
X182455833Y-190116400D01*
X182455833Y-190116400D02*
X182384405Y-189925923D01*
X182384405Y-189925923D02*
X182598690Y-188211638D01*
X184170119Y-190116400D02*
X183967738Y-190211638D01*
X183967738Y-190211638D02*
X183586785Y-190211638D01*
X183586785Y-190211638D02*
X183408214Y-190116400D01*
X183408214Y-190116400D02*
X183336785Y-189925923D01*
X183336785Y-189925923D02*
X183432024Y-189164019D01*
X183432024Y-189164019D02*
X183551071Y-188973542D01*
X183551071Y-188973542D02*
X183753452Y-188878304D01*
X183753452Y-188878304D02*
X184134404Y-188878304D01*
X184134404Y-188878304D02*
X184312976Y-188973542D01*
X184312976Y-188973542D02*
X184384404Y-189164019D01*
X184384404Y-189164019D02*
X184360595Y-189354495D01*
X184360595Y-189354495D02*
X183384404Y-189544971D01*
X185134405Y-190021161D02*
X185217738Y-190116400D01*
X185217738Y-190116400D02*
X185110595Y-190211638D01*
X185110595Y-190211638D02*
X185027262Y-190116400D01*
X185027262Y-190116400D02*
X185134405Y-190021161D01*
X185134405Y-190021161D02*
X185110595Y-190211638D01*
X185265357Y-188973542D02*
X185348690Y-189068780D01*
X185348690Y-189068780D02*
X185241548Y-189164019D01*
X185241548Y-189164019D02*
X185158214Y-189068780D01*
X185158214Y-189068780D02*
X185265357Y-188973542D01*
X185265357Y-188973542D02*
X185241548Y-189164019D01*
X187562977Y-189640209D02*
X188515358Y-189640209D01*
X187301072Y-190211638D02*
X188217739Y-188211638D01*
X188217739Y-188211638D02*
X188634405Y-190211638D01*
X190324882Y-188878304D02*
X190158215Y-190211638D01*
X189467739Y-188878304D02*
X189336787Y-189925923D01*
X189336787Y-189925923D02*
X189408215Y-190116400D01*
X189408215Y-190116400D02*
X189586787Y-190211638D01*
X189586787Y-190211638D02*
X189872501Y-190211638D01*
X189872501Y-190211638D02*
X190074882Y-190116400D01*
X190074882Y-190116400D02*
X190182025Y-190021161D01*
X190991549Y-188878304D02*
X191753453Y-188878304D01*
X191360596Y-188211638D02*
X191146311Y-189925923D01*
X191146311Y-189925923D02*
X191217739Y-190116400D01*
X191217739Y-190116400D02*
X191396311Y-190211638D01*
X191396311Y-190211638D02*
X191586787Y-190211638D01*
X192539168Y-190211638D02*
X192360596Y-190116400D01*
X192360596Y-190116400D02*
X192277263Y-190021161D01*
X192277263Y-190021161D02*
X192205834Y-189830685D01*
X192205834Y-189830685D02*
X192277263Y-189259257D01*
X192277263Y-189259257D02*
X192396310Y-189068780D01*
X192396310Y-189068780D02*
X192503453Y-188973542D01*
X192503453Y-188973542D02*
X192705834Y-188878304D01*
X192705834Y-188878304D02*
X192991548Y-188878304D01*
X192991548Y-188878304D02*
X193170120Y-188973542D01*
X193170120Y-188973542D02*
X193253453Y-189068780D01*
X193253453Y-189068780D02*
X193324882Y-189259257D01*
X193324882Y-189259257D02*
X193253453Y-189830685D01*
X193253453Y-189830685D02*
X193134406Y-190021161D01*
X193134406Y-190021161D02*
X193027263Y-190116400D01*
X193027263Y-190116400D02*
X192824882Y-190211638D01*
X192824882Y-190211638D02*
X192539168Y-190211638D01*
X196539168Y-190211638D02*
X195586787Y-190211638D01*
X195586787Y-190211638D02*
X195836787Y-188211638D01*
X197205835Y-190211638D02*
X197372502Y-188878304D01*
X197455835Y-188211638D02*
X197348692Y-188306876D01*
X197348692Y-188306876D02*
X197432026Y-188402114D01*
X197432026Y-188402114D02*
X197539169Y-188306876D01*
X197539169Y-188306876D02*
X197455835Y-188211638D01*
X197455835Y-188211638D02*
X197432026Y-188402114D01*
X199182026Y-188878304D02*
X198979645Y-190497352D01*
X198979645Y-190497352D02*
X198860597Y-190687828D01*
X198860597Y-190687828D02*
X198753454Y-190783066D01*
X198753454Y-190783066D02*
X198551073Y-190878304D01*
X198551073Y-190878304D02*
X198265359Y-190878304D01*
X198265359Y-190878304D02*
X198086788Y-190783066D01*
X199027264Y-190116400D02*
X198824883Y-190211638D01*
X198824883Y-190211638D02*
X198443931Y-190211638D01*
X198443931Y-190211638D02*
X198265359Y-190116400D01*
X198265359Y-190116400D02*
X198182026Y-190021161D01*
X198182026Y-190021161D02*
X198110597Y-189830685D01*
X198110597Y-189830685D02*
X198182026Y-189259257D01*
X198182026Y-189259257D02*
X198301073Y-189068780D01*
X198301073Y-189068780D02*
X198408216Y-188973542D01*
X198408216Y-188973542D02*
X198610597Y-188878304D01*
X198610597Y-188878304D02*
X198991550Y-188878304D01*
X198991550Y-188878304D02*
X199170121Y-188973542D01*
X199967740Y-190211638D02*
X200217740Y-188211638D01*
X200824883Y-190211638D02*
X200955835Y-189164019D01*
X200955835Y-189164019D02*
X200884407Y-188973542D01*
X200884407Y-188973542D02*
X200705835Y-188878304D01*
X200705835Y-188878304D02*
X200420121Y-188878304D01*
X200420121Y-188878304D02*
X200217740Y-188973542D01*
X200217740Y-188973542D02*
X200110597Y-189068780D01*
X201658217Y-188878304D02*
X202420121Y-188878304D01*
X202027264Y-188211638D02*
X201812979Y-189925923D01*
X201812979Y-189925923D02*
X201884407Y-190116400D01*
X201884407Y-190116400D02*
X202062979Y-190211638D01*
X202062979Y-190211638D02*
X202253455Y-190211638D01*
D10*
D11*
X178958026Y-185607614D02*
X178458026Y-185607614D01*
X178458026Y-186393328D02*
X178458026Y-184893328D01*
X178458026Y-184893328D02*
X179172312Y-184893328D01*
X179743740Y-186393328D02*
X179743740Y-185393328D01*
X179743740Y-184893328D02*
X179672312Y-184964757D01*
X179672312Y-184964757D02*
X179743740Y-185036185D01*
X179743740Y-185036185D02*
X179815169Y-184964757D01*
X179815169Y-184964757D02*
X179743740Y-184893328D01*
X179743740Y-184893328D02*
X179743740Y-185036185D01*
X180672312Y-186393328D02*
X180529455Y-186321900D01*
X180529455Y-186321900D02*
X180458026Y-186179042D01*
X180458026Y-186179042D02*
X180458026Y-184893328D01*
X181815169Y-186321900D02*
X181672312Y-186393328D01*
X181672312Y-186393328D02*
X181386598Y-186393328D01*
X181386598Y-186393328D02*
X181243740Y-186321900D01*
X181243740Y-186321900D02*
X181172312Y-186179042D01*
X181172312Y-186179042D02*
X181172312Y-185607614D01*
X181172312Y-185607614D02*
X181243740Y-185464757D01*
X181243740Y-185464757D02*
X181386598Y-185393328D01*
X181386598Y-185393328D02*
X181672312Y-185393328D01*
X181672312Y-185393328D02*
X181815169Y-185464757D01*
X181815169Y-185464757D02*
X181886598Y-185607614D01*
X181886598Y-185607614D02*
X181886598Y-185750471D01*
X181886598Y-185750471D02*
X181172312Y-185893328D01*
X182529454Y-186250471D02*
X182600883Y-186321900D01*
X182600883Y-186321900D02*
X182529454Y-186393328D01*
X182529454Y-186393328D02*
X182458026Y-186321900D01*
X182458026Y-186321900D02*
X182529454Y-186250471D01*
X182529454Y-186250471D02*
X182529454Y-186393328D01*
X182529454Y-185464757D02*
X182600883Y-185536185D01*
X182600883Y-185536185D02*
X182529454Y-185607614D01*
X182529454Y-185607614D02*
X182458026Y-185536185D01*
X182458026Y-185536185D02*
X182529454Y-185464757D01*
X182529454Y-185464757D02*
X182529454Y-185607614D01*
X185029455Y-186393328D02*
X185029455Y-185607614D01*
X185029455Y-185607614D02*
X184958026Y-185464757D01*
X184958026Y-185464757D02*
X184815169Y-185393328D01*
X184815169Y-185393328D02*
X184529455Y-185393328D01*
X184529455Y-185393328D02*
X184386597Y-185464757D01*
X185029455Y-186321900D02*
X184886597Y-186393328D01*
X184886597Y-186393328D02*
X184529455Y-186393328D01*
X184529455Y-186393328D02*
X184386597Y-186321900D01*
X184386597Y-186321900D02*
X184315169Y-186179042D01*
X184315169Y-186179042D02*
X184315169Y-186036185D01*
X184315169Y-186036185D02*
X184386597Y-185893328D01*
X184386597Y-185893328D02*
X184529455Y-185821900D01*
X184529455Y-185821900D02*
X184886597Y-185821900D01*
X184886597Y-185821900D02*
X185029455Y-185750471D01*
X186386598Y-185393328D02*
X186386598Y-186393328D01*
X185743740Y-185393328D02*
X185743740Y-186179042D01*
X185743740Y-186179042D02*
X185815169Y-186321900D01*
X185815169Y-186321900D02*
X185958026Y-186393328D01*
X185958026Y-186393328D02*
X186172312Y-186393328D01*
X186172312Y-186393328D02*
X186315169Y-186321900D01*
X186315169Y-186321900D02*
X186386598Y-186250471D01*
X186886598Y-185393328D02*
X187458026Y-185393328D01*
X187100883Y-184893328D02*
X187100883Y-186179042D01*
X187100883Y-186179042D02*
X187172312Y-186321900D01*
X187172312Y-186321900D02*
X187315169Y-186393328D01*
X187315169Y-186393328D02*
X187458026Y-186393328D01*
X188172312Y-186393328D02*
X188029455Y-186321900D01*
X188029455Y-186321900D02*
X187958026Y-186250471D01*
X187958026Y-186250471D02*
X187886598Y-186107614D01*
X187886598Y-186107614D02*
X187886598Y-185679042D01*
X187886598Y-185679042D02*
X187958026Y-185536185D01*
X187958026Y-185536185D02*
X188029455Y-185464757D01*
X188029455Y-185464757D02*
X188172312Y-185393328D01*
X188172312Y-185393328D02*
X188386598Y-185393328D01*
X188386598Y-185393328D02*
X188529455Y-185464757D01*
X188529455Y-185464757D02*
X188600884Y-185536185D01*
X188600884Y-185536185D02*
X188672312Y-185679042D01*
X188672312Y-185679042D02*
X188672312Y-186107614D01*
X188672312Y-186107614D02*
X188600884Y-186250471D01*
X188600884Y-186250471D02*
X188529455Y-186321900D01*
X188529455Y-186321900D02*
X188386598Y-186393328D01*
X188386598Y-186393328D02*
X188172312Y-186393328D01*
X190672312Y-186393328D02*
X190529455Y-186321900D01*
X190529455Y-186321900D02*
X190458026Y-186179042D01*
X190458026Y-186179042D02*
X190458026Y-184893328D01*
X191243740Y-186393328D02*
X191243740Y-185393328D01*
X191243740Y-184893328D02*
X191172312Y-184964757D01*
X191172312Y-184964757D02*
X191243740Y-185036185D01*
X191243740Y-185036185D02*
X191315169Y-184964757D01*
X191315169Y-184964757D02*
X191243740Y-184893328D01*
X191243740Y-184893328D02*
X191243740Y-185036185D01*
X192600884Y-185393328D02*
X192600884Y-186607614D01*
X192600884Y-186607614D02*
X192529455Y-186750471D01*
X192529455Y-186750471D02*
X192458026Y-186821900D01*
X192458026Y-186821900D02*
X192315169Y-186893328D01*
X192315169Y-186893328D02*
X192100884Y-186893328D01*
X192100884Y-186893328D02*
X191958026Y-186821900D01*
X192600884Y-186321900D02*
X192458026Y-186393328D01*
X192458026Y-186393328D02*
X192172312Y-186393328D01*
X192172312Y-186393328D02*
X192029455Y-186321900D01*
X192029455Y-186321900D02*
X191958026Y-186250471D01*
X191958026Y-186250471D02*
X191886598Y-186107614D01*
X191886598Y-186107614D02*
X191886598Y-185679042D01*
X191886598Y-185679042D02*
X191958026Y-185536185D01*
X191958026Y-185536185D02*
X192029455Y-185464757D01*
X192029455Y-185464757D02*
X192172312Y-185393328D01*
X192172312Y-185393328D02*
X192458026Y-185393328D01*
X192458026Y-185393328D02*
X192600884Y-185464757D01*
X193315169Y-186393328D02*
X193315169Y-184893328D01*
X193958027Y-186393328D02*
X193958027Y-185607614D01*
X193958027Y-185607614D02*
X193886598Y-185464757D01*
X193886598Y-185464757D02*
X193743741Y-185393328D01*
X193743741Y-185393328D02*
X193529455Y-185393328D01*
X193529455Y-185393328D02*
X193386598Y-185464757D01*
X193386598Y-185464757D02*
X193315169Y-185536185D01*
X194458027Y-185393328D02*
X195029455Y-185393328D01*
X194672312Y-184893328D02*
X194672312Y-186179042D01*
X194672312Y-186179042D02*
X194743741Y-186321900D01*
X194743741Y-186321900D02*
X194886598Y-186393328D01*
X194886598Y-186393328D02*
X195029455Y-186393328D01*
X195529455Y-186250471D02*
X195600884Y-186321900D01*
X195600884Y-186321900D02*
X195529455Y-186393328D01*
X195529455Y-186393328D02*
X195458027Y-186321900D01*
X195458027Y-186321900D02*
X195529455Y-186250471D01*
X195529455Y-186250471D02*
X195529455Y-186393328D01*
X196243741Y-186393328D02*
X196243741Y-184893328D01*
X196386599Y-185821900D02*
X196815170Y-186393328D01*
X196815170Y-185393328D02*
X196243741Y-185964757D01*
X197458027Y-186393328D02*
X197458027Y-185393328D01*
X197458027Y-184893328D02*
X197386599Y-184964757D01*
X197386599Y-184964757D02*
X197458027Y-185036185D01*
X197458027Y-185036185D02*
X197529456Y-184964757D01*
X197529456Y-184964757D02*
X197458027Y-184893328D01*
X197458027Y-184893328D02*
X197458027Y-185036185D01*
X198815171Y-186321900D02*
X198672313Y-186393328D01*
X198672313Y-186393328D02*
X198386599Y-186393328D01*
X198386599Y-186393328D02*
X198243742Y-186321900D01*
X198243742Y-186321900D02*
X198172313Y-186250471D01*
X198172313Y-186250471D02*
X198100885Y-186107614D01*
X198100885Y-186107614D02*
X198100885Y-185679042D01*
X198100885Y-185679042D02*
X198172313Y-185536185D01*
X198172313Y-185536185D02*
X198243742Y-185464757D01*
X198243742Y-185464757D02*
X198386599Y-185393328D01*
X198386599Y-185393328D02*
X198672313Y-185393328D01*
X198672313Y-185393328D02*
X198815171Y-185464757D01*
X200100885Y-186393328D02*
X200100885Y-185607614D01*
X200100885Y-185607614D02*
X200029456Y-185464757D01*
X200029456Y-185464757D02*
X199886599Y-185393328D01*
X199886599Y-185393328D02*
X199600885Y-185393328D01*
X199600885Y-185393328D02*
X199458027Y-185464757D01*
X200100885Y-186321900D02*
X199958027Y-186393328D01*
X199958027Y-186393328D02*
X199600885Y-186393328D01*
X199600885Y-186393328D02*
X199458027Y-186321900D01*
X199458027Y-186321900D02*
X199386599Y-186179042D01*
X199386599Y-186179042D02*
X199386599Y-186036185D01*
X199386599Y-186036185D02*
X199458027Y-185893328D01*
X199458027Y-185893328D02*
X199600885Y-185821900D01*
X199600885Y-185821900D02*
X199958027Y-185821900D01*
X199958027Y-185821900D02*
X200100885Y-185750471D01*
X201458028Y-186393328D02*
X201458028Y-184893328D01*
X201458028Y-186321900D02*
X201315170Y-186393328D01*
X201315170Y-186393328D02*
X201029456Y-186393328D01*
X201029456Y-186393328D02*
X200886599Y-186321900D01*
X200886599Y-186321900D02*
X200815170Y-186250471D01*
X200815170Y-186250471D02*
X200743742Y-186107614D01*
X200743742Y-186107614D02*
X200743742Y-185679042D01*
X200743742Y-185679042D02*
X200815170Y-185536185D01*
X200815170Y-185536185D02*
X200886599Y-185464757D01*
X200886599Y-185464757D02*
X201029456Y-185393328D01*
X201029456Y-185393328D02*
X201315170Y-185393328D01*
X201315170Y-185393328D02*
X201458028Y-185464757D01*
X201815171Y-186536185D02*
X202958028Y-186536185D01*
X203315170Y-185393328D02*
X203315170Y-186893328D01*
X203315170Y-185464757D02*
X203458028Y-185393328D01*
X203458028Y-185393328D02*
X203743742Y-185393328D01*
X203743742Y-185393328D02*
X203886599Y-185464757D01*
X203886599Y-185464757D02*
X203958028Y-185536185D01*
X203958028Y-185536185D02*
X204029456Y-185679042D01*
X204029456Y-185679042D02*
X204029456Y-186107614D01*
X204029456Y-186107614D02*
X203958028Y-186250471D01*
X203958028Y-186250471D02*
X203886599Y-186321900D01*
X203886599Y-186321900D02*
X203743742Y-186393328D01*
X203743742Y-186393328D02*
X203458028Y-186393328D01*
X203458028Y-186393328D02*
X203315170Y-186321900D01*
X205315171Y-186321900D02*
X205172313Y-186393328D01*
X205172313Y-186393328D02*
X204886599Y-186393328D01*
X204886599Y-186393328D02*
X204743742Y-186321900D01*
X204743742Y-186321900D02*
X204672313Y-186250471D01*
X204672313Y-186250471D02*
X204600885Y-186107614D01*
X204600885Y-186107614D02*
X204600885Y-185679042D01*
X204600885Y-185679042D02*
X204672313Y-185536185D01*
X204672313Y-185536185D02*
X204743742Y-185464757D01*
X204743742Y-185464757D02*
X204886599Y-185393328D01*
X204886599Y-185393328D02*
X205172313Y-185393328D01*
X205172313Y-185393328D02*
X205315171Y-185464757D01*
X205958027Y-186393328D02*
X205958027Y-184893328D01*
X205958027Y-185464757D02*
X206100885Y-185393328D01*
X206100885Y-185393328D02*
X206386599Y-185393328D01*
X206386599Y-185393328D02*
X206529456Y-185464757D01*
X206529456Y-185464757D02*
X206600885Y-185536185D01*
X206600885Y-185536185D02*
X206672313Y-185679042D01*
X206672313Y-185679042D02*
X206672313Y-186107614D01*
X206672313Y-186107614D02*
X206600885Y-186250471D01*
X206600885Y-186250471D02*
X206529456Y-186321900D01*
X206529456Y-186321900D02*
X206386599Y-186393328D01*
X206386599Y-186393328D02*
X206100885Y-186393328D01*
X206100885Y-186393328D02*
X205958027Y-186321900D01*
D10*
D11*
X177002200Y-181507200D02*
X285002200Y-181507200D01*
D10*
D11*
X178386598Y-183621900D02*
X178600884Y-183693328D01*
X178600884Y-183693328D02*
X178958026Y-183693328D01*
X178958026Y-183693328D02*
X179100884Y-183621900D01*
X179100884Y-183621900D02*
X179172312Y-183550471D01*
X179172312Y-183550471D02*
X179243741Y-183407614D01*
X179243741Y-183407614D02*
X179243741Y-183264757D01*
X179243741Y-183264757D02*
X179172312Y-183121900D01*
X179172312Y-183121900D02*
X179100884Y-183050471D01*
X179100884Y-183050471D02*
X178958026Y-182979042D01*
X178958026Y-182979042D02*
X178672312Y-182907614D01*
X178672312Y-182907614D02*
X178529455Y-182836185D01*
X178529455Y-182836185D02*
X178458026Y-182764757D01*
X178458026Y-182764757D02*
X178386598Y-182621900D01*
X178386598Y-182621900D02*
X178386598Y-182479042D01*
X178386598Y-182479042D02*
X178458026Y-182336185D01*
X178458026Y-182336185D02*
X178529455Y-182264757D01*
X178529455Y-182264757D02*
X178672312Y-182193328D01*
X178672312Y-182193328D02*
X179029455Y-182193328D01*
X179029455Y-182193328D02*
X179243741Y-182264757D01*
X179886597Y-183693328D02*
X179886597Y-182193328D01*
X180529455Y-183693328D02*
X180529455Y-182907614D01*
X180529455Y-182907614D02*
X180458026Y-182764757D01*
X180458026Y-182764757D02*
X180315169Y-182693328D01*
X180315169Y-182693328D02*
X180100883Y-182693328D01*
X180100883Y-182693328D02*
X179958026Y-182764757D01*
X179958026Y-182764757D02*
X179886597Y-182836185D01*
X181815169Y-183621900D02*
X181672312Y-183693328D01*
X181672312Y-183693328D02*
X181386598Y-183693328D01*
X181386598Y-183693328D02*
X181243740Y-183621900D01*
X181243740Y-183621900D02*
X181172312Y-183479042D01*
X181172312Y-183479042D02*
X181172312Y-182907614D01*
X181172312Y-182907614D02*
X181243740Y-182764757D01*
X181243740Y-182764757D02*
X181386598Y-182693328D01*
X181386598Y-182693328D02*
X181672312Y-182693328D01*
X181672312Y-182693328D02*
X181815169Y-182764757D01*
X181815169Y-182764757D02*
X181886598Y-182907614D01*
X181886598Y-182907614D02*
X181886598Y-183050471D01*
X181886598Y-183050471D02*
X181172312Y-183193328D01*
X183100883Y-183621900D02*
X182958026Y-183693328D01*
X182958026Y-183693328D02*
X182672312Y-183693328D01*
X182672312Y-183693328D02*
X182529454Y-183621900D01*
X182529454Y-183621900D02*
X182458026Y-183479042D01*
X182458026Y-183479042D02*
X182458026Y-182907614D01*
X182458026Y-182907614D02*
X182529454Y-182764757D01*
X182529454Y-182764757D02*
X182672312Y-182693328D01*
X182672312Y-182693328D02*
X182958026Y-182693328D01*
X182958026Y-182693328D02*
X183100883Y-182764757D01*
X183100883Y-182764757D02*
X183172312Y-182907614D01*
X183172312Y-182907614D02*
X183172312Y-183050471D01*
X183172312Y-183050471D02*
X182458026Y-183193328D01*
X183600883Y-182693328D02*
X184172311Y-182693328D01*
X183815168Y-182193328D02*
X183815168Y-183479042D01*
X183815168Y-183479042D02*
X183886597Y-183621900D01*
X183886597Y-183621900D02*
X184029454Y-183693328D01*
X184029454Y-183693328D02*
X184172311Y-183693328D01*
X184672311Y-183550471D02*
X184743740Y-183621900D01*
X184743740Y-183621900D02*
X184672311Y-183693328D01*
X184672311Y-183693328D02*
X184600883Y-183621900D01*
X184600883Y-183621900D02*
X184672311Y-183550471D01*
X184672311Y-183550471D02*
X184672311Y-183693328D01*
X184672311Y-182764757D02*
X184743740Y-182836185D01*
X184743740Y-182836185D02*
X184672311Y-182907614D01*
X184672311Y-182907614D02*
X184600883Y-182836185D01*
X184600883Y-182836185D02*
X184672311Y-182764757D01*
X184672311Y-182764757D02*
X184672311Y-182907614D01*
D10*
D12*
D10*
D11*
D10*
D11*
D10*
D11*
D10*
D11*
D10*
D11*
X197002200Y-191507200D02*
X197002200Y-194507200D01*
D10*
D11*
X261002200Y-191507200D02*
X261002200Y-198007200D01*
D14*
X85375000Y-42550000D02*
X165375000Y-42550000D01*
X165375000Y-110550000D01*
X85375000Y-110550000D01*
X85375000Y-42550000D01*
D15*
%TO.P,U1,1,~{RST}*%
%TO.N,unconnected-(U1-~{RST}-Pad1)*%
X112040000Y-80760000D03*
D16*
%TO.P,U1,2,A0*%
%TO.N,unconnected-(U1-A0-Pad2)*%
X112040000Y-83300000D03*
%TO.P,U1,3,D0*%
%TO.N,unconnected-(U1-D0-Pad3)*%
X112040000Y-85840000D03*
%TO.P,U1,4,SCK/D5*%
%TO.N,Net-(U1-SCK{slash}D5)*%
X112040000Y-88380000D03*
%TO.P,U1,5,MISO/D6*%
%TO.N,Net-(U1-MISO{slash}D6)*%
X112040000Y-90920000D03*
%TO.P,U1,6,MOSI/D7*%
%TO.N,Net-(U1-MOSI{slash}D7)*%
X112040000Y-93460000D03*
%TO.P,U1,7,CS/D8*%
%TO.N,Net-(U1-CS{slash}D8)*%
X112040000Y-96000000D03*
%TO.P,U1,8,3V3*%
%TO.N,unconnected-(U1-3V3-Pad8)*%
X112040000Y-98540000D03*
%TO.P,U1,9,5V*%
%TO.N,Net-(D1-K)*%
X134900000Y-98540000D03*
%TO.P,U1,10,GND*%
%TO.N,Net-(D2-K)*%
X134900000Y-96000000D03*
%TO.P,U1,11,D4*%
%TO.N,unconnected-(U1-D4-Pad11)*%
X134900000Y-93460000D03*
%TO.P,U1,12,D3*%
%TO.N,unconnected-(U1-D3-Pad12)*%
X134900000Y-90920000D03*
%TO.P,U1,13,SDA/D2*%
%TO.N,Net-(U1-SDA{slash}D2)*%
X134900000Y-88380000D03*
%TO.P,U1,14,SCL/D1*%
%TO.N,unconnected-(U1-SCL{slash}D1-Pad14)*%
X134900000Y-85840000D03*
%TO.P,U1,15,RX*%
%TO.N,unconnected-(U1-RX-Pad15)*%
X134900000Y-83300000D03*
%TO.P,U1,16,TX*%
%TO.N,unconnected-(U1-TX-Pad16)*%
X134900000Y-80760000D03*
%TD*%
D15*
%TO.P,REF\u002A\u002A,1*%
%TO.N,Net-(D2-K)*%
X98700000Y-66235000D03*
D17*
%TO.P,REF\u002A\u002A,2*%
%TO.N,Net-(U1-SCK{slash}D5)*%
X98700000Y-71315000D03*
%TD*%
D18*
%TO.P,D1,1,K*%
%TO.N,Net-(D1-K)*%
X104925000Y-60655000D03*
D19*
%TO.P,D1,2,A*%
%TO.N,Net-(D1-A)*%
X104925000Y-50495000D03*
%TD*%
D20*
%TO.P,Q1,1,A1*%
%TO.N,Net-(J2-Pin_2)*%
X160315000Y-78330000D03*
D21*
%TO.P,Q1,2,A2*%
%TO.N,Net-(J1-Pin_2)*%
X157315000Y-78330000D03*
%TO.P,Q1,3,G*%
%TO.N,Net-(Q1-G)*%
X154315000Y-78330000D03*
%TD*%
D15*
%TO.P,REF\u002A\u002A,1*%
%TO.N,Net-(U1-SDA{slash}D2)*%
X143700000Y-83360000D03*
D17*
%TO.P,REF\u002A\u002A,2*%
X143700000Y-88440000D03*
%TD*%
D22*
%TO.P,REF\u002A\u002A,1*%
%TO.N,Net-(J1-Pin_2)*%
X153625000Y-50575000D03*
D23*
%TO.P,REF\u002A\u002A,2*%
%TO.N,Net-(J1-Pin_1)*%
X158705000Y-50575000D03*
%TD*%
D24*
%TO.P,REF\u002A\u002A,1*%
%TO.N,N/C*%
X88935000Y-98225000D03*
%TO.N,unconnected-(U1-D4-Pad11)*%
X101435000Y-98225000D03*
%TO.P,REF\u002A\u002A,2*%
%TO.N,Net-(D2-K)*%
X88935000Y-103225000D03*
%TO.N,N/C*%
X101435000Y-103225000D03*
%TD*%
D15*
%TO.P,REF\u002A\u002A,1*%
%TO.N,Net-(D2-K)*%
X91250000Y-66220000D03*
D17*
%TO.P,REF\u002A\u002A,2*%
%TO.N,Net-(U1-MISO{slash}D6)*%
X91250000Y-71300000D03*
%TD*%
D15*
%TO.P,REF\u002A\u002A,1*%
%TO.N,Net-(D2-K)*%
X98700000Y-57650000D03*
D17*
%TO.P,REF\u002A\u002A,2*%
X98700000Y-52570000D03*
%TD*%
D15*
%TO.P,REF\u002A\u002A,1*%
%TO.N,Net-(D2-K)*%
X91250000Y-57635000D03*
D17*
%TO.P,REF\u002A\u002A,2*%
X91250000Y-52555000D03*
%TD*%
D15*
%TO.P,REF\u002A\u002A,1*%
%TO.N,Net-(J1-Pin_2)*%
X155285000Y-73125000D03*
D17*
%TO.P,REF\u002A\u002A,2*%
X160365000Y-73125000D03*
%TD*%
D22*
%TO.P,REF\u002A\u002A,1*%
%TO.N,Net-(J1-Pin_1)*%
X157715000Y-102975000D03*
D23*
%TO.P,REF\u002A\u002A,2*%
%TO.N,Net-(J2-Pin_2)*%
X152635000Y-102975000D03*
%TD*%
D25*
%TO.P,R1,1*%
%TO.N,Net-(D2-K)*%
X93875000Y-87225000D03*
%TO.P,R1,2*%
%TO.N,Net-(U1-MOSI{slash}D7)*%
X101475000Y-87225000D03*
%TD*%
D26*
%TO.P,PS1,1,AC/L*%
%TO.N,Net-(J1-Pin_2)*%
X143622500Y-60507500D03*
D27*
%TO.P,PS1,2,AC/N*%
%TO.N,Net-(J1-Pin_1)*%
X143622500Y-55507500D03*
%TO.P,PS1,3,-Vout*%
%TO.N,Net-(D2-K)*%
X114542500Y-65507500D03*
%TO.P,PS1,4,+Vout*%
%TO.N,Net-(D1-A)*%
X114542500Y-50507500D03*
%TD*%
D28*
%TO.P,REF\u002A\u002A,6*%
%TO.N,Net-(J1-Pin_2)*%
X149842500Y-73260000D03*
%TO.P,REF\u002A\u002A,5*%
%TO.N,N/C*%
X149842500Y-75800000D03*
%TO.P,REF\u002A\u002A,4*%
%TO.N,Net-(Q1-G)*%
X149842500Y-78340000D03*
%TO.P,REF\u002A\u002A,3*%
%TO.N,N/C*%
X142222500Y-78340000D03*
%TO.P,REF\u002A\u002A,2*%
%TO.N,Net-(D2-K)*%
X142222500Y-75800000D03*
D29*
%TO.P,REF\u002A\u002A,1*%
%TO.N,Net-(U1-SDA{slash}D2)*%
X142222500Y-73260000D03*
%TD*%
D30*
%TO.N,unconnected-(U1-D4-Pad11)*%
X104400000Y-98225000D02*
X101435000Y-98225000D01*
X107925000Y-101750000D02*
X104400000Y-98225000D01*
X139825000Y-93450000D02*
X139825000Y-101625000D01*
X139825000Y-101625000D02*
X139700000Y-101750000D01*
X139700000Y-101750000D02*
X107925000Y-101750000D01*
X139815000Y-93460000D02*
X139825000Y-93450000D01*
X134900000Y-93460000D02*
X139815000Y-93460000D01*
%TO.N,Net-(D2-K)*%
X142725000Y-75800000D02*
X145250000Y-73275000D01*
X145250000Y-73275000D02*
X145250000Y-70575000D01*
X142222500Y-75800000D02*
X142725000Y-75800000D01*
X123150000Y-65507500D02*
X123150000Y-70625000D01*
X123200000Y-70575000D02*
X123150000Y-70625000D01*
X123150000Y-70625000D02*
X123150000Y-95650000D01*
X145250000Y-70575000D02*
X123200000Y-70575000D01*
%TO.N,Net-(J2-Pin_2)*%
X152635000Y-91715000D02*
X152635000Y-102975000D01*
X160315000Y-84035000D02*
X152635000Y-91715000D01*
X160315000Y-78330000D02*
X160315000Y-84035000D01*
%TO.N,Net-(J1-Pin_2)*%
X160365000Y-74285000D02*
X159075000Y-75575000D01*
X160365000Y-73125000D02*
X160365000Y-74285000D01*
X159075000Y-75575000D02*
X157315000Y-77335000D01*
X157315000Y-77335000D02*
X157315000Y-78330000D01*
%TO.N,Net-(D1-A)*%
X104925000Y-50495000D02*
X114530000Y-50495000D01*
%TO.N,Net-(D1-K)*%
X116925000Y-75975000D02*
X119425000Y-78475000D01*
X110525000Y-75975000D02*
X116925000Y-75975000D01*
X104925000Y-60655000D02*
X104925000Y-70375000D01*
X119940000Y-98540000D02*
X134965000Y-98540000D01*
X119425000Y-98025000D02*
X119940000Y-98540000D01*
X104925000Y-70375000D02*
X110525000Y-75975000D01*
X119425000Y-78475000D02*
X119425000Y-98025000D01*
%TO.N,Net-(J1-Pin_2)*%
X153625000Y-50575000D02*
X138700000Y-50575000D01*
X143622500Y-60507500D02*
X155857500Y-60507500D01*
X155857500Y-60507500D02*
X160365000Y-65015000D01*
X138675000Y-50550000D02*
X138675000Y-60375000D01*
X138807500Y-60507500D02*
X143622500Y-60507500D01*
X160365000Y-65015000D02*
X160365000Y-73125000D01*
X149842500Y-73260000D02*
X155150000Y-73260000D01*
%TO.N,Net-(J1-Pin_1)*%
X158705000Y-55507500D02*
X163107500Y-55507500D01*
X163275000Y-55675000D02*
X163775000Y-56175000D01*
X163775000Y-56175000D02*
X163775000Y-96915000D01*
X158705000Y-55507500D02*
X158705000Y-50575000D01*
X163775000Y-96915000D02*
X157715000Y-102975000D01*
X143622500Y-55507500D02*
X158705000Y-55507500D01*
%TO.N,Net-(D2-K)*%
X88425000Y-81775000D02*
X93875000Y-87225000D01*
X123150000Y-45600000D02*
X123150000Y-65507500D01*
X95000000Y-88350000D02*
X93875000Y-87225000D01*
X123500000Y-96000000D02*
X134965000Y-96000000D01*
X91250000Y-52555000D02*
X98685000Y-52555000D01*
X98800000Y-45475000D02*
X123025000Y-45475000D01*
X98700000Y-52570000D02*
X98700000Y-45575000D01*
X90670000Y-52555000D02*
X88425000Y-54800000D01*
X114542500Y-65507500D02*
X123150000Y-65507500D01*
X91250000Y-66220000D02*
X91250000Y-57635000D01*
X88425000Y-54800000D02*
X88425000Y-81775000D01*
X98700000Y-66235000D02*
X98700000Y-57650000D01*
X88960000Y-103250000D02*
X94975000Y-103250000D01*
X95000000Y-103225000D02*
X95000000Y-88350000D01*
%TO.N,Net-(Q1-G)*%
X149842500Y-78340000D02*
X154305000Y-78340000D01*
%TO.N,Net-(U1-MOSI{slash}D7)*%
X101660000Y-93460000D02*
X112040000Y-93460000D01*
X101475000Y-87225000D02*
X101475000Y-93275000D01*
%TO.N,Net-(U1-SCK{slash}D5)*%
X104445000Y-77495000D02*
X108125000Y-81175000D01*
X98700000Y-71315000D02*
X98700000Y-77495000D01*
X108125000Y-84868574D02*
X111636426Y-88380000D01*
X98700000Y-77495000D02*
X104445000Y-77495000D01*
X108125000Y-81175000D02*
X108125000Y-84868574D01*
%TO.N,Net-(U1-MISO{slash}D6)*%
X91250000Y-77500000D02*
X91250000Y-71300000D01*
X105750000Y-82675000D02*
X103050000Y-79975000D01*
X105750000Y-90625000D02*
X105750000Y-82675000D01*
X112040000Y-90920000D02*
X106045000Y-90920000D01*
X93725000Y-79975000D02*
X91250000Y-77500000D01*
X103050000Y-79975000D02*
X93725000Y-79975000D01*
%TO.N,Net-(U1-SDA{slash}D2)*%
X141485000Y-83360000D02*
X138975000Y-80850000D01*
X138975000Y-76200000D02*
X141915000Y-73260000D01*
X134900000Y-88380000D02*
X143640000Y-88380000D01*
X138975000Y-80850000D02*
X138975000Y-76200000D01*
X143700000Y-83360000D02*
X141485000Y-83360000D01*
%TD*%
M02*
